%TF.GenerationSoftware,KiCad,Pcbnew,9.0.6-9.0.6~ubuntu24.04.1*%
%TF.CreationDate,2025-12-30T17:11:54-05:00*%
%TF.ProjectId,Dryer Buzzer V3,44727965-7220-4427-957a-7a6572205633,rev?*%
%TF.SameCoordinates,Original*%
%TF.FileFunction,Legend,Top*%
%TF.FilePolarity,Positive*%
%FSLAX46Y46*%
G04 Gerber Fmt 4.6, Leading zero omitted, Abs format (unit mm)*
G04 Created by KiCad (PCBNEW 9.0.6-9.0.6~ubuntu24.04.1) date 2025-12-30 17:11:54*
%MOMM*%
%LPD*%
G01*
G04 APERTURE LIST*
%ADD10C,0.150000*%
%ADD11C,0.120000*%
G04 APERTURE END LIST*
D10*
X38724819Y-20486666D02*
X38248628Y-20819999D01*
X38724819Y-21058094D02*
X37724819Y-21058094D01*
X37724819Y-21058094D02*
X37724819Y-20677142D01*
X37724819Y-20677142D02*
X37772438Y-20581904D01*
X37772438Y-20581904D02*
X37820057Y-20534285D01*
X37820057Y-20534285D02*
X37915295Y-20486666D01*
X37915295Y-20486666D02*
X38058152Y-20486666D01*
X38058152Y-20486666D02*
X38153390Y-20534285D01*
X38153390Y-20534285D02*
X38201009Y-20581904D01*
X38201009Y-20581904D02*
X38248628Y-20677142D01*
X38248628Y-20677142D02*
X38248628Y-21058094D01*
X37724819Y-19629523D02*
X37724819Y-19819999D01*
X37724819Y-19819999D02*
X37772438Y-19915237D01*
X37772438Y-19915237D02*
X37820057Y-19962856D01*
X37820057Y-19962856D02*
X37962914Y-20058094D01*
X37962914Y-20058094D02*
X38153390Y-20105713D01*
X38153390Y-20105713D02*
X38534342Y-20105713D01*
X38534342Y-20105713D02*
X38629580Y-20058094D01*
X38629580Y-20058094D02*
X38677200Y-20010475D01*
X38677200Y-20010475D02*
X38724819Y-19915237D01*
X38724819Y-19915237D02*
X38724819Y-19724761D01*
X38724819Y-19724761D02*
X38677200Y-19629523D01*
X38677200Y-19629523D02*
X38629580Y-19581904D01*
X38629580Y-19581904D02*
X38534342Y-19534285D01*
X38534342Y-19534285D02*
X38296247Y-19534285D01*
X38296247Y-19534285D02*
X38201009Y-19581904D01*
X38201009Y-19581904D02*
X38153390Y-19629523D01*
X38153390Y-19629523D02*
X38105771Y-19724761D01*
X38105771Y-19724761D02*
X38105771Y-19915237D01*
X38105771Y-19915237D02*
X38153390Y-20010475D01*
X38153390Y-20010475D02*
X38201009Y-20058094D01*
X38201009Y-20058094D02*
X38296247Y-20105713D01*
X33474819Y-40806666D02*
X32998628Y-41139999D01*
X33474819Y-41378094D02*
X32474819Y-41378094D01*
X32474819Y-41378094D02*
X32474819Y-40997142D01*
X32474819Y-40997142D02*
X32522438Y-40901904D01*
X32522438Y-40901904D02*
X32570057Y-40854285D01*
X32570057Y-40854285D02*
X32665295Y-40806666D01*
X32665295Y-40806666D02*
X32808152Y-40806666D01*
X32808152Y-40806666D02*
X32903390Y-40854285D01*
X32903390Y-40854285D02*
X32951009Y-40901904D01*
X32951009Y-40901904D02*
X32998628Y-40997142D01*
X32998628Y-40997142D02*
X32998628Y-41378094D01*
X32570057Y-40425713D02*
X32522438Y-40378094D01*
X32522438Y-40378094D02*
X32474819Y-40282856D01*
X32474819Y-40282856D02*
X32474819Y-40044761D01*
X32474819Y-40044761D02*
X32522438Y-39949523D01*
X32522438Y-39949523D02*
X32570057Y-39901904D01*
X32570057Y-39901904D02*
X32665295Y-39854285D01*
X32665295Y-39854285D02*
X32760533Y-39854285D01*
X32760533Y-39854285D02*
X32903390Y-39901904D01*
X32903390Y-39901904D02*
X33474819Y-40473332D01*
X33474819Y-40473332D02*
X33474819Y-39854285D01*
X33474819Y-28106666D02*
X32998628Y-28439999D01*
X33474819Y-28678094D02*
X32474819Y-28678094D01*
X32474819Y-28678094D02*
X32474819Y-28297142D01*
X32474819Y-28297142D02*
X32522438Y-28201904D01*
X32522438Y-28201904D02*
X32570057Y-28154285D01*
X32570057Y-28154285D02*
X32665295Y-28106666D01*
X32665295Y-28106666D02*
X32808152Y-28106666D01*
X32808152Y-28106666D02*
X32903390Y-28154285D01*
X32903390Y-28154285D02*
X32951009Y-28201904D01*
X32951009Y-28201904D02*
X32998628Y-28297142D01*
X32998628Y-28297142D02*
X32998628Y-28678094D01*
X33474819Y-27154285D02*
X33474819Y-27725713D01*
X33474819Y-27439999D02*
X32474819Y-27439999D01*
X32474819Y-27439999D02*
X32617676Y-27535237D01*
X32617676Y-27535237D02*
X32712914Y-27630475D01*
X32712914Y-27630475D02*
X32760533Y-27725713D01*
X40354819Y-53713333D02*
X41069104Y-53713333D01*
X41069104Y-53713333D02*
X41211961Y-53760952D01*
X41211961Y-53760952D02*
X41307200Y-53856190D01*
X41307200Y-53856190D02*
X41354819Y-53999047D01*
X41354819Y-53999047D02*
X41354819Y-54094285D01*
X40688152Y-52808571D02*
X41354819Y-52808571D01*
X40307200Y-53046666D02*
X41021485Y-53284761D01*
X41021485Y-53284761D02*
X41021485Y-52665714D01*
X36516666Y-25206819D02*
X36516666Y-25921104D01*
X36516666Y-25921104D02*
X36469047Y-26063961D01*
X36469047Y-26063961D02*
X36373809Y-26159200D01*
X36373809Y-26159200D02*
X36230952Y-26206819D01*
X36230952Y-26206819D02*
X36135714Y-26206819D01*
X36945238Y-25302057D02*
X36992857Y-25254438D01*
X36992857Y-25254438D02*
X37088095Y-25206819D01*
X37088095Y-25206819D02*
X37326190Y-25206819D01*
X37326190Y-25206819D02*
X37421428Y-25254438D01*
X37421428Y-25254438D02*
X37469047Y-25302057D01*
X37469047Y-25302057D02*
X37516666Y-25397295D01*
X37516666Y-25397295D02*
X37516666Y-25492533D01*
X37516666Y-25492533D02*
X37469047Y-25635390D01*
X37469047Y-25635390D02*
X36897619Y-26206819D01*
X36897619Y-26206819D02*
X37516666Y-26206819D01*
X28574819Y-30813333D02*
X29289104Y-30813333D01*
X29289104Y-30813333D02*
X29431961Y-30860952D01*
X29431961Y-30860952D02*
X29527200Y-30956190D01*
X29527200Y-30956190D02*
X29574819Y-31099047D01*
X29574819Y-31099047D02*
X29574819Y-31194285D01*
X29574819Y-29813333D02*
X29574819Y-30384761D01*
X29574819Y-30099047D02*
X28574819Y-30099047D01*
X28574819Y-30099047D02*
X28717676Y-30194285D01*
X28717676Y-30194285D02*
X28812914Y-30289523D01*
X28812914Y-30289523D02*
X28860533Y-30384761D01*
X40473333Y-40999580D02*
X40425714Y-41047200D01*
X40425714Y-41047200D02*
X40282857Y-41094819D01*
X40282857Y-41094819D02*
X40187619Y-41094819D01*
X40187619Y-41094819D02*
X40044762Y-41047200D01*
X40044762Y-41047200D02*
X39949524Y-40951961D01*
X39949524Y-40951961D02*
X39901905Y-40856723D01*
X39901905Y-40856723D02*
X39854286Y-40666247D01*
X39854286Y-40666247D02*
X39854286Y-40523390D01*
X39854286Y-40523390D02*
X39901905Y-40332914D01*
X39901905Y-40332914D02*
X39949524Y-40237676D01*
X39949524Y-40237676D02*
X40044762Y-40142438D01*
X40044762Y-40142438D02*
X40187619Y-40094819D01*
X40187619Y-40094819D02*
X40282857Y-40094819D01*
X40282857Y-40094819D02*
X40425714Y-40142438D01*
X40425714Y-40142438D02*
X40473333Y-40190057D01*
X41425714Y-41094819D02*
X40854286Y-41094819D01*
X41140000Y-41094819D02*
X41140000Y-40094819D01*
X41140000Y-40094819D02*
X41044762Y-40237676D01*
X41044762Y-40237676D02*
X40949524Y-40332914D01*
X40949524Y-40332914D02*
X40854286Y-40380533D01*
X52625714Y-61129104D02*
X53101904Y-61129104D01*
X52530476Y-61414819D02*
X52863809Y-60414819D01*
X52863809Y-60414819D02*
X53197142Y-61414819D01*
X54054285Y-61414819D02*
X53482857Y-61414819D01*
X53768571Y-61414819D02*
X53768571Y-60414819D01*
X53768571Y-60414819D02*
X53673333Y-60557676D01*
X53673333Y-60557676D02*
X53578095Y-60652914D01*
X53578095Y-60652914D02*
X53482857Y-60700533D01*
X54601904Y-20865180D02*
X54601904Y-20055657D01*
X54601904Y-20055657D02*
X54554285Y-19960419D01*
X54554285Y-19960419D02*
X54506666Y-19912800D01*
X54506666Y-19912800D02*
X54411428Y-19865180D01*
X54411428Y-19865180D02*
X54220952Y-19865180D01*
X54220952Y-19865180D02*
X54125714Y-19912800D01*
X54125714Y-19912800D02*
X54078095Y-19960419D01*
X54078095Y-19960419D02*
X54030476Y-20055657D01*
X54030476Y-20055657D02*
X54030476Y-20865180D01*
X53601904Y-19912800D02*
X53459047Y-19865180D01*
X53459047Y-19865180D02*
X53220952Y-19865180D01*
X53220952Y-19865180D02*
X53125714Y-19912800D01*
X53125714Y-19912800D02*
X53078095Y-19960419D01*
X53078095Y-19960419D02*
X53030476Y-20055657D01*
X53030476Y-20055657D02*
X53030476Y-20150895D01*
X53030476Y-20150895D02*
X53078095Y-20246133D01*
X53078095Y-20246133D02*
X53125714Y-20293752D01*
X53125714Y-20293752D02*
X53220952Y-20341371D01*
X53220952Y-20341371D02*
X53411428Y-20388990D01*
X53411428Y-20388990D02*
X53506666Y-20436609D01*
X53506666Y-20436609D02*
X53554285Y-20484228D01*
X53554285Y-20484228D02*
X53601904Y-20579466D01*
X53601904Y-20579466D02*
X53601904Y-20674704D01*
X53601904Y-20674704D02*
X53554285Y-20769942D01*
X53554285Y-20769942D02*
X53506666Y-20817561D01*
X53506666Y-20817561D02*
X53411428Y-20865180D01*
X53411428Y-20865180D02*
X53173333Y-20865180D01*
X53173333Y-20865180D02*
X53030476Y-20817561D01*
X52268571Y-20388990D02*
X52125714Y-20341371D01*
X52125714Y-20341371D02*
X52078095Y-20293752D01*
X52078095Y-20293752D02*
X52030476Y-20198514D01*
X52030476Y-20198514D02*
X52030476Y-20055657D01*
X52030476Y-20055657D02*
X52078095Y-19960419D01*
X52078095Y-19960419D02*
X52125714Y-19912800D01*
X52125714Y-19912800D02*
X52220952Y-19865180D01*
X52220952Y-19865180D02*
X52601904Y-19865180D01*
X52601904Y-19865180D02*
X52601904Y-20865180D01*
X52601904Y-20865180D02*
X52268571Y-20865180D01*
X52268571Y-20865180D02*
X52173333Y-20817561D01*
X52173333Y-20817561D02*
X52125714Y-20769942D01*
X52125714Y-20769942D02*
X52078095Y-20674704D01*
X52078095Y-20674704D02*
X52078095Y-20579466D01*
X52078095Y-20579466D02*
X52125714Y-20484228D01*
X52125714Y-20484228D02*
X52173333Y-20436609D01*
X52173333Y-20436609D02*
X52268571Y-20388990D01*
X52268571Y-20388990D02*
X52601904Y-20388990D01*
D11*
%TO.C,R6*%
X40640000Y-24360000D02*
X40640000Y-23590000D01*
X40640000Y-16280000D02*
X40640000Y-17050000D01*
X39270000Y-23590000D02*
X42010000Y-23590000D01*
X42010000Y-17050000D01*
X39270000Y-17050000D01*
X39270000Y-23590000D01*
%TO.C,R2*%
X33020000Y-36600000D02*
X33020000Y-37370000D01*
X33020000Y-44680000D02*
X33020000Y-43910000D01*
X34390000Y-37370000D02*
X31650000Y-37370000D01*
X31650000Y-43910000D01*
X34390000Y-43910000D01*
X34390000Y-37370000D01*
%TO.C,R1*%
X33020000Y-23900000D02*
X33020000Y-24670000D01*
X33020000Y-31980000D02*
X33020000Y-31210000D01*
X34390000Y-24670000D02*
X31650000Y-24670000D01*
X31650000Y-31210000D01*
X34390000Y-31210000D01*
X34390000Y-24670000D01*
%TO.C,J4*%
X37990000Y-47970000D02*
X35490000Y-47970000D01*
X35490000Y-47970000D02*
X35490000Y-50470000D01*
X39810000Y-48270000D02*
X35790000Y-48270000D01*
X38100000Y-48270000D02*
X38100000Y-48770000D01*
X37290000Y-48270000D02*
X37290000Y-49270000D01*
X35790000Y-48270000D02*
X35790000Y-58490000D01*
X39310000Y-48770000D02*
X39310000Y-57990000D01*
X38100000Y-48770000D02*
X39310000Y-48770000D01*
X37290000Y-49270000D02*
X35790000Y-49270000D01*
X37290000Y-57490000D02*
X35790000Y-57490000D01*
X39310000Y-57990000D02*
X38100000Y-57990000D01*
X38100000Y-57990000D02*
X38100000Y-58490000D01*
X39810000Y-58490000D02*
X39810000Y-48270000D01*
X37290000Y-58490000D02*
X37290000Y-57490000D01*
X35790000Y-58490000D02*
X39810000Y-58490000D01*
%TO.C,J2*%
X35230000Y-28662000D02*
X35230000Y-31162000D01*
X35230000Y-31162000D02*
X37730000Y-31162000D01*
X35530000Y-26842000D02*
X35530000Y-30862000D01*
X35530000Y-28552000D02*
X36030000Y-28552000D01*
X35530000Y-29362000D02*
X36530000Y-29362000D01*
X35530000Y-30862000D02*
X43250000Y-30862000D01*
X36030000Y-27342000D02*
X42750000Y-27342000D01*
X36030000Y-28552000D02*
X36030000Y-27342000D01*
X36530000Y-29362000D02*
X36530000Y-30862000D01*
X42250000Y-29362000D02*
X42250000Y-30862000D01*
X42750000Y-27342000D02*
X42750000Y-28552000D01*
X42750000Y-28552000D02*
X43250000Y-28552000D01*
X43250000Y-26842000D02*
X35530000Y-26842000D01*
X43250000Y-29362000D02*
X42250000Y-29362000D01*
X43250000Y-30862000D02*
X43250000Y-26842000D01*
%TO.C,J1*%
X28020000Y-24480000D02*
X28020000Y-36480000D01*
X17020000Y-24480000D02*
X28020000Y-24480000D01*
X17020000Y-25980000D02*
X17020000Y-24480000D01*
X15820000Y-25980000D02*
X17020000Y-25980000D01*
X15820000Y-27480000D02*
X15820000Y-25980000D01*
X14020000Y-27480000D02*
X15820000Y-27480000D01*
X17020000Y-28480000D02*
X14020000Y-28480000D01*
X17020000Y-32480000D02*
X17020000Y-28480000D01*
X14020000Y-32480000D02*
X17020000Y-32480000D01*
X15820000Y-33480000D02*
X14020000Y-33480000D01*
X14020000Y-33480000D02*
X14020000Y-27480000D01*
X17020000Y-34980000D02*
X15820000Y-34980000D01*
X15820000Y-34980000D02*
X15820000Y-33480000D01*
X28020000Y-36480000D02*
X17020000Y-36480000D01*
X17020000Y-36480000D02*
X17020000Y-34980000D01*
%TO.C,C1*%
X42115000Y-34005225D02*
X42115000Y-34505225D01*
X42365000Y-34255225D02*
X41865000Y-34255225D01*
X43220000Y-36810000D02*
X38060000Y-36810000D01*
X43220000Y-36850000D02*
X38060000Y-36850000D01*
X43219000Y-36890000D02*
X38061000Y-36890000D01*
X43217000Y-36930000D02*
X38063000Y-36930000D01*
X43215000Y-36970000D02*
X38065000Y-36970000D01*
X43212000Y-37010000D02*
X38068000Y-37010000D01*
X43209000Y-37050000D02*
X41680000Y-37050000D01*
X39600000Y-37050000D02*
X38071000Y-37050000D01*
X43205000Y-37090000D02*
X41680000Y-37090000D01*
X39600000Y-37090000D02*
X38075000Y-37090000D01*
X43200000Y-37130000D02*
X41680000Y-37130000D01*
X39600000Y-37130000D02*
X38080000Y-37130000D01*
X43195000Y-37170000D02*
X41680000Y-37170000D01*
X39600000Y-37170000D02*
X38085000Y-37170000D01*
X43189000Y-37210000D02*
X41680000Y-37210000D01*
X39600000Y-37210000D02*
X38091000Y-37210000D01*
X43183000Y-37250000D02*
X41680000Y-37250000D01*
X39600000Y-37250000D02*
X38097000Y-37250000D01*
X43176000Y-37290000D02*
X41680000Y-37290000D01*
X39600000Y-37290000D02*
X38104000Y-37290000D01*
X43168000Y-37330000D02*
X41680000Y-37330000D01*
X39600000Y-37330000D02*
X38112000Y-37330000D01*
X43159000Y-37370000D02*
X41680000Y-37370000D01*
X39600000Y-37370000D02*
X38121000Y-37370000D01*
X43150000Y-37410000D02*
X41680000Y-37410000D01*
X39600000Y-37410000D02*
X38130000Y-37410000D01*
X43141000Y-37450000D02*
X41680000Y-37450000D01*
X39600000Y-37450000D02*
X38139000Y-37450000D01*
X43130000Y-37490000D02*
X41680000Y-37490000D01*
X39600000Y-37490000D02*
X38150000Y-37490000D01*
X43119000Y-37530000D02*
X41680000Y-37530000D01*
X39600000Y-37530000D02*
X38161000Y-37530000D01*
X43107000Y-37570000D02*
X41680000Y-37570000D01*
X39600000Y-37570000D02*
X38173000Y-37570000D01*
X43095000Y-37610000D02*
X41680000Y-37610000D01*
X39600000Y-37610000D02*
X38185000Y-37610000D01*
X43082000Y-37650000D02*
X41680000Y-37650000D01*
X39600000Y-37650000D02*
X38198000Y-37650000D01*
X43068000Y-37690000D02*
X41680000Y-37690000D01*
X39600000Y-37690000D02*
X38212000Y-37690000D01*
X43053000Y-37730000D02*
X41680000Y-37730000D01*
X39600000Y-37730000D02*
X38227000Y-37730000D01*
X43038000Y-37770000D02*
X41680000Y-37770000D01*
X39600000Y-37770000D02*
X38242000Y-37770000D01*
X43022000Y-37810000D02*
X41680000Y-37810000D01*
X39600000Y-37810000D02*
X38258000Y-37810000D01*
X43005000Y-37850000D02*
X41680000Y-37850000D01*
X39600000Y-37850000D02*
X38275000Y-37850000D01*
X42987000Y-37890000D02*
X41680000Y-37890000D01*
X39600000Y-37890000D02*
X38293000Y-37890000D01*
X42969000Y-37930000D02*
X41680000Y-37930000D01*
X39600000Y-37930000D02*
X38311000Y-37930000D01*
X42949000Y-37970000D02*
X41680000Y-37970000D01*
X39600000Y-37970000D02*
X38331000Y-37970000D01*
X42929000Y-38010000D02*
X41680000Y-38010000D01*
X39600000Y-38010000D02*
X38351000Y-38010000D01*
X42908000Y-38050000D02*
X41680000Y-38050000D01*
X39600000Y-38050000D02*
X38372000Y-38050000D01*
X42886000Y-38090000D02*
X41680000Y-38090000D01*
X39600000Y-38090000D02*
X38394000Y-38090000D01*
X42863000Y-38130000D02*
X41680000Y-38130000D01*
X39600000Y-38130000D02*
X38417000Y-38130000D01*
X42839000Y-38170000D02*
X41680000Y-38170000D01*
X39600000Y-38170000D02*
X38441000Y-38170000D01*
X42815000Y-38210000D02*
X41680000Y-38210000D01*
X39600000Y-38210000D02*
X38465000Y-38210000D01*
X42789000Y-38250000D02*
X41680000Y-38250000D01*
X39600000Y-38250000D02*
X38491000Y-38250000D01*
X42762000Y-38290000D02*
X41680000Y-38290000D01*
X39600000Y-38290000D02*
X38518000Y-38290000D01*
X42734000Y-38330000D02*
X41680000Y-38330000D01*
X39600000Y-38330000D02*
X38546000Y-38330000D01*
X42705000Y-38370000D02*
X41680000Y-38370000D01*
X39600000Y-38370000D02*
X38575000Y-38370000D01*
X42675000Y-38410000D02*
X41680000Y-38410000D01*
X39600000Y-38410000D02*
X38605000Y-38410000D01*
X42643000Y-38450000D02*
X41680000Y-38450000D01*
X39600000Y-38450000D02*
X38637000Y-38450000D01*
X42610000Y-38490000D02*
X41680000Y-38490000D01*
X39600000Y-38490000D02*
X38670000Y-38490000D01*
X42576000Y-38530000D02*
X41680000Y-38530000D01*
X39600000Y-38530000D02*
X38704000Y-38530000D01*
X42541000Y-38570000D02*
X41680000Y-38570000D01*
X39600000Y-38570000D02*
X38739000Y-38570000D01*
X42504000Y-38610000D02*
X41680000Y-38610000D01*
X39600000Y-38610000D02*
X38776000Y-38610000D01*
X42465000Y-38650000D02*
X41680000Y-38650000D01*
X39600000Y-38650000D02*
X38815000Y-38650000D01*
X42425000Y-38690000D02*
X41680000Y-38690000D01*
X39600000Y-38690000D02*
X38855000Y-38690000D01*
X42383000Y-38730000D02*
X41680000Y-38730000D01*
X39600000Y-38730000D02*
X38897000Y-38730000D01*
X42339000Y-38770000D02*
X41680000Y-38770000D01*
X39600000Y-38770000D02*
X38941000Y-38770000D01*
X42292000Y-38810000D02*
X41680000Y-38810000D01*
X39600000Y-38810000D02*
X38988000Y-38810000D01*
X42244000Y-38850000D02*
X41680000Y-38850000D01*
X39600000Y-38850000D02*
X39036000Y-38850000D01*
X42193000Y-38890000D02*
X41680000Y-38890000D01*
X39600000Y-38890000D02*
X39087000Y-38890000D01*
X42139000Y-38930000D02*
X41680000Y-38930000D01*
X39600000Y-38930000D02*
X39141000Y-38930000D01*
X42083000Y-38970000D02*
X41680000Y-38970000D01*
X39600000Y-38970000D02*
X39197000Y-38970000D01*
X42023000Y-39010000D02*
X41680000Y-39010000D01*
X39600000Y-39010000D02*
X39257000Y-39010000D01*
X41959000Y-39050000D02*
X41680000Y-39050000D01*
X39600000Y-39050000D02*
X39321000Y-39050000D01*
X41891000Y-39090000D02*
X41680000Y-39090000D01*
X39600000Y-39090000D02*
X39389000Y-39090000D01*
X41817000Y-39130000D02*
X39463000Y-39130000D01*
X41738000Y-39170000D02*
X39542000Y-39170000D01*
X41651000Y-39210000D02*
X39629000Y-39210000D01*
X41554000Y-39250000D02*
X39726000Y-39250000D01*
X41445000Y-39290000D02*
X39835000Y-39290000D01*
X41317000Y-39330000D02*
X39963000Y-39330000D01*
X41157000Y-39370000D02*
X40123000Y-39370000D01*
X40923000Y-39410000D02*
X40357000Y-39410000D01*
X43260000Y-36810000D02*
G75*
G02*
X38020000Y-36810000I-2620000J0D01*
G01*
X38020000Y-36810000D02*
G75*
G02*
X43260000Y-36810000I2620000J0D01*
G01*
%TO.C,A1*%
X44320000Y-16380000D02*
X44320000Y-59820000D01*
X44320000Y-16380000D02*
X49400000Y-16380000D01*
X44320000Y-59820000D02*
X62360000Y-59820000D01*
X46990000Y-19050000D02*
X44320000Y-19050000D01*
X46990000Y-57150000D02*
X44320000Y-57150000D01*
X46990000Y-57150000D02*
X46990000Y-19050000D01*
X49400000Y-13840000D02*
X57280000Y-13840000D01*
X49400000Y-24260000D02*
X49400000Y-13840000D01*
X57280000Y-13840000D02*
X57280000Y-24260000D01*
X57280000Y-24260000D02*
X49400000Y-24260000D01*
X59690000Y-19050000D02*
X62360000Y-19050000D01*
X59690000Y-54610000D02*
X59690000Y-19050000D01*
X59690000Y-54610000D02*
X59690000Y-57150000D01*
X59690000Y-54610000D02*
X62360000Y-54610000D01*
X59690000Y-57150000D02*
X62360000Y-57150000D01*
X62360000Y-16380000D02*
X57280000Y-16380000D01*
X62360000Y-54610000D02*
X62360000Y-16380000D01*
X62360000Y-59820000D02*
X62360000Y-57150000D01*
%TD*%
M02*
