%TF.GenerationSoftware,KiCad,Pcbnew,9.0.6-9.0.6~ubuntu24.04.1*%
%TF.CreationDate,2025-12-30T17:11:54-05:00*%
%TF.ProjectId,Dryer Buzzer V3,44727965-7220-4427-957a-7a6572205633,rev?*%
%TF.SameCoordinates,Original*%
%TF.FileFunction,Copper,L1,Top*%
%TF.FilePolarity,Positive*%
%FSLAX46Y46*%
G04 Gerber Fmt 4.6, Leading zero omitted, Abs format (unit mm)*
G04 Created by KiCad (PCBNEW 9.0.6-9.0.6~ubuntu24.04.1) date 2025-12-30 17:11:54*
%MOMM*%
%LPD*%
G01*
G04 APERTURE LIST*
G04 Aperture macros list*
%AMRoundRect*
0 Rectangle with rounded corners*
0 $1 Rounding radius*
0 $2 $3 $4 $5 $6 $7 $8 $9 X,Y pos of 4 corners*
0 Add a 4 corners polygon primitive as box body*
4,1,4,$2,$3,$4,$5,$6,$7,$8,$9,$2,$3,0*
0 Add four circle primitives for the rounded corners*
1,1,$1+$1,$2,$3*
1,1,$1+$1,$4,$5*
1,1,$1+$1,$6,$7*
1,1,$1+$1,$8,$9*
0 Add four rect primitives between the rounded corners*
20,1,$1+$1,$2,$3,$4,$5,0*
20,1,$1+$1,$4,$5,$6,$7,0*
20,1,$1+$1,$6,$7,$8,$9,0*
20,1,$1+$1,$8,$9,$2,$3,0*%
G04 Aperture macros list end*
%TA.AperFunction,ComponentPad*%
%ADD10C,1.600000*%
%TD*%
%TA.AperFunction,ComponentPad*%
%ADD11RoundRect,0.250000X-0.725000X0.600000X-0.725000X-0.600000X0.725000X-0.600000X0.725000X0.600000X0*%
%TD*%
%TA.AperFunction,ComponentPad*%
%ADD12O,1.950000X1.700000*%
%TD*%
%TA.AperFunction,ComponentPad*%
%ADD13RoundRect,0.250000X-0.600000X-0.750000X0.600000X-0.750000X0.600000X0.750000X-0.600000X0.750000X0*%
%TD*%
%TA.AperFunction,ComponentPad*%
%ADD14O,1.700000X2.000000*%
%TD*%
%TA.AperFunction,ComponentPad*%
%ADD15O,2.200000X1.200000*%
%TD*%
%TA.AperFunction,ComponentPad*%
%ADD16O,2.300000X1.600000*%
%TD*%
%TA.AperFunction,ComponentPad*%
%ADD17O,1.200000X2.200000*%
%TD*%
%TA.AperFunction,ComponentPad*%
%ADD18O,2.500000X1.600000*%
%TD*%
%TA.AperFunction,ComponentPad*%
%ADD19RoundRect,0.250000X-0.550000X0.550000X-0.550000X-0.550000X0.550000X-0.550000X0.550000X0.550000X0*%
%TD*%
%TA.AperFunction,ComponentPad*%
%ADD20O,1.600000X1.600000*%
%TD*%
%TA.AperFunction,ComponentPad*%
%ADD21R,1.600000X1.600000*%
%TD*%
%TA.AperFunction,ViaPad*%
%ADD22C,0.600000*%
%TD*%
%TA.AperFunction,Conductor*%
%ADD23C,0.200000*%
%TD*%
G04 APERTURE END LIST*
D10*
%TO.P,R6,1*%
%TO.N,/A0*%
X40640000Y-25400000D03*
%TO.P,R6,2*%
%TO.N,GND*%
X40640000Y-15240000D03*
%TD*%
%TO.P,R2,1*%
%TO.N,Net-(C1-Pad1)*%
X33020000Y-35560000D03*
%TO.P,R2,2*%
%TO.N,GND*%
X33020000Y-45720000D03*
%TD*%
%TO.P,R1,1*%
%TO.N,+3V3*%
X33020000Y-22860000D03*
%TO.P,R1,2*%
%TO.N,Net-(C1-Pad1)*%
X33020000Y-33020000D03*
%TD*%
D11*
%TO.P,J4,1,Pin_1*%
%TO.N,GND*%
X38100000Y-50880000D03*
D12*
%TO.P,J4,2,Pin_2*%
%TO.N,/D8*%
X38100000Y-53380000D03*
%TO.P,J4,3,Pin_3*%
%TO.N,+9V*%
X38100000Y-55880000D03*
%TD*%
D13*
%TO.P,J2,1,Pin_1*%
%TO.N,+3V3*%
X38140000Y-28552000D03*
D14*
%TO.P,J2,2,Pin_2*%
%TO.N,/A0*%
X40640000Y-28552000D03*
%TD*%
D15*
%TO.P,J1,R*%
%TO.N,unconnected-(J1-PadR)*%
X25320000Y-25480000D03*
D16*
%TO.P,J1,RN*%
%TO.N,unconnected-(J1-PadRN)*%
X25320000Y-27980000D03*
D17*
%TO.P,J1,S*%
%TO.N,/A1*%
X20320000Y-30480000D03*
D15*
%TO.P,J1,T*%
%TO.N,Net-(C1-Pad1)*%
X25320000Y-35480000D03*
D18*
%TO.P,J1,TN*%
%TO.N,unconnected-(J1-PadTN)*%
X25320000Y-32980000D03*
%TD*%
D19*
%TO.P,C1,1*%
%TO.N,Net-(C1-Pad1)*%
X40640000Y-35560000D03*
D10*
%TO.P,C1,2*%
%TO.N,GND*%
X40640000Y-38060000D03*
%TD*%
D20*
%TO.P,A1,30,VIN*%
%TO.N,+9V*%
X45720000Y-55880000D03*
%TO.P,A1,29,GND*%
%TO.N,GND*%
X45720000Y-53340000D03*
%TO.P,A1,28,~{RESET}*%
%TO.N,unconnected-(A1-~{RESET}-Pad28)*%
X45720000Y-50800000D03*
%TO.P,A1,27,+5V*%
%TO.N,unconnected-(A1-+5V-Pad27)*%
X45720000Y-48260000D03*
%TO.P,A1,26,A7*%
%TO.N,unconnected-(A1-A7-Pad26)*%
X45720000Y-45720000D03*
%TO.P,A1,25,A6*%
%TO.N,unconnected-(A1-A6-Pad25)*%
X45720000Y-43180000D03*
%TO.P,A1,24,A5*%
%TO.N,unconnected-(A1-A5-Pad24)*%
X45720000Y-40640000D03*
%TO.P,A1,23,A4*%
%TO.N,unconnected-(A1-A4-Pad23)*%
X45720000Y-38100000D03*
%TO.P,A1,22,A3*%
%TO.N,unconnected-(A1-A3-Pad22)*%
X45720000Y-35560000D03*
%TO.P,A1,21,A2*%
%TO.N,unconnected-(A1-A2-Pad21)*%
X45720000Y-33020000D03*
%TO.P,A1,20,A1*%
%TO.N,/A1*%
X45720000Y-30480000D03*
%TO.P,A1,19,A0*%
%TO.N,/A0*%
X45720000Y-27940000D03*
%TO.P,A1,18,AREF*%
%TO.N,unconnected-(A1-AREF-Pad18)*%
X45720000Y-25400000D03*
%TO.P,A1,17,3V3*%
%TO.N,+3V3*%
X45720000Y-22860000D03*
%TO.P,A1,16,D13*%
%TO.N,unconnected-(A1-D13-Pad16)*%
X45720000Y-20320000D03*
%TO.P,A1,15,D12*%
%TO.N,unconnected-(A1-D12-Pad15)*%
X60960000Y-20320000D03*
%TO.P,A1,14,D11*%
%TO.N,unconnected-(A1-D11-Pad14)*%
X60960000Y-22860000D03*
%TO.P,A1,13,D10*%
%TO.N,unconnected-(A1-D10-Pad13)*%
X60960000Y-25400000D03*
%TO.P,A1,12,D9*%
%TO.N,unconnected-(A1-D9-Pad12)*%
X60960000Y-27940000D03*
%TO.P,A1,11,D8*%
%TO.N,unconnected-(A1-D8-Pad11)*%
X60960000Y-30480000D03*
%TO.P,A1,10,D7*%
%TO.N,unconnected-(A1-D7-Pad10)*%
X60960000Y-33020000D03*
%TO.P,A1,9,D6*%
%TO.N,unconnected-(A1-D6-Pad9)*%
X60960000Y-35560000D03*
%TO.P,A1,8,D5*%
%TO.N,/D8*%
X60960000Y-38100000D03*
%TO.P,A1,7,D4*%
%TO.N,unconnected-(A1-D4-Pad7)*%
X60960000Y-40640000D03*
%TO.P,A1,6,D3*%
%TO.N,unconnected-(A1-D3-Pad6)*%
X60960000Y-43180000D03*
%TO.P,A1,5,D2*%
%TO.N,unconnected-(A1-D2-Pad5)*%
X60960000Y-45720000D03*
%TO.P,A1,4,GND*%
%TO.N,GND*%
X60960000Y-48260000D03*
%TO.P,A1,3,~{RESET}*%
%TO.N,unconnected-(A1-~{RESET}-Pad3)*%
X60960000Y-50800000D03*
%TO.P,A1,2,D0/RX*%
%TO.N,unconnected-(A1-D0{slash}RX-Pad2)*%
X60960000Y-53340000D03*
D21*
%TO.P,A1,1,D1/TX*%
%TO.N,unconnected-(A1-D1{slash}TX-Pad1)*%
X60960000Y-55880000D03*
%TD*%
D22*
%TO.N,GND*%
X43180000Y-53340000D03*
X38100000Y-33020000D03*
X43180000Y-25400000D03*
X38100000Y-25400000D03*
X30480000Y-33020000D03*
%TD*%
D23*
%TO.N,Net-(C1-Pad1)*%
X33020000Y-35560000D02*
X40640000Y-35560000D01*
%TO.N,/D8*%
X38100000Y-53380000D02*
X41781000Y-49699000D01*
X49361000Y-49699000D02*
X60960000Y-38100000D01*
X41781000Y-49699000D02*
X49361000Y-49699000D01*
%TO.N,+9V*%
X38100000Y-55880000D02*
X45720000Y-55880000D01*
%TO.N,/A1*%
X45720000Y-30480000D02*
X44769000Y-31431000D01*
X44769000Y-31431000D02*
X21271000Y-31431000D01*
X21271000Y-31431000D02*
X20320000Y-30480000D01*
%TO.N,/A0*%
X40640000Y-28552000D02*
X45108000Y-28552000D01*
X45108000Y-28552000D02*
X45720000Y-27940000D01*
X40640000Y-28552000D02*
X40640000Y-25400000D01*
%TO.N,+3V3*%
X38026225Y-28552000D02*
X38026225Y-27866225D01*
X38026225Y-27866225D02*
X33020000Y-22860000D01*
X33020000Y-22860000D02*
X45720000Y-22860000D01*
%TO.N,Net-(C1-Pad1)*%
X33020000Y-35560000D02*
X33020000Y-33020000D01*
X25320000Y-35480000D02*
X32940000Y-35480000D01*
X32940000Y-35480000D02*
X33020000Y-35560000D01*
%TD*%
%TA.AperFunction,Conductor*%
%TO.N,GND*%
G36*
X44411563Y-50319185D02*
G01*
X44457318Y-50371989D01*
X44467262Y-50441147D01*
X44462455Y-50461817D01*
X44451524Y-50495457D01*
X44451523Y-50495464D01*
X44419500Y-50697648D01*
X44419500Y-50902351D01*
X44451522Y-51104534D01*
X44514781Y-51299223D01*
X44607715Y-51481613D01*
X44728028Y-51647213D01*
X44872786Y-51791971D01*
X45027749Y-51904556D01*
X45038390Y-51912287D01*
X45109158Y-51948345D01*
X45131629Y-51959795D01*
X45182425Y-52007770D01*
X45199220Y-52075591D01*
X45176682Y-52141726D01*
X45131629Y-52180765D01*
X45038650Y-52228140D01*
X44873105Y-52348417D01*
X44873104Y-52348417D01*
X44728417Y-52493104D01*
X44728417Y-52493105D01*
X44608140Y-52658650D01*
X44515244Y-52840970D01*
X44452009Y-53035586D01*
X44443391Y-53090000D01*
X45286988Y-53090000D01*
X45254075Y-53147007D01*
X45220000Y-53274174D01*
X45220000Y-53405826D01*
X45254075Y-53532993D01*
X45286988Y-53590000D01*
X44443391Y-53590000D01*
X44452009Y-53644413D01*
X44515244Y-53839029D01*
X44608140Y-54021349D01*
X44728417Y-54186894D01*
X44728417Y-54186895D01*
X44873104Y-54331582D01*
X45038652Y-54451861D01*
X45131628Y-54499234D01*
X45182425Y-54547208D01*
X45199220Y-54615029D01*
X45176683Y-54681164D01*
X45131630Y-54720203D01*
X45038388Y-54767713D01*
X44872786Y-54888028D01*
X44728028Y-55032786D01*
X44607715Y-55198385D01*
X44600883Y-55211795D01*
X44552909Y-55262591D01*
X44490398Y-55279500D01*
X39510719Y-55279500D01*
X39443680Y-55259815D01*
X39400235Y-55211795D01*
X39380052Y-55172185D01*
X39380051Y-55172184D01*
X39255109Y-55000213D01*
X39104792Y-54849896D01*
X39104784Y-54849890D01*
X38940204Y-54730316D01*
X38897540Y-54674989D01*
X38891561Y-54605376D01*
X38924166Y-54543580D01*
X38940199Y-54529686D01*
X39104792Y-54410104D01*
X39255104Y-54259792D01*
X39255106Y-54259788D01*
X39255109Y-54259786D01*
X39380048Y-54087820D01*
X39380047Y-54087820D01*
X39380051Y-54087816D01*
X39476557Y-53898412D01*
X39542246Y-53696243D01*
X39575500Y-53486287D01*
X39575500Y-53273713D01*
X39542246Y-53063757D01*
X39497851Y-52927126D01*
X39495857Y-52857290D01*
X39528100Y-52801133D01*
X41993416Y-50335819D01*
X42054739Y-50302334D01*
X42081097Y-50299500D01*
X44344524Y-50299500D01*
X44411563Y-50319185D01*
G37*
%TD.AperFunction*%
%TA.AperFunction,Conductor*%
G36*
X31954356Y-32051185D02*
G01*
X32000111Y-32103989D01*
X32010055Y-32173147D01*
X31987635Y-32228385D01*
X31907715Y-32338386D01*
X31814781Y-32520776D01*
X31751522Y-32715465D01*
X31719500Y-32917648D01*
X31719500Y-33122351D01*
X31751522Y-33324534D01*
X31814781Y-33519223D01*
X31878691Y-33644653D01*
X31887333Y-33661613D01*
X31907715Y-33701613D01*
X32028028Y-33867213D01*
X32028034Y-33867219D01*
X32172781Y-34011966D01*
X32338390Y-34132287D01*
X32351793Y-34139116D01*
X32362856Y-34149564D01*
X32376703Y-34155888D01*
X32387744Y-34173068D01*
X32402589Y-34187088D01*
X32406830Y-34202768D01*
X32414477Y-34214666D01*
X32419500Y-34249601D01*
X32419500Y-34330397D01*
X32399815Y-34397436D01*
X32351800Y-34440879D01*
X32338389Y-34447712D01*
X32172786Y-34568028D01*
X32028034Y-34712780D01*
X32018214Y-34726297D01*
X31944042Y-34828385D01*
X31888714Y-34871051D01*
X31843725Y-34879500D01*
X26807185Y-34879500D01*
X26740146Y-34859815D01*
X26706867Y-34828386D01*
X26659414Y-34763072D01*
X26536928Y-34640586D01*
X26396788Y-34538768D01*
X26242445Y-34460127D01*
X26195744Y-34444952D01*
X26138071Y-34405516D01*
X26110873Y-34341157D01*
X26122788Y-34272311D01*
X26170032Y-34220835D01*
X26195743Y-34209093D01*
X26269219Y-34185220D01*
X26451610Y-34092287D01*
X26544590Y-34024732D01*
X26617213Y-33971971D01*
X26617215Y-33971968D01*
X26617219Y-33971966D01*
X26761966Y-33827219D01*
X26761968Y-33827215D01*
X26761971Y-33827213D01*
X26853223Y-33701613D01*
X26882287Y-33661610D01*
X26975220Y-33479219D01*
X27038477Y-33284534D01*
X27070500Y-33082352D01*
X27070500Y-32877648D01*
X27038477Y-32675465D01*
X26975218Y-32480776D01*
X26882287Y-32298390D01*
X26831426Y-32228385D01*
X26807947Y-32162578D01*
X26823773Y-32094524D01*
X26873879Y-32045830D01*
X26931745Y-32031500D01*
X31887317Y-32031500D01*
X31954356Y-32051185D01*
G37*
%TD.AperFunction*%
%TA.AperFunction,Conductor*%
G36*
X44505000Y-23464787D02*
G01*
X44520206Y-23464136D01*
X44537843Y-23474431D01*
X44557437Y-23480185D01*
X44568335Y-23492230D01*
X44580547Y-23499359D01*
X44600883Y-23528205D01*
X44607715Y-23541614D01*
X44728028Y-23707213D01*
X44872786Y-23851971D01*
X45027749Y-23964556D01*
X45038390Y-23972287D01*
X45129840Y-24018883D01*
X45131080Y-24019515D01*
X45181876Y-24067490D01*
X45198671Y-24135311D01*
X45176134Y-24201446D01*
X45131080Y-24240485D01*
X45038386Y-24287715D01*
X44872786Y-24408028D01*
X44728028Y-24552786D01*
X44607715Y-24718386D01*
X44514781Y-24900776D01*
X44451522Y-25095465D01*
X44419500Y-25297648D01*
X44419500Y-25502351D01*
X44451522Y-25704534D01*
X44514781Y-25899223D01*
X44607715Y-26081613D01*
X44728028Y-26247213D01*
X44872786Y-26391971D01*
X45021301Y-26499871D01*
X45038390Y-26512287D01*
X45119083Y-26553402D01*
X45131080Y-26559515D01*
X45181876Y-26607490D01*
X45198671Y-26675311D01*
X45176134Y-26741446D01*
X45131080Y-26780485D01*
X45038386Y-26827715D01*
X44872786Y-26948028D01*
X44728028Y-27092786D01*
X44607715Y-27258386D01*
X44514781Y-27440776D01*
X44451522Y-27635465D01*
X44418738Y-27842460D01*
X44417611Y-27842281D01*
X44394637Y-27902533D01*
X44338399Y-27943995D01*
X44295915Y-27951500D01*
X42002148Y-27951500D01*
X41935109Y-27931815D01*
X41891663Y-27883795D01*
X41856153Y-27814103D01*
X41795051Y-27694184D01*
X41762368Y-27649199D01*
X41670109Y-27522213D01*
X41519786Y-27371890D01*
X41347815Y-27246948D01*
X41347814Y-27246947D01*
X41308205Y-27226765D01*
X41257409Y-27178791D01*
X41240500Y-27116281D01*
X41240500Y-26629601D01*
X41260185Y-26562562D01*
X41308206Y-26519116D01*
X41321610Y-26512287D01*
X41487219Y-26391966D01*
X41631966Y-26247219D01*
X41631968Y-26247215D01*
X41631971Y-26247213D01*
X41684732Y-26174590D01*
X41752287Y-26081610D01*
X41845220Y-25899219D01*
X41908477Y-25704534D01*
X41940500Y-25502352D01*
X41940500Y-25297648D01*
X41908477Y-25095466D01*
X41845220Y-24900781D01*
X41845218Y-24900778D01*
X41845218Y-24900776D01*
X41803740Y-24819373D01*
X41752287Y-24718390D01*
X41744556Y-24707749D01*
X41631971Y-24552786D01*
X41487213Y-24408028D01*
X41321613Y-24287715D01*
X41321612Y-24287714D01*
X41321610Y-24287713D01*
X41264653Y-24258691D01*
X41139223Y-24194781D01*
X40944534Y-24131522D01*
X40747693Y-24100346D01*
X40742352Y-24099500D01*
X40537648Y-24099500D01*
X40532307Y-24100346D01*
X40335465Y-24131522D01*
X40140776Y-24194781D01*
X39958386Y-24287715D01*
X39792786Y-24408028D01*
X39648028Y-24552786D01*
X39527715Y-24718386D01*
X39434781Y-24900776D01*
X39371522Y-25095465D01*
X39339500Y-25297648D01*
X39339500Y-25502351D01*
X39371522Y-25704534D01*
X39434781Y-25899223D01*
X39527715Y-26081613D01*
X39648028Y-26247213D01*
X39648034Y-26247219D01*
X39792781Y-26391966D01*
X39958390Y-26512287D01*
X39971793Y-26519116D01*
X40022589Y-26567088D01*
X40039500Y-26629601D01*
X40039500Y-27116281D01*
X40019815Y-27183320D01*
X39971795Y-27226765D01*
X39932185Y-27246947D01*
X39932184Y-27246948D01*
X39760215Y-27371889D01*
X39621398Y-27510706D01*
X39560075Y-27544190D01*
X39490383Y-27539206D01*
X39434450Y-27497334D01*
X39428178Y-27488120D01*
X39332712Y-27333344D01*
X39208657Y-27209289D01*
X39208656Y-27209288D01*
X39059334Y-27117186D01*
X38892797Y-27062001D01*
X38892795Y-27062000D01*
X38790016Y-27051500D01*
X38790009Y-27051500D01*
X38112097Y-27051500D01*
X38045058Y-27031815D01*
X38024416Y-27015181D01*
X34681416Y-23672181D01*
X34647931Y-23610858D01*
X34652915Y-23541166D01*
X34694787Y-23485233D01*
X34760251Y-23460816D01*
X34769097Y-23460500D01*
X44490398Y-23460500D01*
X44505000Y-23464787D01*
G37*
%TD.AperFunction*%
%TA.AperFunction,Conductor*%
G36*
X62942539Y-13220185D02*
G01*
X62988294Y-13272989D01*
X62999500Y-13324500D01*
X62999500Y-62875500D01*
X62979815Y-62942539D01*
X62927011Y-62988294D01*
X62875500Y-62999500D01*
X16444500Y-62999500D01*
X16377461Y-62979815D01*
X16331706Y-62927011D01*
X16320500Y-62875500D01*
X16320500Y-45617682D01*
X31720000Y-45617682D01*
X31720000Y-45822317D01*
X31752009Y-46024417D01*
X31815244Y-46219031D01*
X31908141Y-46401350D01*
X31908147Y-46401359D01*
X31940523Y-46445921D01*
X31940524Y-46445922D01*
X32620000Y-45766446D01*
X32620000Y-45772661D01*
X32647259Y-45874394D01*
X32699920Y-45965606D01*
X32774394Y-46040080D01*
X32865606Y-46092741D01*
X32967339Y-46120000D01*
X32973553Y-46120000D01*
X32294076Y-46799474D01*
X32338650Y-46831859D01*
X32520968Y-46924755D01*
X32715582Y-46987990D01*
X32917683Y-47020000D01*
X33122317Y-47020000D01*
X33324417Y-46987990D01*
X33519031Y-46924755D01*
X33701349Y-46831859D01*
X33745921Y-46799474D01*
X33066447Y-46120000D01*
X33072661Y-46120000D01*
X33174394Y-46092741D01*
X33265606Y-46040080D01*
X33340080Y-45965606D01*
X33392741Y-45874394D01*
X33420000Y-45772661D01*
X33420000Y-45766447D01*
X34099474Y-46445921D01*
X34131859Y-46401349D01*
X34224755Y-46219031D01*
X34287990Y-46024417D01*
X34320000Y-45822317D01*
X34320000Y-45617682D01*
X34287990Y-45415582D01*
X34224755Y-45220968D01*
X34131859Y-45038650D01*
X34099474Y-44994077D01*
X34099474Y-44994076D01*
X33420000Y-45673551D01*
X33420000Y-45667339D01*
X33392741Y-45565606D01*
X33340080Y-45474394D01*
X33265606Y-45399920D01*
X33174394Y-45347259D01*
X33072661Y-45320000D01*
X33066446Y-45320000D01*
X33745922Y-44640524D01*
X33745921Y-44640523D01*
X33701359Y-44608147D01*
X33701350Y-44608141D01*
X33519031Y-44515244D01*
X33324417Y-44452009D01*
X33122317Y-44420000D01*
X32917683Y-44420000D01*
X32715582Y-44452009D01*
X32520968Y-44515244D01*
X32338644Y-44608143D01*
X32294077Y-44640523D01*
X32294077Y-44640524D01*
X32973554Y-45320000D01*
X32967339Y-45320000D01*
X32865606Y-45347259D01*
X32774394Y-45399920D01*
X32699920Y-45474394D01*
X32647259Y-45565606D01*
X32620000Y-45667339D01*
X32620000Y-45673553D01*
X31940524Y-44994077D01*
X31940523Y-44994077D01*
X31908143Y-45038644D01*
X31815244Y-45220968D01*
X31752009Y-45415582D01*
X31720000Y-45617682D01*
X16320500Y-45617682D01*
X16320500Y-35396228D01*
X16969500Y-35396228D01*
X16969500Y-35563771D01*
X17002182Y-35728074D01*
X17002184Y-35728082D01*
X17066295Y-35882860D01*
X17159373Y-36022162D01*
X17277837Y-36140626D01*
X17370494Y-36202537D01*
X17417137Y-36233703D01*
X17417138Y-36233703D01*
X17417139Y-36233704D01*
X17452201Y-36248227D01*
X17571918Y-36297816D01*
X17736228Y-36330499D01*
X17736232Y-36330500D01*
X17736233Y-36330500D01*
X17903768Y-36330500D01*
X17903769Y-36330499D01*
X18068082Y-36297816D01*
X18222863Y-36233703D01*
X18362162Y-36140626D01*
X18480626Y-36022162D01*
X18573703Y-35882863D01*
X18637816Y-35728082D01*
X18670500Y-35563767D01*
X18670500Y-35396233D01*
X18670499Y-35396228D01*
X19469500Y-35396228D01*
X19469500Y-35563771D01*
X19502182Y-35728074D01*
X19502184Y-35728082D01*
X19566295Y-35882860D01*
X19659373Y-36022162D01*
X19777837Y-36140626D01*
X19870494Y-36202537D01*
X19917137Y-36233703D01*
X19917138Y-36233703D01*
X19917139Y-36233704D01*
X19952201Y-36248227D01*
X20071918Y-36297816D01*
X20236228Y-36330499D01*
X20236232Y-36330500D01*
X20236233Y-36330500D01*
X20403768Y-36330500D01*
X20403769Y-36330499D01*
X20568082Y-36297816D01*
X20722863Y-36233703D01*
X20862162Y-36140626D01*
X20980626Y-36022162D01*
X21073703Y-35882863D01*
X21137816Y-35728082D01*
X21170500Y-35563767D01*
X21170500Y-35396233D01*
X21137816Y-35231918D01*
X21073703Y-35077137D01*
X20995422Y-34959981D01*
X20980626Y-34937837D01*
X20862162Y-34819373D01*
X20722860Y-34726295D01*
X20568082Y-34662184D01*
X20568074Y-34662182D01*
X20403771Y-34629500D01*
X20403767Y-34629500D01*
X20236233Y-34629500D01*
X20236228Y-34629500D01*
X20071925Y-34662182D01*
X20071917Y-34662184D01*
X19917139Y-34726295D01*
X19777837Y-34819373D01*
X19659373Y-34937837D01*
X19566295Y-35077139D01*
X19502184Y-35231917D01*
X19502182Y-35231925D01*
X19469500Y-35396228D01*
X18670499Y-35396228D01*
X18637816Y-35231918D01*
X18573703Y-35077137D01*
X18495422Y-34959981D01*
X18480626Y-34937837D01*
X18362162Y-34819373D01*
X18222860Y-34726295D01*
X18068082Y-34662184D01*
X18068074Y-34662182D01*
X17903771Y-34629500D01*
X17903767Y-34629500D01*
X17736233Y-34629500D01*
X17736228Y-34629500D01*
X17571925Y-34662182D01*
X17571917Y-34662184D01*
X17417139Y-34726295D01*
X17277837Y-34819373D01*
X17159373Y-34937837D01*
X17066295Y-35077139D01*
X17002184Y-35231917D01*
X17002182Y-35231925D01*
X16969500Y-35396228D01*
X16320500Y-35396228D01*
X16320500Y-33304500D01*
X16340185Y-33237461D01*
X16392989Y-33191706D01*
X16444500Y-33180500D01*
X16908693Y-33180500D01*
X16908694Y-33180499D01*
X16966682Y-33168964D01*
X17082658Y-33145896D01*
X17082661Y-33145894D01*
X17082666Y-33145894D01*
X17246547Y-33078013D01*
X17394035Y-32979464D01*
X17519464Y-32854035D01*
X17618013Y-32706547D01*
X17685894Y-32542666D01*
X17690248Y-32520781D01*
X17720499Y-32368695D01*
X17720500Y-32368693D01*
X17720500Y-29893389D01*
X19219500Y-29893389D01*
X19219500Y-31066611D01*
X19246598Y-31237701D01*
X19300127Y-31402445D01*
X19378768Y-31556788D01*
X19480586Y-31696928D01*
X19603072Y-31819414D01*
X19743212Y-31921232D01*
X19897555Y-31999873D01*
X20062299Y-32053402D01*
X20233389Y-32080500D01*
X20233390Y-32080500D01*
X20406610Y-32080500D01*
X20406611Y-32080500D01*
X20577701Y-32053402D01*
X20742445Y-31999873D01*
X20848657Y-31945755D01*
X20857261Y-31944139D01*
X20864394Y-31939061D01*
X20891072Y-31937789D01*
X20917324Y-31932860D01*
X20927269Y-31936065D01*
X20934184Y-31935736D01*
X20966950Y-31948854D01*
X20989096Y-31961640D01*
X20989097Y-31961641D01*
X21027151Y-31983611D01*
X21039215Y-31990577D01*
X21191943Y-32031500D01*
X21350057Y-32031500D01*
X23708255Y-32031500D01*
X23775294Y-32051185D01*
X23821049Y-32103989D01*
X23830993Y-32173147D01*
X23808574Y-32228385D01*
X23757712Y-32298390D01*
X23664781Y-32480776D01*
X23601522Y-32675465D01*
X23569500Y-32877648D01*
X23569500Y-33082351D01*
X23601522Y-33284534D01*
X23664781Y-33479223D01*
X23757715Y-33661613D01*
X23878028Y-33827213D01*
X24022786Y-33971971D01*
X24177749Y-34084556D01*
X24188390Y-34092287D01*
X24370781Y-34185220D01*
X24444252Y-34209092D01*
X24501928Y-34248530D01*
X24529126Y-34312888D01*
X24517211Y-34381735D01*
X24469967Y-34433210D01*
X24444254Y-34444953D01*
X24435764Y-34447712D01*
X24397550Y-34460128D01*
X24243211Y-34538768D01*
X24163256Y-34596859D01*
X24103072Y-34640586D01*
X24103070Y-34640588D01*
X24103069Y-34640588D01*
X23980588Y-34763069D01*
X23980588Y-34763070D01*
X23980586Y-34763072D01*
X23939681Y-34819373D01*
X23878768Y-34903211D01*
X23800128Y-35057552D01*
X23746597Y-35222302D01*
X23719500Y-35393389D01*
X23719500Y-35566611D01*
X23746598Y-35737701D01*
X23800127Y-35902445D01*
X23878768Y-36056788D01*
X23980586Y-36196928D01*
X24103072Y-36319414D01*
X24243212Y-36421232D01*
X24397555Y-36499873D01*
X24562299Y-36553402D01*
X24733389Y-36580500D01*
X24733390Y-36580500D01*
X25906610Y-36580500D01*
X25906611Y-36580500D01*
X26077701Y-36553402D01*
X26242445Y-36499873D01*
X26396788Y-36421232D01*
X26536928Y-36319414D01*
X26659414Y-36196928D01*
X26706868Y-36131613D01*
X26762197Y-36088949D01*
X26807185Y-36080500D01*
X31749636Y-36080500D01*
X31816675Y-36100185D01*
X31860120Y-36148203D01*
X31884946Y-36196928D01*
X31907715Y-36241614D01*
X32028028Y-36407213D01*
X32172786Y-36551971D01*
X32327749Y-36664556D01*
X32338390Y-36672287D01*
X32431080Y-36719515D01*
X32520776Y-36765218D01*
X32520778Y-36765218D01*
X32520781Y-36765220D01*
X32611856Y-36794812D01*
X32715465Y-36828477D01*
X32734697Y-36831523D01*
X32917648Y-36860500D01*
X32917649Y-36860500D01*
X33122351Y-36860500D01*
X33122352Y-36860500D01*
X33324534Y-36828477D01*
X33519219Y-36765220D01*
X33701610Y-36672287D01*
X33830482Y-36578657D01*
X33867213Y-36551971D01*
X33867215Y-36551968D01*
X33867219Y-36551966D01*
X34011966Y-36407219D01*
X34011968Y-36407215D01*
X34011971Y-36407213D01*
X34132284Y-36241614D01*
X34132285Y-36241613D01*
X34132287Y-36241610D01*
X34139117Y-36228204D01*
X34187091Y-36177409D01*
X34249602Y-36160500D01*
X39227837Y-36160500D01*
X39294876Y-36180185D01*
X39340631Y-36232989D01*
X39349089Y-36258541D01*
X39349999Y-36262792D01*
X39397856Y-36407213D01*
X39405186Y-36429334D01*
X39497288Y-36578656D01*
X39621344Y-36702712D01*
X39770666Y-36794814D01*
X39832440Y-36815284D01*
X39889884Y-36855055D01*
X39916707Y-36919571D01*
X39917053Y-36942719D01*
X39914077Y-36980524D01*
X40593554Y-37660000D01*
X40587339Y-37660000D01*
X40485606Y-37687259D01*
X40394394Y-37739920D01*
X40319920Y-37814394D01*
X40267259Y-37905606D01*
X40240000Y-38007339D01*
X40240000Y-38013553D01*
X39560524Y-37334077D01*
X39560523Y-37334077D01*
X39528143Y-37378644D01*
X39435244Y-37560968D01*
X39372009Y-37755582D01*
X39340000Y-37957682D01*
X39340000Y-38162317D01*
X39372009Y-38364417D01*
X39435244Y-38559031D01*
X39528141Y-38741350D01*
X39528147Y-38741359D01*
X39560523Y-38785921D01*
X39560524Y-38785922D01*
X40240000Y-38106446D01*
X40240000Y-38112661D01*
X40267259Y-38214394D01*
X40319920Y-38305606D01*
X40394394Y-38380080D01*
X40485606Y-38432741D01*
X40587339Y-38460000D01*
X40593553Y-38460000D01*
X39914076Y-39139474D01*
X39958650Y-39171859D01*
X40140968Y-39264755D01*
X40335582Y-39327990D01*
X40537683Y-39360000D01*
X40742317Y-39360000D01*
X40944417Y-39327990D01*
X41139031Y-39264755D01*
X41321349Y-39171859D01*
X41365921Y-39139474D01*
X40686447Y-38460000D01*
X40692661Y-38460000D01*
X40794394Y-38432741D01*
X40885606Y-38380080D01*
X40960080Y-38305606D01*
X41012741Y-38214394D01*
X41040000Y-38112661D01*
X41040000Y-38106447D01*
X41719474Y-38785921D01*
X41751859Y-38741349D01*
X41844755Y-38559031D01*
X41907990Y-38364417D01*
X41940000Y-38162317D01*
X41940000Y-37957682D01*
X41907990Y-37755582D01*
X41844755Y-37560968D01*
X41751859Y-37378650D01*
X41719474Y-37334077D01*
X41719474Y-37334076D01*
X41040000Y-38013551D01*
X41040000Y-38007339D01*
X41012741Y-37905606D01*
X40960080Y-37814394D01*
X40885606Y-37739920D01*
X40794394Y-37687259D01*
X40692661Y-37660000D01*
X40686446Y-37660000D01*
X41365921Y-36980525D01*
X41362946Y-36942719D01*
X41377310Y-36874341D01*
X41426361Y-36824584D01*
X41447555Y-36815285D01*
X41509334Y-36794814D01*
X41658656Y-36702712D01*
X41782712Y-36578656D01*
X41874814Y-36429334D01*
X41929999Y-36262797D01*
X41940500Y-36160009D01*
X41940499Y-34959992D01*
X41929999Y-34857203D01*
X41874814Y-34690666D01*
X41782712Y-34541344D01*
X41658656Y-34417288D01*
X41535227Y-34341157D01*
X41509336Y-34325187D01*
X41509331Y-34325185D01*
X41472221Y-34312888D01*
X41342797Y-34270001D01*
X41342795Y-34270000D01*
X41240010Y-34259500D01*
X40039998Y-34259500D01*
X40039981Y-34259501D01*
X39937203Y-34270000D01*
X39937200Y-34270001D01*
X39770668Y-34325185D01*
X39770663Y-34325187D01*
X39621342Y-34417289D01*
X39497289Y-34541342D01*
X39405187Y-34690663D01*
X39405185Y-34690668D01*
X39350000Y-34857204D01*
X39349088Y-34861467D01*
X39315801Y-34922898D01*
X39254586Y-34956581D01*
X39227837Y-34959500D01*
X34249602Y-34959500D01*
X34182563Y-34939815D01*
X34139117Y-34891795D01*
X34132287Y-34878390D01*
X34132285Y-34878387D01*
X34132284Y-34878385D01*
X34011971Y-34712786D01*
X33867213Y-34568028D01*
X33701610Y-34447712D01*
X33688200Y-34440879D01*
X33677138Y-34430431D01*
X33663297Y-34424110D01*
X33652255Y-34406928D01*
X33637406Y-34392903D01*
X33633165Y-34377223D01*
X33625523Y-34365332D01*
X33620500Y-34330397D01*
X33620500Y-34249601D01*
X33640185Y-34182562D01*
X33688206Y-34139116D01*
X33701610Y-34132287D01*
X33867219Y-34011966D01*
X34011966Y-33867219D01*
X34011968Y-33867215D01*
X34011971Y-33867213D01*
X34064732Y-33794590D01*
X34132287Y-33701610D01*
X34225220Y-33519219D01*
X34288477Y-33324534D01*
X34320500Y-33122352D01*
X34320500Y-32917648D01*
X34288477Y-32715466D01*
X34225220Y-32520781D01*
X34225218Y-32520778D01*
X34225218Y-32520776D01*
X34191503Y-32454607D01*
X34132287Y-32338390D01*
X34089865Y-32280000D01*
X34052365Y-32228385D01*
X34028885Y-32162579D01*
X34044711Y-32094525D01*
X34094817Y-32045830D01*
X34152683Y-32031500D01*
X44587317Y-32031500D01*
X44654356Y-32051185D01*
X44700111Y-32103989D01*
X44710055Y-32173147D01*
X44687635Y-32228385D01*
X44607715Y-32338386D01*
X44514781Y-32520776D01*
X44451522Y-32715465D01*
X44419500Y-32917648D01*
X44419500Y-33122351D01*
X44451522Y-33324534D01*
X44514781Y-33519223D01*
X44578691Y-33644653D01*
X44587333Y-33661613D01*
X44607715Y-33701613D01*
X44728028Y-33867213D01*
X44872786Y-34011971D01*
X44983330Y-34092284D01*
X45038390Y-34132287D01*
X45118427Y-34173068D01*
X45131080Y-34179515D01*
X45181876Y-34227490D01*
X45198671Y-34295311D01*
X45176134Y-34361446D01*
X45131080Y-34400485D01*
X45038386Y-34447715D01*
X44872786Y-34568028D01*
X44728028Y-34712786D01*
X44607715Y-34878386D01*
X44514781Y-35060776D01*
X44451522Y-35255465D01*
X44419500Y-35457648D01*
X44419500Y-35662351D01*
X44451522Y-35864534D01*
X44514781Y-36059223D01*
X44566135Y-36160009D01*
X44603684Y-36233703D01*
X44607715Y-36241613D01*
X44728028Y-36407213D01*
X44872786Y-36551971D01*
X45027749Y-36664556D01*
X45038390Y-36672287D01*
X45129840Y-36718883D01*
X45131080Y-36719515D01*
X45181876Y-36767490D01*
X45198671Y-36835311D01*
X45176134Y-36901446D01*
X45131080Y-36940485D01*
X45038386Y-36987715D01*
X44872786Y-37108028D01*
X44728028Y-37252786D01*
X44607715Y-37418386D01*
X44514781Y-37600776D01*
X44451522Y-37795465D01*
X44419500Y-37997648D01*
X44419500Y-38202351D01*
X44451522Y-38404534D01*
X44514781Y-38599223D01*
X44578691Y-38724653D01*
X44587199Y-38741350D01*
X44607715Y-38781613D01*
X44728028Y-38947213D01*
X44872786Y-39091971D01*
X44982745Y-39171859D01*
X45038390Y-39212287D01*
X45129840Y-39258883D01*
X45131080Y-39259515D01*
X45181876Y-39307490D01*
X45198671Y-39375311D01*
X45176134Y-39441446D01*
X45131080Y-39480485D01*
X45038386Y-39527715D01*
X44872786Y-39648028D01*
X44728028Y-39792786D01*
X44607715Y-39958386D01*
X44514781Y-40140776D01*
X44451522Y-40335465D01*
X44419500Y-40537648D01*
X44419500Y-40742351D01*
X44451522Y-40944534D01*
X44514781Y-41139223D01*
X44607715Y-41321613D01*
X44728028Y-41487213D01*
X44872786Y-41631971D01*
X45027749Y-41744556D01*
X45038390Y-41752287D01*
X45129840Y-41798883D01*
X45131080Y-41799515D01*
X45181876Y-41847490D01*
X45198671Y-41915311D01*
X45176134Y-41981446D01*
X45131080Y-42020485D01*
X45038386Y-42067715D01*
X44872786Y-42188028D01*
X44728028Y-42332786D01*
X44607715Y-42498386D01*
X44514781Y-42680776D01*
X44451522Y-42875465D01*
X44419500Y-43077648D01*
X44419500Y-43282351D01*
X44451522Y-43484534D01*
X44514781Y-43679223D01*
X44607715Y-43861613D01*
X44728028Y-44027213D01*
X44872786Y-44171971D01*
X45027749Y-44284556D01*
X45038390Y-44292287D01*
X45129840Y-44338883D01*
X45131080Y-44339515D01*
X45181876Y-44387490D01*
X45198671Y-44455311D01*
X45176134Y-44521446D01*
X45131080Y-44560485D01*
X45038386Y-44607715D01*
X44872786Y-44728028D01*
X44728028Y-44872786D01*
X44607715Y-45038386D01*
X44514781Y-45220776D01*
X44451522Y-45415465D01*
X44419500Y-45617648D01*
X44419500Y-45822351D01*
X44451522Y-46024534D01*
X44514781Y-46219223D01*
X44578691Y-46344653D01*
X44607585Y-46401359D01*
X44607715Y-46401613D01*
X44728028Y-46567213D01*
X44872786Y-46711971D01*
X44993226Y-46799474D01*
X45038390Y-46832287D01*
X45129840Y-46878883D01*
X45131080Y-46879515D01*
X45181876Y-46927490D01*
X45198671Y-46995311D01*
X45176134Y-47061446D01*
X45131080Y-47100485D01*
X45038386Y-47147715D01*
X44872786Y-47268028D01*
X44728028Y-47412786D01*
X44607715Y-47578386D01*
X44514781Y-47760776D01*
X44451522Y-47955465D01*
X44419500Y-48157648D01*
X44419500Y-48362351D01*
X44451522Y-48564534D01*
X44514781Y-48759223D01*
X44595788Y-48918205D01*
X44608684Y-48986874D01*
X44582408Y-49051614D01*
X44525302Y-49091872D01*
X44485303Y-49098500D01*
X41860057Y-49098500D01*
X41701943Y-49098500D01*
X41549215Y-49139423D01*
X41549214Y-49139423D01*
X41549212Y-49139424D01*
X41549209Y-49139425D01*
X41499096Y-49168359D01*
X41499095Y-49168360D01*
X41455689Y-49193420D01*
X41412285Y-49218479D01*
X41412282Y-49218481D01*
X39537083Y-51093681D01*
X39475760Y-51127166D01*
X39449402Y-51130000D01*
X38504146Y-51130000D01*
X38542630Y-51063343D01*
X38575000Y-50942535D01*
X38575000Y-50817465D01*
X38542630Y-50696657D01*
X38504146Y-50630000D01*
X39574999Y-50630000D01*
X39574999Y-50230028D01*
X39574998Y-50230013D01*
X39564505Y-50127302D01*
X39509358Y-49960880D01*
X39509356Y-49960875D01*
X39417315Y-49811654D01*
X39293345Y-49687684D01*
X39144124Y-49595643D01*
X39144119Y-49595641D01*
X38977697Y-49540494D01*
X38977690Y-49540493D01*
X38874986Y-49530000D01*
X38350000Y-49530000D01*
X38350000Y-50475854D01*
X38283343Y-50437370D01*
X38162535Y-50405000D01*
X38037465Y-50405000D01*
X37916657Y-50437370D01*
X37850000Y-50475854D01*
X37850000Y-49530000D01*
X37325028Y-49530000D01*
X37325012Y-49530001D01*
X37222302Y-49540494D01*
X37055880Y-49595641D01*
X37055875Y-49595643D01*
X36906654Y-49687684D01*
X36782684Y-49811654D01*
X36690643Y-49960875D01*
X36690641Y-49960880D01*
X36635494Y-50127302D01*
X36635493Y-50127309D01*
X36625000Y-50230013D01*
X36625000Y-50630000D01*
X37695854Y-50630000D01*
X37657370Y-50696657D01*
X37625000Y-50817465D01*
X37625000Y-50942535D01*
X37657370Y-51063343D01*
X37695854Y-51130000D01*
X36625001Y-51130000D01*
X36625001Y-51529986D01*
X36635494Y-51632697D01*
X36690641Y-51799119D01*
X36690643Y-51799124D01*
X36782684Y-51948345D01*
X36906654Y-52072315D01*
X37061484Y-52167815D01*
X37108208Y-52219763D01*
X37119431Y-52288726D01*
X37091587Y-52352808D01*
X37084069Y-52361035D01*
X36944889Y-52500215D01*
X36819951Y-52672179D01*
X36723444Y-52861585D01*
X36657753Y-53063760D01*
X36624500Y-53273713D01*
X36624500Y-53486286D01*
X36649955Y-53647007D01*
X36657754Y-53696243D01*
X36704211Y-53839223D01*
X36723444Y-53898414D01*
X36819951Y-54087820D01*
X36944890Y-54259786D01*
X37095209Y-54410105D01*
X37095214Y-54410109D01*
X37259793Y-54529682D01*
X37302459Y-54585011D01*
X37308438Y-54654625D01*
X37275833Y-54716420D01*
X37259793Y-54730318D01*
X37095214Y-54849890D01*
X37095209Y-54849894D01*
X36944890Y-55000213D01*
X36819951Y-55172179D01*
X36723444Y-55361585D01*
X36657753Y-55563760D01*
X36624500Y-55773713D01*
X36624500Y-55986286D01*
X36657753Y-56196239D01*
X36723444Y-56398414D01*
X36819951Y-56587820D01*
X36944890Y-56759786D01*
X37095213Y-56910109D01*
X37267179Y-57035048D01*
X37267181Y-57035049D01*
X37267184Y-57035051D01*
X37456588Y-57131557D01*
X37658757Y-57197246D01*
X37868713Y-57230500D01*
X37868714Y-57230500D01*
X38331286Y-57230500D01*
X38331287Y-57230500D01*
X38541243Y-57197246D01*
X38743412Y-57131557D01*
X38932816Y-57035051D01*
X38991680Y-56992284D01*
X39104786Y-56910109D01*
X39104788Y-56910106D01*
X39104792Y-56910104D01*
X39255104Y-56759792D01*
X39255106Y-56759788D01*
X39255109Y-56759786D01*
X39313661Y-56679193D01*
X39380051Y-56587816D01*
X39393402Y-56561614D01*
X39400235Y-56548205D01*
X39448209Y-56497409D01*
X39510719Y-56480500D01*
X44490398Y-56480500D01*
X44557437Y-56500185D01*
X44600883Y-56548205D01*
X44607715Y-56561614D01*
X44728028Y-56727213D01*
X44872786Y-56871971D01*
X45027749Y-56984556D01*
X45038390Y-56992287D01*
X45122319Y-57035051D01*
X45220776Y-57085218D01*
X45220778Y-57085218D01*
X45220781Y-57085220D01*
X45325137Y-57119127D01*
X45415465Y-57148477D01*
X45516557Y-57164488D01*
X45617648Y-57180500D01*
X45617649Y-57180500D01*
X45822351Y-57180500D01*
X45822352Y-57180500D01*
X46024534Y-57148477D01*
X46219219Y-57085220D01*
X46401610Y-56992287D01*
X46514726Y-56910104D01*
X46567213Y-56871971D01*
X46567215Y-56871968D01*
X46567219Y-56871966D01*
X46711966Y-56727219D01*
X46711968Y-56727215D01*
X46711971Y-56727213D01*
X46813248Y-56587815D01*
X46832287Y-56561610D01*
X46925220Y-56379219D01*
X46988477Y-56184534D01*
X47020500Y-55982352D01*
X47020500Y-55777648D01*
X46988477Y-55575466D01*
X46984673Y-55563760D01*
X46925218Y-55380776D01*
X46891503Y-55314607D01*
X46832287Y-55198390D01*
X46813248Y-55172185D01*
X46711971Y-55032786D01*
X46567213Y-54888028D01*
X46401611Y-54767713D01*
X46308369Y-54720203D01*
X46257574Y-54672229D01*
X46240779Y-54604407D01*
X46263317Y-54538273D01*
X46308371Y-54499234D01*
X46401347Y-54451861D01*
X46566894Y-54331582D01*
X46566895Y-54331582D01*
X46711582Y-54186895D01*
X46711582Y-54186894D01*
X46831859Y-54021349D01*
X46924755Y-53839029D01*
X46987990Y-53644413D01*
X46996609Y-53590000D01*
X46153012Y-53590000D01*
X46185925Y-53532993D01*
X46220000Y-53405826D01*
X46220000Y-53274174D01*
X46185925Y-53147007D01*
X46153012Y-53090000D01*
X46996609Y-53090000D01*
X46987990Y-53035586D01*
X46924755Y-52840970D01*
X46831859Y-52658650D01*
X46711582Y-52493105D01*
X46711582Y-52493104D01*
X46566895Y-52348417D01*
X46401349Y-52228140D01*
X46308370Y-52180765D01*
X46257574Y-52132790D01*
X46240779Y-52064969D01*
X46263316Y-51998835D01*
X46308370Y-51959795D01*
X46330842Y-51948345D01*
X46401610Y-51912287D01*
X46422770Y-51896913D01*
X46567213Y-51791971D01*
X46567215Y-51791968D01*
X46567219Y-51791966D01*
X46711966Y-51647219D01*
X46711968Y-51647215D01*
X46711971Y-51647213D01*
X46797140Y-51529986D01*
X46832287Y-51481610D01*
X46925220Y-51299219D01*
X46988477Y-51104534D01*
X47020500Y-50902352D01*
X47020500Y-50697648D01*
X46988477Y-50495466D01*
X46988475Y-50495462D01*
X46988475Y-50495457D01*
X46977545Y-50461817D01*
X46975550Y-50391976D01*
X47011631Y-50332144D01*
X47074332Y-50301316D01*
X47095476Y-50299500D01*
X49274331Y-50299500D01*
X49274347Y-50299501D01*
X49281943Y-50299501D01*
X49440054Y-50299501D01*
X49440057Y-50299501D01*
X49592785Y-50258577D01*
X49642904Y-50229639D01*
X49729716Y-50179520D01*
X49841520Y-50067716D01*
X49841520Y-50067714D01*
X49851728Y-50057507D01*
X49851730Y-50057504D01*
X59447819Y-40461415D01*
X59509142Y-40427930D01*
X59578834Y-40432914D01*
X59634767Y-40474786D01*
X59659184Y-40540250D01*
X59659500Y-40549096D01*
X59659500Y-40742351D01*
X59691522Y-40944534D01*
X59754781Y-41139223D01*
X59847715Y-41321613D01*
X59968028Y-41487213D01*
X60112786Y-41631971D01*
X60267749Y-41744556D01*
X60278390Y-41752287D01*
X60369840Y-41798883D01*
X60371080Y-41799515D01*
X60421876Y-41847490D01*
X60438671Y-41915311D01*
X60416134Y-41981446D01*
X60371080Y-42020485D01*
X60278386Y-42067715D01*
X60112786Y-42188028D01*
X59968028Y-42332786D01*
X59847715Y-42498386D01*
X59754781Y-42680776D01*
X59691522Y-42875465D01*
X59659500Y-43077648D01*
X59659500Y-43282351D01*
X59691522Y-43484534D01*
X59754781Y-43679223D01*
X59847715Y-43861613D01*
X59968028Y-44027213D01*
X60112786Y-44171971D01*
X60267749Y-44284556D01*
X60278390Y-44292287D01*
X60369840Y-44338883D01*
X60371080Y-44339515D01*
X60421876Y-44387490D01*
X60438671Y-44455311D01*
X60416134Y-44521446D01*
X60371080Y-44560485D01*
X60278386Y-44607715D01*
X60112786Y-44728028D01*
X59968028Y-44872786D01*
X59847715Y-45038386D01*
X59754781Y-45220776D01*
X59691522Y-45415465D01*
X59659500Y-45617648D01*
X59659500Y-45822351D01*
X59691522Y-46024534D01*
X59754781Y-46219223D01*
X59818691Y-46344653D01*
X59847585Y-46401359D01*
X59847715Y-46401613D01*
X59968028Y-46567213D01*
X60112786Y-46711971D01*
X60233226Y-46799474D01*
X60278390Y-46832287D01*
X60350424Y-46868990D01*
X60371629Y-46879795D01*
X60422425Y-46927770D01*
X60439220Y-46995591D01*
X60416682Y-47061726D01*
X60371629Y-47100765D01*
X60278650Y-47148140D01*
X60113105Y-47268417D01*
X60113104Y-47268417D01*
X59968417Y-47413104D01*
X59968417Y-47413105D01*
X59848140Y-47578650D01*
X59755244Y-47760970D01*
X59692009Y-47955586D01*
X59683391Y-48010000D01*
X60526988Y-48010000D01*
X60494075Y-48067007D01*
X60460000Y-48194174D01*
X60460000Y-48325826D01*
X60494075Y-48452993D01*
X60526988Y-48510000D01*
X59683391Y-48510000D01*
X59692009Y-48564413D01*
X59755244Y-48759029D01*
X59848140Y-48941349D01*
X59968417Y-49106894D01*
X59968417Y-49106895D01*
X60113104Y-49251582D01*
X60278652Y-49371861D01*
X60371628Y-49419234D01*
X60422425Y-49467208D01*
X60439220Y-49535029D01*
X60416683Y-49601164D01*
X60371630Y-49640203D01*
X60278388Y-49687713D01*
X60112786Y-49808028D01*
X59968028Y-49952786D01*
X59847715Y-50118386D01*
X59754781Y-50300776D01*
X59691522Y-50495465D01*
X59659500Y-50697648D01*
X59659500Y-50902351D01*
X59691522Y-51104534D01*
X59754781Y-51299223D01*
X59847715Y-51481613D01*
X59968028Y-51647213D01*
X60112786Y-51791971D01*
X60267749Y-51904556D01*
X60278390Y-51912287D01*
X60349158Y-51948345D01*
X60371080Y-51959515D01*
X60421876Y-52007490D01*
X60438671Y-52075311D01*
X60416134Y-52141446D01*
X60371080Y-52180485D01*
X60278386Y-52227715D01*
X60112786Y-52348028D01*
X59968028Y-52492786D01*
X59847715Y-52658386D01*
X59754781Y-52840776D01*
X59691522Y-53035465D01*
X59659500Y-53237648D01*
X59659500Y-53442351D01*
X59691522Y-53644534D01*
X59754781Y-53839223D01*
X59847715Y-54021613D01*
X59968028Y-54187213D01*
X60112784Y-54331969D01*
X60149068Y-54358330D01*
X60191735Y-54413659D01*
X60197715Y-54483273D01*
X60165109Y-54545068D01*
X60104271Y-54579426D01*
X60089440Y-54581938D01*
X60052519Y-54585907D01*
X59917671Y-54636202D01*
X59917664Y-54636206D01*
X59802455Y-54722452D01*
X59802452Y-54722455D01*
X59716206Y-54837664D01*
X59716202Y-54837671D01*
X59665908Y-54972517D01*
X59662931Y-55000213D01*
X59659501Y-55032123D01*
X59659500Y-55032135D01*
X59659500Y-56727870D01*
X59659501Y-56727876D01*
X59665908Y-56787483D01*
X59716202Y-56922328D01*
X59716206Y-56922335D01*
X59802452Y-57037544D01*
X59802455Y-57037547D01*
X59917664Y-57123793D01*
X59917671Y-57123797D01*
X60052517Y-57174091D01*
X60052516Y-57174091D01*
X60059444Y-57174835D01*
X60112127Y-57180500D01*
X61807872Y-57180499D01*
X61867483Y-57174091D01*
X62002331Y-57123796D01*
X62117546Y-57037546D01*
X62203796Y-56922331D01*
X62254091Y-56787483D01*
X62260500Y-56727873D01*
X62260499Y-55032128D01*
X62254091Y-54972517D01*
X62208356Y-54849896D01*
X62203797Y-54837671D01*
X62203793Y-54837664D01*
X62117547Y-54722455D01*
X62117544Y-54722452D01*
X62002335Y-54636206D01*
X62002328Y-54636202D01*
X61867482Y-54585908D01*
X61867483Y-54585908D01*
X61830560Y-54581939D01*
X61766009Y-54555201D01*
X61726160Y-54497809D01*
X61723667Y-54427984D01*
X61759319Y-54367895D01*
X61770930Y-54358331D01*
X61807219Y-54331966D01*
X61951966Y-54187219D01*
X61951968Y-54187215D01*
X61951971Y-54187213D01*
X62024186Y-54087816D01*
X62072287Y-54021610D01*
X62165220Y-53839219D01*
X62228477Y-53644534D01*
X62260500Y-53442352D01*
X62260500Y-53237648D01*
X62246144Y-53147007D01*
X62228477Y-53035465D01*
X62176038Y-52874075D01*
X62165220Y-52840781D01*
X62165218Y-52840778D01*
X62165218Y-52840776D01*
X62079315Y-52672184D01*
X62072287Y-52658390D01*
X62064556Y-52647749D01*
X61951971Y-52492786D01*
X61807213Y-52348028D01*
X61641614Y-52227715D01*
X61626007Y-52219763D01*
X61548917Y-52180483D01*
X61498123Y-52132511D01*
X61481328Y-52064690D01*
X61503865Y-51998555D01*
X61548917Y-51959516D01*
X61641610Y-51912287D01*
X61662770Y-51896913D01*
X61807213Y-51791971D01*
X61807215Y-51791968D01*
X61807219Y-51791966D01*
X61951966Y-51647219D01*
X61951968Y-51647215D01*
X61951971Y-51647213D01*
X62037140Y-51529986D01*
X62072287Y-51481610D01*
X62165220Y-51299219D01*
X62228477Y-51104534D01*
X62260500Y-50902352D01*
X62260500Y-50697648D01*
X62228477Y-50495466D01*
X62228476Y-50495464D01*
X62188357Y-50371989D01*
X62165220Y-50300781D01*
X62165218Y-50300778D01*
X62165218Y-50300776D01*
X62103434Y-50179520D01*
X62072287Y-50118390D01*
X62064556Y-50107749D01*
X61951971Y-49952786D01*
X61807213Y-49808028D01*
X61641611Y-49687713D01*
X61548369Y-49640203D01*
X61497574Y-49592229D01*
X61480779Y-49524407D01*
X61503317Y-49458273D01*
X61548371Y-49419234D01*
X61641347Y-49371861D01*
X61806894Y-49251582D01*
X61806895Y-49251582D01*
X61951582Y-49106895D01*
X61951582Y-49106894D01*
X62071859Y-48941349D01*
X62164755Y-48759029D01*
X62227990Y-48564413D01*
X62236609Y-48510000D01*
X61393012Y-48510000D01*
X61425925Y-48452993D01*
X61460000Y-48325826D01*
X61460000Y-48194174D01*
X61425925Y-48067007D01*
X61393012Y-48010000D01*
X62236609Y-48010000D01*
X62227990Y-47955586D01*
X62164755Y-47760970D01*
X62071859Y-47578650D01*
X61951582Y-47413105D01*
X61951582Y-47413104D01*
X61806895Y-47268417D01*
X61641349Y-47148140D01*
X61548370Y-47100765D01*
X61497574Y-47052790D01*
X61480779Y-46984969D01*
X61503316Y-46918835D01*
X61548370Y-46879795D01*
X61548920Y-46879515D01*
X61641610Y-46832287D01*
X61686774Y-46799474D01*
X61807213Y-46711971D01*
X61807215Y-46711968D01*
X61807219Y-46711966D01*
X61951966Y-46567219D01*
X61951968Y-46567215D01*
X61951971Y-46567213D01*
X62004732Y-46494590D01*
X62072287Y-46401610D01*
X62165220Y-46219219D01*
X62228477Y-46024534D01*
X62260500Y-45822352D01*
X62260500Y-45617648D01*
X62252257Y-45565606D01*
X62228477Y-45415465D01*
X62197458Y-45320000D01*
X62165220Y-45220781D01*
X62165218Y-45220778D01*
X62165218Y-45220776D01*
X62072419Y-45038650D01*
X62072287Y-45038390D01*
X62040092Y-44994077D01*
X61951971Y-44872786D01*
X61807213Y-44728028D01*
X61641614Y-44607715D01*
X61635006Y-44604348D01*
X61548917Y-44560483D01*
X61498123Y-44512511D01*
X61481328Y-44444690D01*
X61503865Y-44378555D01*
X61548917Y-44339516D01*
X61641610Y-44292287D01*
X61662770Y-44276913D01*
X61807213Y-44171971D01*
X61807215Y-44171968D01*
X61807219Y-44171966D01*
X61951966Y-44027219D01*
X61951968Y-44027215D01*
X61951971Y-44027213D01*
X62004732Y-43954590D01*
X62072287Y-43861610D01*
X62165220Y-43679219D01*
X62228477Y-43484534D01*
X62260500Y-43282352D01*
X62260500Y-43077648D01*
X62228477Y-42875466D01*
X62165220Y-42680781D01*
X62165218Y-42680778D01*
X62165218Y-42680776D01*
X62131503Y-42614607D01*
X62072287Y-42498390D01*
X62064556Y-42487749D01*
X61951971Y-42332786D01*
X61807213Y-42188028D01*
X61641614Y-42067715D01*
X61635006Y-42064348D01*
X61548917Y-42020483D01*
X61498123Y-41972511D01*
X61481328Y-41904690D01*
X61503865Y-41838555D01*
X61548917Y-41799516D01*
X61641610Y-41752287D01*
X61662770Y-41736913D01*
X61807213Y-41631971D01*
X61807215Y-41631968D01*
X61807219Y-41631966D01*
X61951966Y-41487219D01*
X61951968Y-41487215D01*
X61951971Y-41487213D01*
X62004732Y-41414590D01*
X62072287Y-41321610D01*
X62165220Y-41139219D01*
X62228477Y-40944534D01*
X62260500Y-40742352D01*
X62260500Y-40537648D01*
X62228477Y-40335465D01*
X62165218Y-40140776D01*
X62131503Y-40074607D01*
X62072287Y-39958390D01*
X62064556Y-39947749D01*
X61951971Y-39792786D01*
X61807213Y-39648028D01*
X61641614Y-39527715D01*
X61635006Y-39524348D01*
X61548917Y-39480483D01*
X61498123Y-39432511D01*
X61481328Y-39364690D01*
X61503865Y-39298555D01*
X61548917Y-39259516D01*
X61641610Y-39212287D01*
X61697255Y-39171859D01*
X61807213Y-39091971D01*
X61807215Y-39091968D01*
X61807219Y-39091966D01*
X61951966Y-38947219D01*
X61951968Y-38947215D01*
X61951971Y-38947213D01*
X62004732Y-38874590D01*
X62072287Y-38781610D01*
X62165220Y-38599219D01*
X62228477Y-38404534D01*
X62260500Y-38202352D01*
X62260500Y-37997648D01*
X62228477Y-37795466D01*
X62165220Y-37600781D01*
X62165218Y-37600778D01*
X62165218Y-37600776D01*
X62131503Y-37534607D01*
X62072287Y-37418390D01*
X62064556Y-37407749D01*
X61951971Y-37252786D01*
X61807213Y-37108028D01*
X61641614Y-36987715D01*
X61553304Y-36942719D01*
X61548917Y-36940483D01*
X61498123Y-36892511D01*
X61481328Y-36824690D01*
X61503865Y-36758555D01*
X61548917Y-36719516D01*
X61641610Y-36672287D01*
X61662770Y-36656913D01*
X61807213Y-36551971D01*
X61807215Y-36551968D01*
X61807219Y-36551966D01*
X61951966Y-36407219D01*
X61951968Y-36407215D01*
X61951971Y-36407213D01*
X62007706Y-36330499D01*
X62072287Y-36241610D01*
X62165220Y-36059219D01*
X62228477Y-35864534D01*
X62260500Y-35662352D01*
X62260500Y-35457648D01*
X62228477Y-35255466D01*
X62220825Y-35231917D01*
X62165218Y-35060776D01*
X62113865Y-34959992D01*
X62072287Y-34878390D01*
X62056892Y-34857200D01*
X61951971Y-34712786D01*
X61807213Y-34568028D01*
X61641614Y-34447715D01*
X61635006Y-34444348D01*
X61548917Y-34400483D01*
X61498123Y-34352511D01*
X61481328Y-34284690D01*
X61503865Y-34218555D01*
X61548917Y-34179516D01*
X61641610Y-34132287D01*
X61696670Y-34092284D01*
X61807213Y-34011971D01*
X61807215Y-34011968D01*
X61807219Y-34011966D01*
X61951966Y-33867219D01*
X61951968Y-33867215D01*
X61951971Y-33867213D01*
X62004732Y-33794590D01*
X62072287Y-33701610D01*
X62165220Y-33519219D01*
X62228477Y-33324534D01*
X62260500Y-33122352D01*
X62260500Y-32917648D01*
X62228477Y-32715466D01*
X62165220Y-32520781D01*
X62165218Y-32520778D01*
X62165218Y-32520776D01*
X62131503Y-32454607D01*
X62072287Y-32338390D01*
X62029865Y-32280000D01*
X61951971Y-32172786D01*
X61807213Y-32028028D01*
X61641614Y-31907715D01*
X61635006Y-31904348D01*
X61548917Y-31860483D01*
X61498123Y-31812511D01*
X61481328Y-31744690D01*
X61503865Y-31678555D01*
X61548917Y-31639516D01*
X61641610Y-31592287D01*
X61690471Y-31556788D01*
X61807213Y-31471971D01*
X61807215Y-31471968D01*
X61807219Y-31471966D01*
X61951966Y-31327219D01*
X61951968Y-31327215D01*
X61951971Y-31327213D01*
X62017007Y-31237697D01*
X62072287Y-31161610D01*
X62165220Y-30979219D01*
X62228477Y-30784534D01*
X62260500Y-30582352D01*
X62260500Y-30377648D01*
X62228477Y-30175466D01*
X62165220Y-29980781D01*
X62165218Y-29980778D01*
X62165218Y-29980776D01*
X62131503Y-29914607D01*
X62072287Y-29798390D01*
X62052137Y-29770655D01*
X61951971Y-29632786D01*
X61807213Y-29488028D01*
X61641614Y-29367715D01*
X61610787Y-29352008D01*
X61548917Y-29320483D01*
X61498123Y-29272511D01*
X61481328Y-29204690D01*
X61503865Y-29138555D01*
X61548917Y-29099516D01*
X61641610Y-29052287D01*
X61662770Y-29036913D01*
X61807213Y-28931971D01*
X61807215Y-28931968D01*
X61807219Y-28931966D01*
X61951966Y-28787219D01*
X61951968Y-28787215D01*
X61951971Y-28787213D01*
X62043223Y-28661613D01*
X62072287Y-28621610D01*
X62165220Y-28439219D01*
X62228477Y-28244534D01*
X62260500Y-28042352D01*
X62260500Y-27837648D01*
X62237777Y-27694180D01*
X62228477Y-27635465D01*
X62178215Y-27480776D01*
X62165220Y-27440781D01*
X62165218Y-27440778D01*
X62165218Y-27440776D01*
X62110478Y-27333344D01*
X62072287Y-27258390D01*
X62049310Y-27226765D01*
X61951971Y-27092786D01*
X61807213Y-26948028D01*
X61641614Y-26827715D01*
X61635006Y-26824348D01*
X61548917Y-26780483D01*
X61498123Y-26732511D01*
X61481328Y-26664690D01*
X61503865Y-26598555D01*
X61548917Y-26559516D01*
X61641610Y-26512287D01*
X61662770Y-26496913D01*
X61807213Y-26391971D01*
X61807215Y-26391968D01*
X61807219Y-26391966D01*
X61951966Y-26247219D01*
X61951968Y-26247215D01*
X61951971Y-26247213D01*
X62004732Y-26174590D01*
X62072287Y-26081610D01*
X62165220Y-25899219D01*
X62228477Y-25704534D01*
X62260500Y-25502352D01*
X62260500Y-25297648D01*
X62228477Y-25095466D01*
X62165220Y-24900781D01*
X62165218Y-24900778D01*
X62165218Y-24900776D01*
X62123740Y-24819373D01*
X62072287Y-24718390D01*
X62064556Y-24707749D01*
X61951971Y-24552786D01*
X61807213Y-24408028D01*
X61641614Y-24287715D01*
X61635006Y-24284348D01*
X61548917Y-24240483D01*
X61498123Y-24192511D01*
X61481328Y-24124690D01*
X61503865Y-24058555D01*
X61548917Y-24019516D01*
X61641610Y-23972287D01*
X61662770Y-23956913D01*
X61807213Y-23851971D01*
X61807215Y-23851968D01*
X61807219Y-23851966D01*
X61951966Y-23707219D01*
X61951968Y-23707215D01*
X61951971Y-23707213D01*
X62021976Y-23610858D01*
X62072287Y-23541610D01*
X62165220Y-23359219D01*
X62228477Y-23164534D01*
X62260500Y-22962352D01*
X62260500Y-22757648D01*
X62228477Y-22555466D01*
X62165220Y-22360781D01*
X62165218Y-22360778D01*
X62165218Y-22360776D01*
X62131503Y-22294607D01*
X62072287Y-22178390D01*
X62064556Y-22167749D01*
X61951971Y-22012786D01*
X61807213Y-21868028D01*
X61641614Y-21747715D01*
X61635006Y-21744348D01*
X61548917Y-21700483D01*
X61498123Y-21652511D01*
X61481328Y-21584690D01*
X61503865Y-21518555D01*
X61548917Y-21479516D01*
X61641610Y-21432287D01*
X61662770Y-21416913D01*
X61807213Y-21311971D01*
X61807215Y-21311968D01*
X61807219Y-21311966D01*
X61951966Y-21167219D01*
X61951968Y-21167215D01*
X61951971Y-21167213D01*
X62004732Y-21094590D01*
X62072287Y-21001610D01*
X62165220Y-20819219D01*
X62228477Y-20624534D01*
X62260500Y-20422352D01*
X62260500Y-20217648D01*
X62228477Y-20015466D01*
X62165220Y-19820781D01*
X62165218Y-19820778D01*
X62165218Y-19820776D01*
X62131503Y-19754607D01*
X62072287Y-19638390D01*
X62064556Y-19627749D01*
X61951971Y-19472786D01*
X61807213Y-19328028D01*
X61641613Y-19207715D01*
X61641612Y-19207714D01*
X61641610Y-19207713D01*
X61584653Y-19178691D01*
X61459223Y-19114781D01*
X61264534Y-19051522D01*
X61089995Y-19023878D01*
X61062352Y-19019500D01*
X60857648Y-19019500D01*
X60833329Y-19023351D01*
X60655465Y-19051522D01*
X60460776Y-19114781D01*
X60278386Y-19207715D01*
X60112786Y-19328028D01*
X59968028Y-19472786D01*
X59847715Y-19638386D01*
X59754781Y-19820776D01*
X59691522Y-20015465D01*
X59659500Y-20217648D01*
X59659500Y-20422351D01*
X59691522Y-20624534D01*
X59754781Y-20819223D01*
X59847715Y-21001613D01*
X59968028Y-21167213D01*
X60112786Y-21311971D01*
X60267749Y-21424556D01*
X60278390Y-21432287D01*
X60369840Y-21478883D01*
X60371080Y-21479515D01*
X60421876Y-21527490D01*
X60438671Y-21595311D01*
X60416134Y-21661446D01*
X60371080Y-21700485D01*
X60278386Y-21747715D01*
X60112786Y-21868028D01*
X59968028Y-22012786D01*
X59847715Y-22178386D01*
X59754781Y-22360776D01*
X59691522Y-22555465D01*
X59659500Y-22757648D01*
X59659500Y-22962351D01*
X59691522Y-23164534D01*
X59754781Y-23359223D01*
X59847715Y-23541613D01*
X59968028Y-23707213D01*
X60112786Y-23851971D01*
X60267749Y-23964556D01*
X60278390Y-23972287D01*
X60369840Y-24018883D01*
X60371080Y-24019515D01*
X60421876Y-24067490D01*
X60438671Y-24135311D01*
X60416134Y-24201446D01*
X60371080Y-24240485D01*
X60278386Y-24287715D01*
X60112786Y-24408028D01*
X59968028Y-24552786D01*
X59847715Y-24718386D01*
X59754781Y-24900776D01*
X59691522Y-25095465D01*
X59659500Y-25297648D01*
X59659500Y-25502351D01*
X59691522Y-25704534D01*
X59754781Y-25899223D01*
X59847715Y-26081613D01*
X59968028Y-26247213D01*
X60112786Y-26391971D01*
X60261301Y-26499871D01*
X60278390Y-26512287D01*
X60359083Y-26553402D01*
X60371080Y-26559515D01*
X60421876Y-26607490D01*
X60438671Y-26675311D01*
X60416134Y-26741446D01*
X60371080Y-26780485D01*
X60278386Y-26827715D01*
X60112786Y-26948028D01*
X59968028Y-27092786D01*
X59847715Y-27258386D01*
X59754781Y-27440776D01*
X59691522Y-27635465D01*
X59659500Y-27837648D01*
X59659500Y-28042351D01*
X59691522Y-28244534D01*
X59754781Y-28439223D01*
X59818691Y-28564653D01*
X59832272Y-28591306D01*
X59847715Y-28621613D01*
X59968028Y-28787213D01*
X60112786Y-28931971D01*
X60267749Y-29044556D01*
X60278390Y-29052287D01*
X60369840Y-29098883D01*
X60371080Y-29099515D01*
X60421876Y-29147490D01*
X60438671Y-29215311D01*
X60416134Y-29281446D01*
X60371080Y-29320485D01*
X60278386Y-29367715D01*
X60112786Y-29488028D01*
X59968028Y-29632786D01*
X59847715Y-29798386D01*
X59754781Y-29980776D01*
X59691522Y-30175465D01*
X59659500Y-30377648D01*
X59659500Y-30582351D01*
X59691522Y-30784534D01*
X59754781Y-30979223D01*
X59847715Y-31161613D01*
X59968028Y-31327213D01*
X60112786Y-31471971D01*
X60229529Y-31556788D01*
X60278390Y-31592287D01*
X60369840Y-31638883D01*
X60371080Y-31639515D01*
X60421876Y-31687490D01*
X60438671Y-31755311D01*
X60416134Y-31821446D01*
X60371080Y-31860485D01*
X60278386Y-31907715D01*
X60112786Y-32028028D01*
X59968028Y-32172786D01*
X59847715Y-32338386D01*
X59754781Y-32520776D01*
X59691522Y-32715465D01*
X59659500Y-32917648D01*
X59659500Y-33122351D01*
X59691522Y-33324534D01*
X59754781Y-33519223D01*
X59818691Y-33644653D01*
X59827333Y-33661613D01*
X59847715Y-33701613D01*
X59968028Y-33867213D01*
X60112786Y-34011971D01*
X60223330Y-34092284D01*
X60278390Y-34132287D01*
X60358427Y-34173068D01*
X60371080Y-34179515D01*
X60421876Y-34227490D01*
X60438671Y-34295311D01*
X60416134Y-34361446D01*
X60371080Y-34400485D01*
X60278386Y-34447715D01*
X60112786Y-34568028D01*
X59968028Y-34712786D01*
X59847715Y-34878386D01*
X59754781Y-35060776D01*
X59691522Y-35255465D01*
X59659500Y-35457648D01*
X59659500Y-35662351D01*
X59691522Y-35864534D01*
X59754781Y-36059223D01*
X59806135Y-36160009D01*
X59843684Y-36233703D01*
X59847715Y-36241613D01*
X59968028Y-36407213D01*
X60112786Y-36551971D01*
X60267749Y-36664556D01*
X60278390Y-36672287D01*
X60369840Y-36718883D01*
X60371080Y-36719515D01*
X60421876Y-36767490D01*
X60438671Y-36835311D01*
X60416134Y-36901446D01*
X60371080Y-36940485D01*
X60278386Y-36987715D01*
X60112786Y-37108028D01*
X59968028Y-37252786D01*
X59847715Y-37418386D01*
X59754781Y-37600776D01*
X59691522Y-37795465D01*
X59659500Y-37997648D01*
X59659500Y-38202351D01*
X59691522Y-38404534D01*
X59696173Y-38418848D01*
X59698165Y-38488690D01*
X59665921Y-38544842D01*
X49148584Y-49062181D01*
X49087261Y-49095666D01*
X49060903Y-49098500D01*
X46954697Y-49098500D01*
X46887658Y-49078815D01*
X46841903Y-49026011D01*
X46831959Y-48956853D01*
X46844212Y-48918205D01*
X46925218Y-48759223D01*
X46925218Y-48759222D01*
X46925220Y-48759219D01*
X46988477Y-48564534D01*
X47020500Y-48362352D01*
X47020500Y-48157648D01*
X47006144Y-48067007D01*
X46988477Y-47955465D01*
X46925218Y-47760776D01*
X46832419Y-47578650D01*
X46832287Y-47578390D01*
X46824556Y-47567749D01*
X46711971Y-47412786D01*
X46567213Y-47268028D01*
X46401614Y-47147715D01*
X46395006Y-47144348D01*
X46308917Y-47100483D01*
X46258123Y-47052511D01*
X46241328Y-46984690D01*
X46263865Y-46918555D01*
X46308917Y-46879516D01*
X46401610Y-46832287D01*
X46446774Y-46799474D01*
X46567213Y-46711971D01*
X46567215Y-46711968D01*
X46567219Y-46711966D01*
X46711966Y-46567219D01*
X46711968Y-46567215D01*
X46711971Y-46567213D01*
X46764732Y-46494590D01*
X46832287Y-46401610D01*
X46925220Y-46219219D01*
X46988477Y-46024534D01*
X47020500Y-45822352D01*
X47020500Y-45617648D01*
X47012257Y-45565606D01*
X46988477Y-45415465D01*
X46957458Y-45320000D01*
X46925220Y-45220781D01*
X46925218Y-45220778D01*
X46925218Y-45220776D01*
X46832419Y-45038650D01*
X46832287Y-45038390D01*
X46800092Y-44994077D01*
X46711971Y-44872786D01*
X46567213Y-44728028D01*
X46401614Y-44607715D01*
X46395006Y-44604348D01*
X46308917Y-44560483D01*
X46258123Y-44512511D01*
X46241328Y-44444690D01*
X46263865Y-44378555D01*
X46308917Y-44339516D01*
X46401610Y-44292287D01*
X46422770Y-44276913D01*
X46567213Y-44171971D01*
X46567215Y-44171968D01*
X46567219Y-44171966D01*
X46711966Y-44027219D01*
X46711968Y-44027215D01*
X46711971Y-44027213D01*
X46764732Y-43954590D01*
X46832287Y-43861610D01*
X46925220Y-43679219D01*
X46988477Y-43484534D01*
X47020500Y-43282352D01*
X47020500Y-43077648D01*
X46988477Y-42875466D01*
X46925220Y-42680781D01*
X46925218Y-42680778D01*
X46925218Y-42680776D01*
X46891503Y-42614607D01*
X46832287Y-42498390D01*
X46824556Y-42487749D01*
X46711971Y-42332786D01*
X46567213Y-42188028D01*
X46401614Y-42067715D01*
X46395006Y-42064348D01*
X46308917Y-42020483D01*
X46258123Y-41972511D01*
X46241328Y-41904690D01*
X46263865Y-41838555D01*
X46308917Y-41799516D01*
X46401610Y-41752287D01*
X46422770Y-41736913D01*
X46567213Y-41631971D01*
X46567215Y-41631968D01*
X46567219Y-41631966D01*
X46711966Y-41487219D01*
X46711968Y-41487215D01*
X46711971Y-41487213D01*
X46764732Y-41414590D01*
X46832287Y-41321610D01*
X46925220Y-41139219D01*
X46988477Y-40944534D01*
X47020500Y-40742352D01*
X47020500Y-40537648D01*
X46988477Y-40335465D01*
X46925218Y-40140776D01*
X46891503Y-40074607D01*
X46832287Y-39958390D01*
X46824556Y-39947749D01*
X46711971Y-39792786D01*
X46567213Y-39648028D01*
X46401614Y-39527715D01*
X46395006Y-39524348D01*
X46308917Y-39480483D01*
X46258123Y-39432511D01*
X46241328Y-39364690D01*
X46263865Y-39298555D01*
X46308917Y-39259516D01*
X46401610Y-39212287D01*
X46457255Y-39171859D01*
X46567213Y-39091971D01*
X46567215Y-39091968D01*
X46567219Y-39091966D01*
X46711966Y-38947219D01*
X46711968Y-38947215D01*
X46711971Y-38947213D01*
X46764732Y-38874590D01*
X46832287Y-38781610D01*
X46925220Y-38599219D01*
X46988477Y-38404534D01*
X47020500Y-38202352D01*
X47020500Y-37997648D01*
X46988477Y-37795466D01*
X46925220Y-37600781D01*
X46925218Y-37600778D01*
X46925218Y-37600776D01*
X46891503Y-37534607D01*
X46832287Y-37418390D01*
X46824556Y-37407749D01*
X46711971Y-37252786D01*
X46567213Y-37108028D01*
X46401614Y-36987715D01*
X46313304Y-36942719D01*
X46308917Y-36940483D01*
X46258123Y-36892511D01*
X46241328Y-36824690D01*
X46263865Y-36758555D01*
X46308917Y-36719516D01*
X46401610Y-36672287D01*
X46422770Y-36656913D01*
X46567213Y-36551971D01*
X46567215Y-36551968D01*
X46567219Y-36551966D01*
X46711966Y-36407219D01*
X46711968Y-36407215D01*
X46711971Y-36407213D01*
X46767706Y-36330499D01*
X46832287Y-36241610D01*
X46925220Y-36059219D01*
X46988477Y-35864534D01*
X47020500Y-35662352D01*
X47020500Y-35457648D01*
X46988477Y-35255466D01*
X46980825Y-35231917D01*
X46925218Y-35060776D01*
X46873865Y-34959992D01*
X46832287Y-34878390D01*
X46816892Y-34857200D01*
X46711971Y-34712786D01*
X46567213Y-34568028D01*
X46401614Y-34447715D01*
X46395006Y-34444348D01*
X46308917Y-34400483D01*
X46258123Y-34352511D01*
X46241328Y-34284690D01*
X46263865Y-34218555D01*
X46308917Y-34179516D01*
X46401610Y-34132287D01*
X46456670Y-34092284D01*
X46567213Y-34011971D01*
X46567215Y-34011968D01*
X46567219Y-34011966D01*
X46711966Y-33867219D01*
X46711968Y-33867215D01*
X46711971Y-33867213D01*
X46764732Y-33794590D01*
X46832287Y-33701610D01*
X46925220Y-33519219D01*
X46988477Y-33324534D01*
X47020500Y-33122352D01*
X47020500Y-32917648D01*
X46988477Y-32715466D01*
X46925220Y-32520781D01*
X46925218Y-32520778D01*
X46925218Y-32520776D01*
X46891503Y-32454607D01*
X46832287Y-32338390D01*
X46789865Y-32280000D01*
X46711971Y-32172786D01*
X46567213Y-32028028D01*
X46401614Y-31907715D01*
X46395006Y-31904348D01*
X46308917Y-31860483D01*
X46258123Y-31812511D01*
X46241328Y-31744690D01*
X46263865Y-31678555D01*
X46308917Y-31639516D01*
X46401610Y-31592287D01*
X46450471Y-31556788D01*
X46567213Y-31471971D01*
X46567215Y-31471968D01*
X46567219Y-31471966D01*
X46711966Y-31327219D01*
X46711968Y-31327215D01*
X46711971Y-31327213D01*
X46777007Y-31237697D01*
X46832287Y-31161610D01*
X46925220Y-30979219D01*
X46988477Y-30784534D01*
X47020500Y-30582352D01*
X47020500Y-30377648D01*
X46988477Y-30175466D01*
X46925220Y-29980781D01*
X46925218Y-29980778D01*
X46925218Y-29980776D01*
X46891503Y-29914607D01*
X46832287Y-29798390D01*
X46812137Y-29770655D01*
X46711971Y-29632786D01*
X46567213Y-29488028D01*
X46401614Y-29367715D01*
X46370787Y-29352008D01*
X46308917Y-29320483D01*
X46258123Y-29272511D01*
X46241328Y-29204690D01*
X46263865Y-29138555D01*
X46308917Y-29099516D01*
X46401610Y-29052287D01*
X46422770Y-29036913D01*
X46567213Y-28931971D01*
X46567215Y-28931968D01*
X46567219Y-28931966D01*
X46711966Y-28787219D01*
X46711968Y-28787215D01*
X46711971Y-28787213D01*
X46803223Y-28661613D01*
X46832287Y-28621610D01*
X46925220Y-28439219D01*
X46988477Y-28244534D01*
X47020500Y-28042352D01*
X47020500Y-27837648D01*
X46997777Y-27694180D01*
X46988477Y-27635465D01*
X46938215Y-27480776D01*
X46925220Y-27440781D01*
X46925218Y-27440778D01*
X46925218Y-27440776D01*
X46870478Y-27333344D01*
X46832287Y-27258390D01*
X46809310Y-27226765D01*
X46711971Y-27092786D01*
X46567213Y-26948028D01*
X46401614Y-26827715D01*
X46395006Y-26824348D01*
X46308917Y-26780483D01*
X46258123Y-26732511D01*
X46241328Y-26664690D01*
X46263865Y-26598555D01*
X46308917Y-26559516D01*
X46401610Y-26512287D01*
X46422770Y-26496913D01*
X46567213Y-26391971D01*
X46567215Y-26391968D01*
X46567219Y-26391966D01*
X46711966Y-26247219D01*
X46711968Y-26247215D01*
X46711971Y-26247213D01*
X46764732Y-26174590D01*
X46832287Y-26081610D01*
X46925220Y-25899219D01*
X46988477Y-25704534D01*
X47020500Y-25502352D01*
X47020500Y-25297648D01*
X46988477Y-25095466D01*
X46925220Y-24900781D01*
X46925218Y-24900778D01*
X46925218Y-24900776D01*
X46883740Y-24819373D01*
X46832287Y-24718390D01*
X46824556Y-24707749D01*
X46711971Y-24552786D01*
X46567213Y-24408028D01*
X46401614Y-24287715D01*
X46395006Y-24284348D01*
X46308917Y-24240483D01*
X46258123Y-24192511D01*
X46241328Y-24124690D01*
X46263865Y-24058555D01*
X46308917Y-24019516D01*
X46401610Y-23972287D01*
X46422770Y-23956913D01*
X46567213Y-23851971D01*
X46567215Y-23851968D01*
X46567219Y-23851966D01*
X46711966Y-23707219D01*
X46711968Y-23707215D01*
X46711971Y-23707213D01*
X46781976Y-23610858D01*
X46832287Y-23541610D01*
X46925220Y-23359219D01*
X46988477Y-23164534D01*
X47020500Y-22962352D01*
X47020500Y-22757648D01*
X46988477Y-22555466D01*
X46925220Y-22360781D01*
X46925218Y-22360778D01*
X46925218Y-22360776D01*
X46891503Y-22294607D01*
X46832287Y-22178390D01*
X46824556Y-22167749D01*
X46711971Y-22012786D01*
X46567213Y-21868028D01*
X46401614Y-21747715D01*
X46395006Y-21744348D01*
X46308917Y-21700483D01*
X46258123Y-21652511D01*
X46241328Y-21584690D01*
X46263865Y-21518555D01*
X46308917Y-21479516D01*
X46401610Y-21432287D01*
X46422770Y-21416913D01*
X46567213Y-21311971D01*
X46567215Y-21311968D01*
X46567219Y-21311966D01*
X46711966Y-21167219D01*
X46711968Y-21167215D01*
X46711971Y-21167213D01*
X46764732Y-21094590D01*
X46832287Y-21001610D01*
X46925220Y-20819219D01*
X46988477Y-20624534D01*
X47020500Y-20422352D01*
X47020500Y-20217648D01*
X46988477Y-20015466D01*
X46925220Y-19820781D01*
X46925218Y-19820778D01*
X46925218Y-19820776D01*
X46891503Y-19754607D01*
X46832287Y-19638390D01*
X46824556Y-19627749D01*
X46711971Y-19472786D01*
X46567213Y-19328028D01*
X46401613Y-19207715D01*
X46401612Y-19207714D01*
X46401610Y-19207713D01*
X46344653Y-19178691D01*
X46219223Y-19114781D01*
X46024534Y-19051522D01*
X45849995Y-19023878D01*
X45822352Y-19019500D01*
X45617648Y-19019500D01*
X45593329Y-19023351D01*
X45415465Y-19051522D01*
X45220776Y-19114781D01*
X45038386Y-19207715D01*
X44872786Y-19328028D01*
X44728028Y-19472786D01*
X44607715Y-19638386D01*
X44514781Y-19820776D01*
X44451522Y-20015465D01*
X44419500Y-20217648D01*
X44419500Y-20422351D01*
X44451522Y-20624534D01*
X44514781Y-20819223D01*
X44607715Y-21001613D01*
X44728028Y-21167213D01*
X44872786Y-21311971D01*
X45027749Y-21424556D01*
X45038390Y-21432287D01*
X45129840Y-21478883D01*
X45131080Y-21479515D01*
X45181876Y-21527490D01*
X45198671Y-21595311D01*
X45176134Y-21661446D01*
X45131080Y-21700485D01*
X45038386Y-21747715D01*
X44872786Y-21868028D01*
X44728028Y-22012786D01*
X44607715Y-22178385D01*
X44600883Y-22191795D01*
X44552909Y-22242591D01*
X44490398Y-22259500D01*
X34249602Y-22259500D01*
X34182563Y-22239815D01*
X34139117Y-22191795D01*
X34132284Y-22178385D01*
X34011971Y-22012786D01*
X33867213Y-21868028D01*
X33701613Y-21747715D01*
X33701612Y-21747714D01*
X33701610Y-21747713D01*
X33644653Y-21718691D01*
X33519223Y-21654781D01*
X33324534Y-21591522D01*
X33149995Y-21563878D01*
X33122352Y-21559500D01*
X32917648Y-21559500D01*
X32893329Y-21563351D01*
X32715465Y-21591522D01*
X32520776Y-21654781D01*
X32338386Y-21747715D01*
X32172786Y-21868028D01*
X32028028Y-22012786D01*
X31907715Y-22178386D01*
X31814781Y-22360776D01*
X31751522Y-22555465D01*
X31719500Y-22757648D01*
X31719500Y-22962351D01*
X31751522Y-23164534D01*
X31814781Y-23359223D01*
X31907715Y-23541613D01*
X32028028Y-23707213D01*
X32172786Y-23851971D01*
X32327749Y-23964556D01*
X32338390Y-23972287D01*
X32431080Y-24019515D01*
X32520776Y-24065218D01*
X32520778Y-24065218D01*
X32520781Y-24065220D01*
X32625137Y-24099127D01*
X32715465Y-24128477D01*
X32734697Y-24131523D01*
X32917648Y-24160500D01*
X32917649Y-24160500D01*
X33122351Y-24160500D01*
X33122352Y-24160500D01*
X33324534Y-24128477D01*
X33338842Y-24123827D01*
X33408682Y-24121831D01*
X33464842Y-24154077D01*
X36785732Y-27474967D01*
X36819217Y-27536290D01*
X36815757Y-27601651D01*
X36800001Y-27649199D01*
X36789500Y-27751983D01*
X36789500Y-29352001D01*
X36789501Y-29352018D01*
X36800000Y-29454796D01*
X36800001Y-29454799D01*
X36855185Y-29621331D01*
X36855187Y-29621336D01*
X36880381Y-29662182D01*
X36947288Y-29770656D01*
X37071344Y-29894712D01*
X37220666Y-29986814D01*
X37387203Y-30041999D01*
X37489991Y-30052500D01*
X38790008Y-30052499D01*
X38892797Y-30041999D01*
X39059334Y-29986814D01*
X39208656Y-29894712D01*
X39332712Y-29770656D01*
X39424814Y-29621334D01*
X39424814Y-29621331D01*
X39428178Y-29615879D01*
X39480126Y-29569154D01*
X39549088Y-29557931D01*
X39613170Y-29585774D01*
X39621398Y-29593294D01*
X39760213Y-29732109D01*
X39932179Y-29857048D01*
X39932181Y-29857049D01*
X39932184Y-29857051D01*
X40121588Y-29953557D01*
X40323757Y-30019246D01*
X40533713Y-30052500D01*
X40533714Y-30052500D01*
X40746286Y-30052500D01*
X40746287Y-30052500D01*
X40956243Y-30019246D01*
X41158412Y-29953557D01*
X41347816Y-29857051D01*
X41428562Y-29798386D01*
X41519786Y-29732109D01*
X41519788Y-29732106D01*
X41519792Y-29732104D01*
X41670104Y-29581792D01*
X41670106Y-29581788D01*
X41670109Y-29581786D01*
X41762369Y-29454799D01*
X41795051Y-29409816D01*
X41889225Y-29224989D01*
X41891663Y-29220205D01*
X41939638Y-29169409D01*
X42002148Y-29152500D01*
X44952972Y-29152500D01*
X45020011Y-29172185D01*
X45065766Y-29224989D01*
X45075710Y-29294147D01*
X45046685Y-29357703D01*
X45025857Y-29376818D01*
X44872786Y-29488028D01*
X44728028Y-29632786D01*
X44607715Y-29798386D01*
X44514781Y-29980776D01*
X44451522Y-30175465D01*
X44419500Y-30377648D01*
X44419500Y-30582351D01*
X44436091Y-30687102D01*
X44427136Y-30756395D01*
X44382140Y-30809847D01*
X44315389Y-30830487D01*
X44313618Y-30830500D01*
X26268538Y-30830500D01*
X26201499Y-30810815D01*
X26155744Y-30758011D01*
X26145800Y-30688853D01*
X26146921Y-30682309D01*
X26170499Y-30563770D01*
X26170500Y-30563768D01*
X26170500Y-30396232D01*
X26170499Y-30396228D01*
X26137817Y-30231925D01*
X26137816Y-30231918D01*
X26073703Y-30077137D01*
X26009320Y-29980781D01*
X25980626Y-29937837D01*
X25862162Y-29819373D01*
X25722860Y-29726295D01*
X25568082Y-29662184D01*
X25568074Y-29662182D01*
X25403771Y-29629500D01*
X25403767Y-29629500D01*
X25236233Y-29629500D01*
X25236228Y-29629500D01*
X25071925Y-29662182D01*
X25071917Y-29662184D01*
X24917139Y-29726295D01*
X24777837Y-29819373D01*
X24659373Y-29937837D01*
X24566295Y-30077139D01*
X24502184Y-30231917D01*
X24502182Y-30231925D01*
X24469500Y-30396228D01*
X24469500Y-30563770D01*
X24493079Y-30682309D01*
X24486852Y-30751900D01*
X24443989Y-30807078D01*
X24378099Y-30830322D01*
X24371462Y-30830500D01*
X21571097Y-30830500D01*
X21541656Y-30821855D01*
X21511670Y-30815332D01*
X21506654Y-30811577D01*
X21504058Y-30810815D01*
X21483416Y-30794181D01*
X21456819Y-30767584D01*
X21423334Y-30706261D01*
X21420500Y-30679903D01*
X21420500Y-29893389D01*
X21408777Y-29819373D01*
X21393402Y-29722299D01*
X21339873Y-29557555D01*
X21261232Y-29403212D01*
X21159414Y-29263072D01*
X21036928Y-29140586D01*
X20896788Y-29038768D01*
X20742445Y-28960127D01*
X20577701Y-28906598D01*
X20577699Y-28906597D01*
X20577698Y-28906597D01*
X20446271Y-28885781D01*
X20406611Y-28879500D01*
X20233389Y-28879500D01*
X20193728Y-28885781D01*
X20062302Y-28906597D01*
X19897552Y-28960128D01*
X19743211Y-29038768D01*
X19669554Y-29092284D01*
X19603072Y-29140586D01*
X19603070Y-29140588D01*
X19603069Y-29140588D01*
X19480588Y-29263069D01*
X19480588Y-29263070D01*
X19480586Y-29263072D01*
X19458009Y-29294147D01*
X19378768Y-29403211D01*
X19300128Y-29557552D01*
X19246597Y-29722302D01*
X19234547Y-29798386D01*
X19219500Y-29893389D01*
X17720500Y-29893389D01*
X17720500Y-28591306D01*
X17720499Y-28591304D01*
X17685896Y-28417341D01*
X17685893Y-28417332D01*
X17618016Y-28253459D01*
X17618009Y-28253446D01*
X17519464Y-28105965D01*
X17519461Y-28105961D01*
X17394037Y-27980537D01*
X17387065Y-27975879D01*
X17387064Y-27975878D01*
X17246552Y-27881990D01*
X17246540Y-27881983D01*
X17236074Y-27877648D01*
X23669500Y-27877648D01*
X23669500Y-28082351D01*
X23701522Y-28284534D01*
X23764781Y-28479223D01*
X23819857Y-28587314D01*
X23837333Y-28621613D01*
X23857715Y-28661613D01*
X23978028Y-28827213D01*
X24122786Y-28971971D01*
X24233330Y-29052284D01*
X24288390Y-29092287D01*
X24379196Y-29138555D01*
X24470776Y-29185218D01*
X24470778Y-29185218D01*
X24470781Y-29185220D01*
X24563392Y-29215311D01*
X24665465Y-29248477D01*
X24757595Y-29263069D01*
X24867648Y-29280500D01*
X24867649Y-29280500D01*
X25772351Y-29280500D01*
X25772352Y-29280500D01*
X25974534Y-29248477D01*
X26169219Y-29185220D01*
X26351610Y-29092287D01*
X26444590Y-29024732D01*
X26517213Y-28971971D01*
X26517215Y-28971968D01*
X26517219Y-28971966D01*
X26661966Y-28827219D01*
X26661968Y-28827215D01*
X26661971Y-28827213D01*
X26720690Y-28746392D01*
X26782287Y-28661610D01*
X26875220Y-28479219D01*
X26938477Y-28284534D01*
X26970500Y-28082352D01*
X26970500Y-27877648D01*
X26938477Y-27675466D01*
X26929942Y-27649199D01*
X26893256Y-27536290D01*
X26875220Y-27480781D01*
X26875218Y-27480778D01*
X26875218Y-27480776D01*
X26819737Y-27371890D01*
X26782287Y-27298390D01*
X26753223Y-27258386D01*
X26661971Y-27132786D01*
X26517213Y-26988028D01*
X26351613Y-26867715D01*
X26351612Y-26867714D01*
X26351610Y-26867713D01*
X26263959Y-26823052D01*
X26169220Y-26774780D01*
X26145744Y-26767152D01*
X26088069Y-26727713D01*
X26060873Y-26663354D01*
X26072789Y-26594508D01*
X26120034Y-26543033D01*
X26145740Y-26531294D01*
X26242445Y-26499873D01*
X26396788Y-26421232D01*
X26536928Y-26319414D01*
X26659414Y-26196928D01*
X26761232Y-26056788D01*
X26839873Y-25902445D01*
X26893402Y-25737701D01*
X26920500Y-25566611D01*
X26920500Y-25393389D01*
X26893402Y-25222299D01*
X26839873Y-25057555D01*
X26761232Y-24903212D01*
X26659414Y-24763072D01*
X26536928Y-24640586D01*
X26396788Y-24538768D01*
X26242445Y-24460127D01*
X26077701Y-24406598D01*
X26077699Y-24406597D01*
X26077698Y-24406597D01*
X25946271Y-24385781D01*
X25906611Y-24379500D01*
X24733389Y-24379500D01*
X24693728Y-24385781D01*
X24562302Y-24406597D01*
X24397552Y-24460128D01*
X24243211Y-24538768D01*
X24163256Y-24596859D01*
X24103072Y-24640586D01*
X24103070Y-24640588D01*
X24103069Y-24640588D01*
X23980588Y-24763069D01*
X23980588Y-24763070D01*
X23980586Y-24763072D01*
X23939681Y-24819373D01*
X23878768Y-24903211D01*
X23800128Y-25057552D01*
X23746597Y-25222302D01*
X23745074Y-25231918D01*
X23719500Y-25393389D01*
X23719500Y-25566611D01*
X23746598Y-25737701D01*
X23800127Y-25902445D01*
X23878768Y-26056788D01*
X23980586Y-26196928D01*
X24103072Y-26319414D01*
X24243212Y-26421232D01*
X24397555Y-26499873D01*
X24494254Y-26531292D01*
X24551927Y-26570728D01*
X24579126Y-26635087D01*
X24567212Y-26703933D01*
X24519968Y-26755409D01*
X24494256Y-26767152D01*
X24470777Y-26774781D01*
X24288386Y-26867715D01*
X24122786Y-26988028D01*
X23978028Y-27132786D01*
X23857715Y-27298386D01*
X23764781Y-27480776D01*
X23701522Y-27675465D01*
X23669500Y-27877648D01*
X17236074Y-27877648D01*
X17082667Y-27814106D01*
X17082658Y-27814103D01*
X16908694Y-27779500D01*
X16908691Y-27779500D01*
X16885892Y-27779500D01*
X16444500Y-27779500D01*
X16377461Y-27759815D01*
X16331706Y-27707011D01*
X16320500Y-27655500D01*
X16320500Y-25396228D01*
X16969500Y-25396228D01*
X16969500Y-25563771D01*
X17002182Y-25728074D01*
X17002184Y-25728082D01*
X17066295Y-25882860D01*
X17159373Y-26022162D01*
X17277837Y-26140626D01*
X17370494Y-26202537D01*
X17417137Y-26233703D01*
X17571918Y-26297816D01*
X17736228Y-26330499D01*
X17736232Y-26330500D01*
X17736233Y-26330500D01*
X17903768Y-26330500D01*
X17903769Y-26330499D01*
X18068082Y-26297816D01*
X18222863Y-26233703D01*
X18362162Y-26140626D01*
X18480626Y-26022162D01*
X18573703Y-25882863D01*
X18637816Y-25728082D01*
X18670500Y-25563767D01*
X18670500Y-25396233D01*
X18670499Y-25396228D01*
X19469500Y-25396228D01*
X19469500Y-25563771D01*
X19502182Y-25728074D01*
X19502184Y-25728082D01*
X19566295Y-25882860D01*
X19659373Y-26022162D01*
X19777837Y-26140626D01*
X19870494Y-26202537D01*
X19917137Y-26233703D01*
X20071918Y-26297816D01*
X20236228Y-26330499D01*
X20236232Y-26330500D01*
X20236233Y-26330500D01*
X20403768Y-26330500D01*
X20403769Y-26330499D01*
X20568082Y-26297816D01*
X20722863Y-26233703D01*
X20862162Y-26140626D01*
X20980626Y-26022162D01*
X21073703Y-25882863D01*
X21137816Y-25728082D01*
X21170500Y-25563767D01*
X21170500Y-25396233D01*
X21137816Y-25231918D01*
X21073703Y-25077137D01*
X21042537Y-25030494D01*
X20980626Y-24937837D01*
X20862162Y-24819373D01*
X20722860Y-24726295D01*
X20568082Y-24662184D01*
X20568074Y-24662182D01*
X20403771Y-24629500D01*
X20403767Y-24629500D01*
X20236233Y-24629500D01*
X20236228Y-24629500D01*
X20071925Y-24662182D01*
X20071917Y-24662184D01*
X19917139Y-24726295D01*
X19777837Y-24819373D01*
X19659373Y-24937837D01*
X19566295Y-25077139D01*
X19502184Y-25231917D01*
X19502182Y-25231925D01*
X19469500Y-25396228D01*
X18670499Y-25396228D01*
X18637816Y-25231918D01*
X18573703Y-25077137D01*
X18542537Y-25030494D01*
X18480626Y-24937837D01*
X18362162Y-24819373D01*
X18222860Y-24726295D01*
X18068082Y-24662184D01*
X18068074Y-24662182D01*
X17903771Y-24629500D01*
X17903767Y-24629500D01*
X17736233Y-24629500D01*
X17736228Y-24629500D01*
X17571925Y-24662182D01*
X17571917Y-24662184D01*
X17417139Y-24726295D01*
X17277837Y-24819373D01*
X17159373Y-24937837D01*
X17066295Y-25077139D01*
X17002184Y-25231917D01*
X17002182Y-25231925D01*
X16969500Y-25396228D01*
X16320500Y-25396228D01*
X16320500Y-15137682D01*
X39340000Y-15137682D01*
X39340000Y-15342317D01*
X39372009Y-15544417D01*
X39435244Y-15739031D01*
X39528141Y-15921350D01*
X39528147Y-15921359D01*
X39560523Y-15965921D01*
X39560524Y-15965922D01*
X40240000Y-15286446D01*
X40240000Y-15292661D01*
X40267259Y-15394394D01*
X40319920Y-15485606D01*
X40394394Y-15560080D01*
X40485606Y-15612741D01*
X40587339Y-15640000D01*
X40593553Y-15640000D01*
X39914076Y-16319474D01*
X39958650Y-16351859D01*
X40140968Y-16444755D01*
X40335582Y-16507990D01*
X40537683Y-16540000D01*
X40742317Y-16540000D01*
X40944417Y-16507990D01*
X41139031Y-16444755D01*
X41321349Y-16351859D01*
X41365921Y-16319474D01*
X40686447Y-15640000D01*
X40692661Y-15640000D01*
X40794394Y-15612741D01*
X40885606Y-15560080D01*
X40960080Y-15485606D01*
X41012741Y-15394394D01*
X41040000Y-15292661D01*
X41040000Y-15286447D01*
X41719474Y-15965921D01*
X41751859Y-15921349D01*
X41844755Y-15739031D01*
X41907990Y-15544417D01*
X41940000Y-15342317D01*
X41940000Y-15137682D01*
X41907990Y-14935582D01*
X41844755Y-14740968D01*
X41751859Y-14558650D01*
X41719474Y-14514077D01*
X41719474Y-14514076D01*
X41040000Y-15193551D01*
X41040000Y-15187339D01*
X41012741Y-15085606D01*
X40960080Y-14994394D01*
X40885606Y-14919920D01*
X40794394Y-14867259D01*
X40692661Y-14840000D01*
X40686446Y-14840000D01*
X41365922Y-14160524D01*
X41365921Y-14160523D01*
X41321359Y-14128147D01*
X41321350Y-14128141D01*
X41139031Y-14035244D01*
X40944417Y-13972009D01*
X40742317Y-13940000D01*
X40537683Y-13940000D01*
X40335582Y-13972009D01*
X40140968Y-14035244D01*
X39958644Y-14128143D01*
X39914077Y-14160523D01*
X39914077Y-14160524D01*
X40593554Y-14840000D01*
X40587339Y-14840000D01*
X40485606Y-14867259D01*
X40394394Y-14919920D01*
X40319920Y-14994394D01*
X40267259Y-15085606D01*
X40240000Y-15187339D01*
X40240000Y-15193553D01*
X39560524Y-14514077D01*
X39560523Y-14514077D01*
X39528143Y-14558644D01*
X39435244Y-14740968D01*
X39372009Y-14935582D01*
X39340000Y-15137682D01*
X16320500Y-15137682D01*
X16320500Y-13324500D01*
X16340185Y-13257461D01*
X16392989Y-13211706D01*
X16444500Y-13200500D01*
X62875500Y-13200500D01*
X62942539Y-13220185D01*
G37*
%TD.AperFunction*%
%TD*%
M02*
