%TF.GenerationSoftware,KiCad,Pcbnew,9.0.6-9.0.6~ubuntu24.04.1*%
%TF.CreationDate,2025-12-30T17:11:54-05:00*%
%TF.ProjectId,Dryer Buzzer V3,44727965-7220-4427-957a-7a6572205633,rev?*%
%TF.SameCoordinates,Original*%
%TF.FileFunction,Soldermask,Bot*%
%TF.FilePolarity,Negative*%
%FSLAX46Y46*%
G04 Gerber Fmt 4.6, Leading zero omitted, Abs format (unit mm)*
G04 Created by KiCad (PCBNEW 9.0.6-9.0.6~ubuntu24.04.1) date 2025-12-30 17:11:54*
%MOMM*%
%LPD*%
G01*
G04 APERTURE LIST*
G04 Aperture macros list*
%AMRoundRect*
0 Rectangle with rounded corners*
0 $1 Rounding radius*
0 $2 $3 $4 $5 $6 $7 $8 $9 X,Y pos of 4 corners*
0 Add a 4 corners polygon primitive as box body*
4,1,4,$2,$3,$4,$5,$6,$7,$8,$9,$2,$3,0*
0 Add four circle primitives for the rounded corners*
1,1,$1+$1,$2,$3*
1,1,$1+$1,$4,$5*
1,1,$1+$1,$6,$7*
1,1,$1+$1,$8,$9*
0 Add four rect primitives between the rounded corners*
20,1,$1+$1,$2,$3,$4,$5,0*
20,1,$1+$1,$4,$5,$6,$7,0*
20,1,$1+$1,$6,$7,$8,$9,0*
20,1,$1+$1,$8,$9,$2,$3,0*%
G04 Aperture macros list end*
%ADD10C,1.600000*%
%ADD11RoundRect,0.250000X-0.725000X0.600000X-0.725000X-0.600000X0.725000X-0.600000X0.725000X0.600000X0*%
%ADD12O,1.950000X1.700000*%
%ADD13RoundRect,0.250000X-0.600000X-0.750000X0.600000X-0.750000X0.600000X0.750000X-0.600000X0.750000X0*%
%ADD14O,1.700000X2.000000*%
%ADD15C,1.200000*%
%ADD16O,2.200000X1.200000*%
%ADD17O,2.300000X1.600000*%
%ADD18O,1.200000X2.200000*%
%ADD19O,2.500000X1.600000*%
%ADD20RoundRect,0.250000X-0.550000X0.550000X-0.550000X-0.550000X0.550000X-0.550000X0.550000X0.550000X0*%
%ADD21O,1.600000X1.600000*%
%ADD22R,1.600000X1.600000*%
G04 APERTURE END LIST*
D10*
%TO.C,R6*%
X40640000Y-25400000D03*
X40640000Y-15240000D03*
%TD*%
%TO.C,R2*%
X33020000Y-35560000D03*
X33020000Y-45720000D03*
%TD*%
%TO.C,R1*%
X33020000Y-22860000D03*
X33020000Y-33020000D03*
%TD*%
D11*
%TO.C,J4*%
X38100000Y-50880000D03*
D12*
X38100000Y-53380000D03*
X38100000Y-55880000D03*
%TD*%
D13*
%TO.C,J2*%
X38140000Y-28552000D03*
D14*
X40640000Y-28552000D03*
%TD*%
D15*
%TO.C,J1*%
X20320000Y-25480000D03*
X17820000Y-25480000D03*
X25320000Y-30480000D03*
X20320000Y-35480000D03*
X17820000Y-35480000D03*
D16*
X25320000Y-25480000D03*
D17*
X25320000Y-27980000D03*
D18*
X20320000Y-30480000D03*
D16*
X25320000Y-35480000D03*
D19*
X25320000Y-32980000D03*
%TD*%
D20*
%TO.C,C1*%
X40640000Y-35560000D03*
D10*
X40640000Y-38060000D03*
%TD*%
D21*
%TO.C,A1*%
X45720000Y-55880000D03*
X45720000Y-53340000D03*
X45720000Y-50800000D03*
X45720000Y-48260000D03*
X45720000Y-45720000D03*
X45720000Y-43180000D03*
X45720000Y-40640000D03*
X45720000Y-38100000D03*
X45720000Y-35560000D03*
X45720000Y-33020000D03*
X45720000Y-30480000D03*
X45720000Y-27940000D03*
X45720000Y-25400000D03*
X45720000Y-22860000D03*
X45720000Y-20320000D03*
X60960000Y-20320000D03*
X60960000Y-22860000D03*
X60960000Y-25400000D03*
X60960000Y-27940000D03*
X60960000Y-30480000D03*
X60960000Y-33020000D03*
X60960000Y-35560000D03*
X60960000Y-38100000D03*
X60960000Y-40640000D03*
X60960000Y-43180000D03*
X60960000Y-45720000D03*
X60960000Y-48260000D03*
X60960000Y-50800000D03*
X60960000Y-53340000D03*
D22*
X60960000Y-55880000D03*
%TD*%
M02*
