M48
; DRILL file {KiCad 9.0.6-9.0.6~ubuntu24.04.1} date 2025-12-30T17:11:56-0500
; FORMAT={-:-/ absolute / metric / decimal}
; #@! TF.CreationDate,2025-12-30T17:11:56-05:00
; #@! TF.GenerationSoftware,Kicad,Pcbnew,9.0.6-9.0.6~ubuntu24.04.1
; #@! TF.FileFunction,Plated,1,2,PTH
FMAT,2
METRIC
; #@! TA.AperFunction,Plated,PTH,ViaDrill
T1C0.300
; #@! TA.AperFunction,Plated,PTH,ComponentDrill
T2C0.400
; #@! TA.AperFunction,Plated,PTH,ComponentDrill
T3C0.800
; #@! TA.AperFunction,Plated,PTH,ComponentDrill
T4C0.950
; #@! TA.AperFunction,Plated,PTH,ComponentDrill
T5C1.000
%
G90
G05
T1
X30.48Y-33.02
X38.1Y-25.4
X38.1Y-33.02
X43.18Y-25.4
X43.18Y-53.34
T3
X33.02Y-22.86
X33.02Y-33.02
X33.02Y-35.56
X33.02Y-45.72
X40.64Y-15.24
X40.64Y-25.4
X40.64Y-35.56
X40.64Y-38.06
T4
X38.1Y-50.88
X38.1Y-53.38
X38.1Y-55.88
T5
X38.14Y-28.552
X40.64Y-28.552
X45.72Y-20.32
X45.72Y-22.86
X45.72Y-25.4
X45.72Y-27.94
X45.72Y-30.48
X45.72Y-33.02
X45.72Y-35.56
X45.72Y-38.1
X45.72Y-40.64
X45.72Y-43.18
X45.72Y-45.72
X45.72Y-48.26
X45.72Y-50.8
X45.72Y-53.34
X45.72Y-55.88
X60.96Y-20.32
X60.96Y-22.86
X60.96Y-25.4
X60.96Y-27.94
X60.96Y-30.48
X60.96Y-33.02
X60.96Y-35.56
X60.96Y-38.1
X60.96Y-40.64
X60.96Y-43.18
X60.96Y-45.72
X60.96Y-48.26
X60.96Y-50.8
X60.96Y-53.34
X60.96Y-55.88
T2
X20.32Y-29.98G85X20.32Y-30.98
G05
X25.82Y-25.48G85X24.82Y-25.48
G05
X24.82Y-35.48G85X25.82Y-35.48
G05
T3
X25.67Y-27.98G85X24.97Y-27.98
G05
X24.97Y-32.98G85X25.67Y-32.98
G05
M30
