solid OpenSCAD_Model
  facet normal -1 0 0
    outer loop
      vertex 0 20 0
      vertex 0 18 0
      vertex 0 18 2
    endloop
  endfacet
  facet normal 0 0 -1
    outer loop
      vertex 0 20 0
      vertex 150 20 0
      vertex 0 18 0
    endloop
  endfacet
  facet normal 0 1 0
    outer loop
      vertex 0 20 0
      vertex 0 20 2
      vertex 150 20 0
    endloop
  endfacet
  facet normal -1 0 0
    outer loop
      vertex 0 20 0
      vertex 0 18 2
      vertex 0 20 2
    endloop
  endfacet
  facet normal 0 0 1
    outer loop
      vertex 0 20 2
      vertex 0 18 2
      vertex 148 18 2
    endloop
  endfacet
  facet normal 0 -1 0
    outer loop
      vertex 150 0 0
      vertex 150 0 2
      vertex 148 0 0
    endloop
  endfacet
  facet normal 0 0 -1
    outer loop
      vertex 150 0 0
      vertex 148 0 0
      vertex 148 18 0
    endloop
  endfacet
  facet normal 1 0 0
    outer loop
      vertex 150 0 0
      vertex 150 20 0
      vertex 150 0 2
    endloop
  endfacet
  facet normal 0 -1 0
    outer loop
      vertex 150 0 2
      vertex 148 0 2
      vertex 148 0 0
    endloop
  endfacet
  facet normal 0 0 1
    outer loop
      vertex 150 0 2
      vertex 148 18 2
      vertex 148 0 2
    endloop
  endfacet
  facet normal 0 0 -1
    outer loop
      vertex 150 20 0
      vertex 148 18 0
      vertex 0 18 0
    endloop
  endfacet
  facet normal 0 0 -1
    outer loop
      vertex 150 0 0
      vertex 148 18 0
      vertex 150 20 0
    endloop
  endfacet
  facet normal 0 1 0
    outer loop
      vertex 0 20 2
      vertex 150 20 2
      vertex 150 20 0
    endloop
  endfacet
  facet normal 0 0 1
    outer loop
      vertex 0 20 2
      vertex 148 18 2
      vertex 150 20 2
    endloop
  endfacet
  facet normal 1 0 0
    outer loop
      vertex 150 0 2
      vertex 150 20 0
      vertex 150 20 2
    endloop
  endfacet
  facet normal 0 0 1
    outer loop
      vertex 150 0 2
      vertex 150 20 2
      vertex 148 18 2
    endloop
  endfacet
  facet normal 0 -1 0
    outer loop
      vertex 0 18 2
      vertex 0 18 0
      vertex 148 18 0
    endloop
  endfacet
  facet normal -1 0 0
    outer loop
      vertex 148 0 0
      vertex 148 0 2
      vertex 148 18 0
    endloop
  endfacet
  facet normal 0 -1 0
    outer loop
      vertex 148 18 2
      vertex 0 18 2
      vertex 148 18 0
    endloop
  endfacet
  facet normal -1 0 0
    outer loop
      vertex 148 0 2
      vertex 148 18 2
      vertex 148 18 0
    endloop
  endfacet
endsolid OpenSCAD_Model
