M48
; DRILL file {KiCad 7.0.9} date Sun Mar 24 10:40:42 2024
; FORMAT={-:-/ absolute / inch / decimal}
; #@! TF.CreationDate,2024-03-24T10:40:42-04:00
; #@! TF.GenerationSoftware,Kicad,Pcbnew,7.0.9
; #@! TF.FileFunction,Plated,1,2,PTH
FMAT,2
INCH
; #@! TA.AperFunction,Plated,PTH,ViaDrill
T1C0.0157
; #@! TA.AperFunction,Plated,PTH,ComponentDrill
T2C0.0157
; #@! TA.AperFunction,Plated,PTH,ComponentDrill
T3C0.0276
; #@! TA.AperFunction,Plated,PTH,ComponentDrill
T4C0.0315
; #@! TA.AperFunction,Plated,PTH,ComponentDrill
T5C0.0394
%
G90
G05
T1
X5.6Y-1.75
X5.6Y-1.8
T3
X4.95Y-2.975
X5.05Y-2.875
X5.15Y-2.975
T4
X4.5016Y-1.3
X4.6Y-1.3
X4.6Y-2.65
X4.8Y-1.3
X4.8Y-1.7
X4.975Y-1.3
X4.975Y-1.7
X5.0Y-2.65
X5.1Y-1.775
X5.3Y-2.65
X5.3Y-2.9
X5.5Y-1.775
X5.7Y-2.65
X5.7Y-2.9
T5
X4.2Y-1.3
X4.2Y-1.3984
X4.4Y-1.9
X4.4Y-2.5
X4.4Y-2.975
X4.5Y-1.9
X4.5Y-2.5
X4.6Y-1.9
X4.6Y-2.5
X4.6992Y-2.975
X4.7Y-1.9
X4.7Y-2.5
X4.8Y-1.9
X4.8Y-2.5
X4.9Y-1.9
X4.9Y-2.5
X5.0Y-1.9
X5.0Y-2.5
X5.1Y-1.9
X5.1Y-2.5
X5.2Y-1.9
X5.2Y-2.5
X5.3Y-1.9
X5.3Y-2.5
X5.4Y-1.9
X5.4Y-2.5
X5.5Y-1.625
X5.5Y-1.9
X5.5Y-2.5
X5.5984Y-1.625
X5.6Y-1.9
X5.6Y-2.5
X5.7Y-1.9
X5.7Y-2.5
X5.8Y-1.9
X5.8Y-2.5
T2
G00X5.2031Y-1.2772
M15
G01X5.2031Y-1.3165
M16
G05
G00X5.4197Y-1.1
M15
G01X5.3803Y-1.1
M16
G05
G00X5.5969Y-1.3165
M15
G01X5.5969Y-1.2772
M16
G05
T4
G00X5.3016Y-1.2831
M15
G01X5.3016Y-1.3106
M16
G05
G00X5.4984Y-1.3106
M15
G01X5.4984Y-1.2831
M16
G05
T0
M30
