%TF.GenerationSoftware,KiCad,Pcbnew,7.0.9*%
%TF.CreationDate,2024-03-24T10:40:35-04:00*%
%TF.ProjectId,Dryer Buzzer V2,44727965-7220-4427-957a-7a6572205632,rev?*%
%TF.SameCoordinates,Original*%
%TF.FileFunction,Copper,L1,Top*%
%TF.FilePolarity,Positive*%
%FSLAX46Y46*%
G04 Gerber Fmt 4.6, Leading zero omitted, Abs format (unit mm)*
G04 Created by KiCad (PCBNEW 7.0.9) date 2024-03-24 10:40:35*
%MOMM*%
%LPD*%
G01*
G04 APERTURE LIST*
G04 Aperture macros list*
%AMRoundRect*
0 Rectangle with rounded corners*
0 $1 Rounding radius*
0 $2 $3 $4 $5 $6 $7 $8 $9 X,Y pos of 4 corners*
0 Add a 4 corners polygon primitive as box body*
4,1,4,$2,$3,$4,$5,$6,$7,$8,$9,$2,$3,0*
0 Add four circle primitives for the rounded corners*
1,1,$1+$1,$2,$3*
1,1,$1+$1,$4,$5*
1,1,$1+$1,$6,$7*
1,1,$1+$1,$8,$9*
0 Add four rect primitives between the rounded corners*
20,1,$1+$1,$2,$3,$4,$5,0*
20,1,$1+$1,$4,$5,$6,$7,0*
20,1,$1+$1,$6,$7,$8,$9,0*
20,1,$1+$1,$8,$9,$2,$3,0*%
G04 Aperture macros list end*
%TA.AperFunction,ComponentPad*%
%ADD10O,1.200000X2.200000*%
%TD*%
%TA.AperFunction,ComponentPad*%
%ADD11O,1.600000X2.300000*%
%TD*%
%TA.AperFunction,ComponentPad*%
%ADD12O,2.200000X1.200000*%
%TD*%
%TA.AperFunction,ComponentPad*%
%ADD13O,1.600000X2.500000*%
%TD*%
%TA.AperFunction,ComponentPad*%
%ADD14R,1.600000X1.600000*%
%TD*%
%TA.AperFunction,ComponentPad*%
%ADD15O,1.600000X1.600000*%
%TD*%
%TA.AperFunction,ComponentPad*%
%ADD16C,1.600000*%
%TD*%
%TA.AperFunction,ComponentPad*%
%ADD17RoundRect,0.250000X-0.750000X0.600000X-0.750000X-0.600000X0.750000X-0.600000X0.750000X0.600000X0*%
%TD*%
%TA.AperFunction,ComponentPad*%
%ADD18O,2.000000X1.700000*%
%TD*%
%TA.AperFunction,ComponentPad*%
%ADD19O,1.600000X1.200000*%
%TD*%
%TA.AperFunction,ComponentPad*%
%ADD20O,1.200000X1.200000*%
%TD*%
%TA.AperFunction,ComponentPad*%
%ADD21R,2.000000X2.000000*%
%TD*%
%TA.AperFunction,ComponentPad*%
%ADD22C,2.000000*%
%TD*%
%TA.AperFunction,ComponentPad*%
%ADD23RoundRect,0.250000X0.600000X0.750000X-0.600000X0.750000X-0.600000X-0.750000X0.600000X-0.750000X0*%
%TD*%
%TA.AperFunction,ComponentPad*%
%ADD24O,1.700000X2.000000*%
%TD*%
%TA.AperFunction,ViaPad*%
%ADD25C,0.800000*%
%TD*%
%TA.AperFunction,Conductor*%
%ADD26C,0.250000*%
%TD*%
G04 APERTURE END LIST*
D10*
%TO.P,J1,R*%
%TO.N,unconnected-(J1-PadR)*%
X142160000Y-32940000D03*
D11*
%TO.P,J1,RN*%
%TO.N,unconnected-(J1-PadRN)*%
X139660000Y-32940000D03*
D12*
%TO.P,J1,S*%
%TO.N,/A1*%
X137160000Y-27940000D03*
D10*
%TO.P,J1,T*%
%TO.N,Net-(C1-Pad1)*%
X132160000Y-32940000D03*
D13*
%TO.P,J1,TN*%
%TO.N,unconnected-(J1-PadTN)*%
X134660000Y-32940000D03*
%TD*%
D14*
%TO.P,A1,1,D1/TX*%
%TO.N,unconnected-(A1-Pad1)*%
X111760000Y-63500000D03*
D15*
%TO.P,A1,2,D0/RX*%
%TO.N,unconnected-(A1-Pad2)*%
X114300000Y-63500000D03*
%TO.P,A1,3,~{RESET}*%
%TO.N,unconnected-(A1-Pad3)*%
X116840000Y-63500000D03*
%TO.P,A1,4,GND*%
%TO.N,GND*%
X119380000Y-63500000D03*
%TO.P,A1,5,D2*%
%TO.N,unconnected-(A1-Pad5)*%
X121920000Y-63500000D03*
%TO.P,A1,6,D3*%
%TO.N,unconnected-(A1-Pad6)*%
X124460000Y-63500000D03*
%TO.P,A1,7,D4*%
%TO.N,unconnected-(A1-Pad7)*%
X127000000Y-63500000D03*
%TO.P,A1,8,D5*%
%TO.N,/D8*%
X129540000Y-63500000D03*
%TO.P,A1,9,D6*%
%TO.N,unconnected-(A1-Pad9)*%
X132080000Y-63500000D03*
%TO.P,A1,10,D7*%
%TO.N,unconnected-(A1-Pad10)*%
X134620000Y-63500000D03*
%TO.P,A1,11,D8*%
%TO.N,unconnected-(A1-Pad11)*%
X137160000Y-63500000D03*
%TO.P,A1,12,D9*%
%TO.N,unconnected-(A1-Pad12)*%
X139700000Y-63500000D03*
%TO.P,A1,13,D10*%
%TO.N,unconnected-(A1-Pad13)*%
X142240000Y-63500000D03*
%TO.P,A1,14,D11*%
%TO.N,unconnected-(A1-Pad14)*%
X144780000Y-63500000D03*
%TO.P,A1,15,D12*%
%TO.N,unconnected-(A1-Pad15)*%
X147320000Y-63500000D03*
%TO.P,A1,16,D13*%
%TO.N,unconnected-(A1-Pad16)*%
X147320000Y-48260000D03*
%TO.P,A1,17,3V3*%
%TO.N,+3V3*%
X144780000Y-48260000D03*
%TO.P,A1,18,AREF*%
%TO.N,unconnected-(A1-Pad18)*%
X142240000Y-48260000D03*
%TO.P,A1,19,A0*%
%TO.N,/A0*%
X139700000Y-48260000D03*
%TO.P,A1,20,A1*%
%TO.N,/A1*%
X137160000Y-48260000D03*
%TO.P,A1,21,A2*%
%TO.N,unconnected-(A1-Pad21)*%
X134620000Y-48260000D03*
%TO.P,A1,22,A3*%
%TO.N,unconnected-(A1-Pad22)*%
X132080000Y-48260000D03*
%TO.P,A1,23,A4*%
%TO.N,unconnected-(A1-Pad23)*%
X129540000Y-48260000D03*
%TO.P,A1,24,A5*%
%TO.N,unconnected-(A1-Pad24)*%
X127000000Y-48260000D03*
%TO.P,A1,25,A6*%
%TO.N,unconnected-(A1-Pad25)*%
X124460000Y-48260000D03*
%TO.P,A1,26,A7*%
%TO.N,unconnected-(A1-Pad26)*%
X121920000Y-48260000D03*
%TO.P,A1,27,+5V*%
%TO.N,unconnected-(A1-Pad27)*%
X119380000Y-48260000D03*
%TO.P,A1,28,~{RESET}*%
%TO.N,unconnected-(A1-Pad28)*%
X116840000Y-48260000D03*
%TO.P,A1,29,GND*%
%TO.N,GND*%
X114300000Y-48260000D03*
%TO.P,A1,30,VIN*%
%TO.N,+9V*%
X111760000Y-48260000D03*
%TD*%
D16*
%TO.P,R5,1*%
%TO.N,Net-(R4-Pad2)*%
X144780000Y-67310000D03*
D15*
%TO.P,R5,2*%
%TO.N,GND*%
X134620000Y-67310000D03*
%TD*%
D17*
%TO.P,J3,1,Pin_1*%
%TO.N,GND*%
X106680000Y-33020000D03*
D18*
%TO.P,J3,2,Pin_2*%
%TO.N,+9V*%
X106680000Y-35520000D03*
%TD*%
D19*
%TO.P,Q1,1,E*%
%TO.N,Net-(Q1-Pad1)*%
X130810000Y-75565000D03*
D20*
%TO.P,Q1,2,B*%
%TO.N,/D8*%
X128270000Y-73025000D03*
%TO.P,Q1,3,C*%
%TO.N,Net-(BZ1-Pad2)*%
X125730000Y-75565000D03*
%TD*%
D14*
%TO.P,C1,1*%
%TO.N,Net-(C1-Pad1)*%
X116840000Y-33020000D03*
D16*
%TO.P,C1,2*%
%TO.N,GND*%
X114340000Y-33020000D03*
%TD*%
D21*
%TO.P,BZ1,1,-*%
%TO.N,+9V*%
X111760000Y-75565000D03*
D22*
%TO.P,BZ1,2,+*%
%TO.N,Net-(BZ1-Pad2)*%
X119360000Y-75565000D03*
%TD*%
D16*
%TO.P,R1,1*%
%TO.N,+3V3*%
X126365000Y-43180000D03*
D15*
%TO.P,R1,2*%
%TO.N,Net-(C1-Pad1)*%
X126365000Y-33020000D03*
%TD*%
D16*
%TO.P,R2,1*%
%TO.N,Net-(C1-Pad1)*%
X121920000Y-33020000D03*
D15*
%TO.P,R2,2*%
%TO.N,GND*%
X121920000Y-43180000D03*
%TD*%
D16*
%TO.P,R4,1*%
%TO.N,Net-(Q1-Pad1)*%
X134620000Y-73660000D03*
D15*
%TO.P,R4,2*%
%TO.N,Net-(R4-Pad2)*%
X144780000Y-73660000D03*
%TD*%
D16*
%TO.P,R3,1*%
%TO.N,+9V*%
X116840000Y-67310000D03*
D15*
%TO.P,R3,2*%
%TO.N,Net-(BZ1-Pad2)*%
X127000000Y-67310000D03*
%TD*%
D16*
%TO.P,R6,1*%
%TO.N,/A0*%
X139700000Y-45085000D03*
D15*
%TO.P,R6,2*%
%TO.N,GND*%
X129540000Y-45085000D03*
%TD*%
D23*
%TO.P,J2,1,Pin_1*%
%TO.N,+3V3*%
X142200000Y-41275000D03*
D24*
%TO.P,J2,2,Pin_2*%
%TO.N,/A0*%
X139700000Y-41275000D03*
%TD*%
D25*
%TO.N,GND*%
X142240000Y-45720000D03*
X142240000Y-44450000D03*
%TD*%
D26*
%TO.N,+3V3*%
X129595000Y-39950000D02*
X126365000Y-43180000D01*
X140875000Y-39950000D02*
X129595000Y-39950000D01*
X142200000Y-41275000D02*
X140875000Y-39950000D01*
%TO.N,Net-(BZ1-Pad2)*%
X125730000Y-75565000D02*
X119360000Y-75565000D01*
X127000000Y-74295000D02*
X125730000Y-75565000D01*
X127000000Y-67310000D02*
X127000000Y-74295000D01*
%TO.N,Net-(Q1-Pad1)*%
X133985000Y-74295000D02*
X132715000Y-75565000D01*
X132715000Y-75565000D02*
X130810000Y-75565000D01*
X133985000Y-74295000D02*
X134620000Y-73660000D01*
%TO.N,+3V3*%
X144780000Y-43855000D02*
X142200000Y-41275000D01*
X144780000Y-48260000D02*
X144780000Y-43855000D01*
%TO.N,/A0*%
X139700000Y-48260000D02*
X139700000Y-41275000D01*
%TO.N,Net-(R4-Pad2)*%
X144780000Y-73660000D02*
X144780000Y-67310000D01*
%TO.N,+9V*%
X113030000Y-67310000D02*
X116840000Y-67310000D01*
X111760000Y-66040000D02*
X113030000Y-67310000D01*
X111760000Y-66040000D02*
X111760000Y-74930000D01*
X109855000Y-50165000D02*
X109855000Y-64135000D01*
X109855000Y-64135000D02*
X111760000Y-66040000D01*
X111760000Y-48260000D02*
X109855000Y-50165000D01*
%TO.N,GND*%
X114300000Y-45720000D02*
X114340000Y-45680000D01*
%TO.N,/A0*%
X139700000Y-45720000D02*
X139700000Y-43220000D01*
X139700000Y-43220000D02*
X139740000Y-43180000D01*
X139700000Y-48260000D02*
X139700000Y-45720000D01*
%TO.N,+9V*%
X106680000Y-35520000D02*
X111720000Y-35520000D01*
X111720000Y-35520000D02*
X111760000Y-35560000D01*
X111760000Y-35560000D02*
X111760000Y-48260000D01*
%TO.N,Net-(C1-Pad1)*%
X116840000Y-33020000D02*
X121920000Y-33020000D01*
X132080000Y-33020000D02*
X132160000Y-32940000D01*
X121920000Y-33020000D02*
X127000000Y-33020000D01*
X127000000Y-33020000D02*
X132080000Y-33020000D01*
%TD*%
%TA.AperFunction,Conductor*%
%TO.N,GND*%
G36*
X140895552Y-42332268D02*
G01*
X140910254Y-42351580D01*
X141000967Y-42498648D01*
X141000970Y-42498652D01*
X141126348Y-42624030D01*
X141277262Y-42717115D01*
X141445574Y-42772887D01*
X141549455Y-42783500D01*
X142761232Y-42783499D01*
X142828271Y-42803184D01*
X142848913Y-42819818D01*
X144110181Y-44081085D01*
X144143666Y-44142408D01*
X144146500Y-44168766D01*
X144146500Y-47041647D01*
X144126815Y-47108686D01*
X144093624Y-47143221D01*
X143935699Y-47253802D01*
X143773806Y-47415695D01*
X143642476Y-47603251D01*
X143622382Y-47646345D01*
X143576209Y-47698784D01*
X143509016Y-47717936D01*
X143442135Y-47697720D01*
X143397618Y-47646345D01*
X143377523Y-47603251D01*
X143246198Y-47415700D01*
X143084300Y-47253802D01*
X142896749Y-47122477D01*
X142896745Y-47122475D01*
X142689249Y-47025718D01*
X142689238Y-47025714D01*
X142468089Y-46966457D01*
X142468081Y-46966456D01*
X142240002Y-46946502D01*
X142239998Y-46946502D01*
X142011918Y-46966456D01*
X142011910Y-46966457D01*
X141790761Y-47025714D01*
X141790750Y-47025718D01*
X141583254Y-47122475D01*
X141583252Y-47122476D01*
X141512856Y-47171767D01*
X141395700Y-47253802D01*
X141395698Y-47253803D01*
X141395695Y-47253806D01*
X141233806Y-47415695D01*
X141102476Y-47603251D01*
X141082382Y-47646345D01*
X141036209Y-47698784D01*
X140969016Y-47717936D01*
X140902135Y-47697720D01*
X140857618Y-47646345D01*
X140837523Y-47603251D01*
X140706198Y-47415700D01*
X140544300Y-47253802D01*
X140386376Y-47143221D01*
X140342751Y-47088644D01*
X140333500Y-47041647D01*
X140333500Y-46303352D01*
X140353185Y-46236313D01*
X140386373Y-46201779D01*
X140544300Y-46091198D01*
X140706198Y-45929300D01*
X140837523Y-45741749D01*
X140934284Y-45534243D01*
X140993543Y-45313087D01*
X141013498Y-45085000D01*
X140993543Y-44856913D01*
X140934284Y-44635757D01*
X140837523Y-44428251D01*
X140706198Y-44240700D01*
X140544300Y-44078802D01*
X140386376Y-43968221D01*
X140342751Y-43913644D01*
X140333500Y-43866647D01*
X140333500Y-43429304D01*
X140343699Y-43380056D01*
X140353181Y-43358144D01*
X140353181Y-43358142D01*
X140369866Y-43252804D01*
X140378220Y-43200057D01*
X140363157Y-43040707D01*
X140340830Y-42978693D01*
X140333500Y-42936690D01*
X140333500Y-42699574D01*
X140353185Y-42632535D01*
X140392483Y-42593986D01*
X140510730Y-42521179D01*
X140684324Y-42368398D01*
X140708242Y-42338775D01*
X140765670Y-42298985D01*
X140835497Y-42296558D01*
X140895552Y-42332268D01*
G37*
%TD.AperFunction*%
%TA.AperFunction,Conductor*%
G36*
X134902539Y-23460185D02*
G01*
X134948294Y-23512989D01*
X134959500Y-23564500D01*
X134959500Y-24439500D01*
X134959500Y-24440000D01*
X134959500Y-24492727D01*
X134986793Y-24594587D01*
X135039520Y-24685913D01*
X135114087Y-24760480D01*
X135205413Y-24813207D01*
X135307273Y-24840500D01*
X135307275Y-24840500D01*
X139012725Y-24840500D01*
X139012727Y-24840500D01*
X139114587Y-24813207D01*
X139205913Y-24760480D01*
X139280480Y-24685913D01*
X139333207Y-24594587D01*
X139360500Y-24492727D01*
X139360500Y-24440000D01*
X139360500Y-24439500D01*
X139360500Y-23564500D01*
X139380185Y-23497461D01*
X139432989Y-23451706D01*
X139484500Y-23440500D01*
X143659899Y-23440500D01*
X156086046Y-23494955D01*
X156152996Y-23514933D01*
X156198519Y-23567937D01*
X156209500Y-23618954D01*
X156209500Y-81790500D01*
X156189815Y-81857539D01*
X156137011Y-81903294D01*
X156085500Y-81914500D01*
X101724500Y-81914500D01*
X101657461Y-81894815D01*
X101611706Y-81842011D01*
X101600500Y-81790500D01*
X101600500Y-35462135D01*
X105167816Y-35462135D01*
X105177630Y-35693172D01*
X105177630Y-35693178D01*
X105226351Y-35919240D01*
X105312572Y-36133809D01*
X105312574Y-36133813D01*
X105433821Y-36330730D01*
X105586602Y-36504324D01*
X105586605Y-36504327D01*
X105766517Y-36649595D01*
X105766523Y-36649600D01*
X105875142Y-36710278D01*
X105968409Y-36762380D01*
X106186450Y-36839419D01*
X106186456Y-36839420D01*
X106414365Y-36878499D01*
X106414373Y-36878499D01*
X106414375Y-36878500D01*
X106414376Y-36878500D01*
X106887719Y-36878500D01*
X107060413Y-36863802D01*
X107060416Y-36863801D01*
X107060418Y-36863801D01*
X107284207Y-36805530D01*
X107284208Y-36805529D01*
X107284210Y-36805529D01*
X107494919Y-36710283D01*
X107494922Y-36710280D01*
X107494929Y-36710278D01*
X107686523Y-36580783D01*
X107853476Y-36420772D01*
X107990985Y-36234847D01*
X107997625Y-36221676D01*
X108045383Y-36170677D01*
X108108349Y-36153500D01*
X111002500Y-36153500D01*
X111069539Y-36173185D01*
X111115294Y-36225989D01*
X111126500Y-36277500D01*
X111126500Y-47041647D01*
X111106815Y-47108686D01*
X111073624Y-47143221D01*
X110915699Y-47253802D01*
X110753806Y-47415695D01*
X110622476Y-47603252D01*
X110622475Y-47603254D01*
X110525718Y-47810750D01*
X110525714Y-47810761D01*
X110466457Y-48031910D01*
X110466456Y-48031918D01*
X110446502Y-48259998D01*
X110446502Y-48260001D01*
X110466456Y-48488081D01*
X110466458Y-48488091D01*
X110483758Y-48552655D01*
X110482095Y-48622504D01*
X110451664Y-48672429D01*
X109466179Y-49657914D01*
X109453820Y-49667818D01*
X109453993Y-49668027D01*
X109447983Y-49672999D01*
X109400015Y-49724079D01*
X109378872Y-49745222D01*
X109378857Y-49745239D01*
X109374531Y-49750814D01*
X109370747Y-49755244D01*
X109338419Y-49789671D01*
X109338412Y-49789681D01*
X109328579Y-49807567D01*
X109317903Y-49823820D01*
X109305386Y-49839957D01*
X109305385Y-49839959D01*
X109286625Y-49883310D01*
X109284055Y-49888556D01*
X109261303Y-49929941D01*
X109261303Y-49929942D01*
X109256225Y-49949720D01*
X109249925Y-49968122D01*
X109241818Y-49986857D01*
X109234431Y-50033495D01*
X109233246Y-50039216D01*
X109221500Y-50084965D01*
X109221500Y-50105384D01*
X109219973Y-50124783D01*
X109216780Y-50144941D01*
X109216780Y-50144942D01*
X109221225Y-50191966D01*
X109221500Y-50197804D01*
X109221500Y-64051366D01*
X109219761Y-64067113D01*
X109220032Y-64067139D01*
X109219298Y-64074905D01*
X109221500Y-64144957D01*
X109221500Y-64174859D01*
X109222384Y-64181856D01*
X109222842Y-64187679D01*
X109224326Y-64234889D01*
X109224327Y-64234891D01*
X109230022Y-64254495D01*
X109233967Y-64273542D01*
X109236526Y-64293797D01*
X109236527Y-64293800D01*
X109236528Y-64293803D01*
X109253914Y-64337716D01*
X109255806Y-64343244D01*
X109268981Y-64388592D01*
X109279372Y-64406162D01*
X109287932Y-64423635D01*
X109295447Y-64442617D01*
X109323209Y-64480827D01*
X109326416Y-64485710D01*
X109350458Y-64526362D01*
X109350462Y-64526366D01*
X109364889Y-64540793D01*
X109377526Y-64555588D01*
X109389528Y-64572107D01*
X109425931Y-64602222D01*
X109430231Y-64606135D01*
X110386669Y-65562573D01*
X111090181Y-66266085D01*
X111123666Y-66327408D01*
X111126500Y-66353766D01*
X111126500Y-73932500D01*
X111106815Y-73999539D01*
X111054011Y-74045294D01*
X111002500Y-74056500D01*
X110711345Y-74056500D01*
X110650797Y-74063011D01*
X110650795Y-74063011D01*
X110513795Y-74114111D01*
X110396739Y-74201739D01*
X110309111Y-74318795D01*
X110258011Y-74455795D01*
X110258011Y-74455797D01*
X110251500Y-74516345D01*
X110251500Y-76613654D01*
X110258011Y-76674202D01*
X110258011Y-76674204D01*
X110300896Y-76789179D01*
X110309111Y-76811204D01*
X110396739Y-76928261D01*
X110513796Y-77015889D01*
X110650799Y-77066989D01*
X110678050Y-77069918D01*
X110711345Y-77073499D01*
X110711362Y-77073500D01*
X112808638Y-77073500D01*
X112808654Y-77073499D01*
X112835692Y-77070591D01*
X112869201Y-77066989D01*
X113006204Y-77015889D01*
X113123261Y-76928261D01*
X113210889Y-76811204D01*
X113261989Y-76674201D01*
X113266372Y-76633436D01*
X113268499Y-76613654D01*
X113268500Y-76613637D01*
X113268500Y-75565000D01*
X117846835Y-75565000D01*
X117865465Y-75801714D01*
X117920895Y-76032595D01*
X117920895Y-76032597D01*
X118011757Y-76251959D01*
X118011759Y-76251962D01*
X118135820Y-76454410D01*
X118135821Y-76454413D01*
X118135824Y-76454416D01*
X118290031Y-76634969D01*
X118429797Y-76754340D01*
X118470586Y-76789178D01*
X118470589Y-76789179D01*
X118673037Y-76913240D01*
X118673040Y-76913242D01*
X118892403Y-77004104D01*
X118892404Y-77004104D01*
X118892406Y-77004105D01*
X119123289Y-77059535D01*
X119360000Y-77078165D01*
X119596711Y-77059535D01*
X119827594Y-77004105D01*
X119827596Y-77004104D01*
X119827597Y-77004104D01*
X120046959Y-76913242D01*
X120046960Y-76913241D01*
X120046963Y-76913240D01*
X120249416Y-76789176D01*
X120429969Y-76634969D01*
X120584176Y-76454416D01*
X120669616Y-76314992D01*
X120704719Y-76257710D01*
X120756531Y-76210835D01*
X120810446Y-76198500D01*
X124757584Y-76198500D01*
X124824623Y-76218185D01*
X124856538Y-76247773D01*
X124859702Y-76251963D01*
X124907299Y-76314991D01*
X125059118Y-76453392D01*
X125233782Y-76561540D01*
X125425345Y-76635751D01*
X125627282Y-76673500D01*
X125627284Y-76673500D01*
X125832716Y-76673500D01*
X125832718Y-76673500D01*
X126034655Y-76635751D01*
X126226218Y-76561540D01*
X126400882Y-76453392D01*
X126552701Y-76314991D01*
X126676503Y-76151050D01*
X126768074Y-75967152D01*
X126824294Y-75769559D01*
X126843249Y-75565000D01*
X126838339Y-75512016D01*
X129497719Y-75512016D01*
X129507792Y-75723474D01*
X129526773Y-75801714D01*
X129557701Y-75929200D01*
X129557701Y-75929202D01*
X129645643Y-76121770D01*
X129645647Y-76121776D01*
X129768436Y-76294210D01*
X129768442Y-76294216D01*
X129921657Y-76440306D01*
X130099741Y-76554753D01*
X130099746Y-76554756D01*
X130296279Y-76633436D01*
X130400215Y-76653468D01*
X130504150Y-76673500D01*
X130504151Y-76673500D01*
X131062797Y-76673500D01*
X131062803Y-76673500D01*
X131220739Y-76658419D01*
X131423862Y-76598777D01*
X131612026Y-76501771D01*
X131778432Y-76370908D01*
X131890741Y-76241296D01*
X131949519Y-76203523D01*
X131984454Y-76198500D01*
X132631366Y-76198500D01*
X132647113Y-76200238D01*
X132647139Y-76199968D01*
X132654905Y-76200701D01*
X132654909Y-76200702D01*
X132724958Y-76198500D01*
X132754856Y-76198500D01*
X132754857Y-76198500D01*
X132756222Y-76198327D01*
X132761862Y-76197614D01*
X132767685Y-76197156D01*
X132793708Y-76196338D01*
X132814890Y-76195673D01*
X132824681Y-76192827D01*
X132834481Y-76189980D01*
X132853538Y-76186032D01*
X132873797Y-76183474D01*
X132917721Y-76166082D01*
X132923221Y-76164199D01*
X132968593Y-76151018D01*
X132986165Y-76140625D01*
X133003632Y-76132068D01*
X133022617Y-76124552D01*
X133060826Y-76096790D01*
X133065704Y-76093585D01*
X133106362Y-76069542D01*
X133120802Y-76055100D01*
X133135592Y-76042470D01*
X133152107Y-76030472D01*
X133182222Y-75994067D01*
X133186126Y-75989776D01*
X134207569Y-74968333D01*
X134268890Y-74934850D01*
X134327341Y-74936241D01*
X134345979Y-74941234D01*
X134391913Y-74953543D01*
X134554832Y-74967796D01*
X134619998Y-74973498D01*
X134620000Y-74973498D01*
X134620002Y-74973498D01*
X134679013Y-74968335D01*
X134848087Y-74953543D01*
X135069243Y-74894284D01*
X135276749Y-74797523D01*
X135464300Y-74666198D01*
X135626198Y-74504300D01*
X135757523Y-74316749D01*
X135854284Y-74109243D01*
X135913543Y-73888087D01*
X135933498Y-73660001D01*
X143466502Y-73660001D01*
X143486456Y-73888081D01*
X143486457Y-73888089D01*
X143545714Y-74109238D01*
X143545718Y-74109249D01*
X143641688Y-74315057D01*
X143642477Y-74316749D01*
X143773802Y-74504300D01*
X143935700Y-74666198D01*
X144123251Y-74797523D01*
X144205305Y-74835785D01*
X144330750Y-74894281D01*
X144330752Y-74894281D01*
X144330757Y-74894284D01*
X144551913Y-74953543D01*
X144714832Y-74967796D01*
X144779998Y-74973498D01*
X144780000Y-74973498D01*
X144780002Y-74973498D01*
X144839013Y-74968335D01*
X145008087Y-74953543D01*
X145229243Y-74894284D01*
X145436749Y-74797523D01*
X145624300Y-74666198D01*
X145786198Y-74504300D01*
X145917523Y-74316749D01*
X146014284Y-74109243D01*
X146073543Y-73888087D01*
X146093498Y-73660000D01*
X146073543Y-73431913D01*
X146014284Y-73210757D01*
X145917523Y-73003251D01*
X145786198Y-72815700D01*
X145624300Y-72653802D01*
X145580099Y-72622852D01*
X145466376Y-72543221D01*
X145422751Y-72488644D01*
X145413500Y-72441647D01*
X145413500Y-68528352D01*
X145433185Y-68461313D01*
X145466373Y-68426779D01*
X145624300Y-68316198D01*
X145786198Y-68154300D01*
X145917523Y-67966749D01*
X146014284Y-67759243D01*
X146073543Y-67538087D01*
X146093498Y-67310000D01*
X146073543Y-67081913D01*
X146014284Y-66860757D01*
X145917523Y-66653251D01*
X145786198Y-66465700D01*
X145624300Y-66303802D01*
X145436749Y-66172477D01*
X145436745Y-66172475D01*
X145229249Y-66075718D01*
X145229238Y-66075714D01*
X145008089Y-66016457D01*
X145008081Y-66016456D01*
X144780002Y-65996502D01*
X144779998Y-65996502D01*
X144551918Y-66016456D01*
X144551910Y-66016457D01*
X144330761Y-66075714D01*
X144330750Y-66075718D01*
X144123254Y-66172475D01*
X144123252Y-66172476D01*
X144123251Y-66172477D01*
X143935700Y-66303802D01*
X143935698Y-66303803D01*
X143935695Y-66303806D01*
X143773806Y-66465695D01*
X143642476Y-66653252D01*
X143642475Y-66653254D01*
X143545718Y-66860750D01*
X143545714Y-66860761D01*
X143486457Y-67081910D01*
X143486456Y-67081918D01*
X143466502Y-67309998D01*
X143466502Y-67310001D01*
X143486456Y-67538081D01*
X143486457Y-67538089D01*
X143545714Y-67759238D01*
X143545718Y-67759249D01*
X143631635Y-67943499D01*
X143642477Y-67966749D01*
X143773802Y-68154300D01*
X143935700Y-68316198D01*
X144093625Y-68426779D01*
X144137249Y-68481354D01*
X144146500Y-68528352D01*
X144146500Y-72441647D01*
X144126815Y-72508686D01*
X144093624Y-72543221D01*
X143935699Y-72653802D01*
X143773806Y-72815695D01*
X143773803Y-72815698D01*
X143773802Y-72815700D01*
X143691767Y-72932856D01*
X143642476Y-73003252D01*
X143642475Y-73003254D01*
X143545718Y-73210750D01*
X143545714Y-73210761D01*
X143486457Y-73431910D01*
X143486456Y-73431918D01*
X143466502Y-73659998D01*
X143466502Y-73660001D01*
X135933498Y-73660001D01*
X135933498Y-73660000D01*
X135913543Y-73431913D01*
X135854284Y-73210757D01*
X135757523Y-73003251D01*
X135626198Y-72815700D01*
X135464300Y-72653802D01*
X135276749Y-72522477D01*
X135276745Y-72522475D01*
X135069249Y-72425718D01*
X135069238Y-72425714D01*
X134848089Y-72366457D01*
X134848081Y-72366456D01*
X134620002Y-72346502D01*
X134619998Y-72346502D01*
X134391918Y-72366456D01*
X134391910Y-72366457D01*
X134170761Y-72425714D01*
X134170750Y-72425718D01*
X133963254Y-72522475D01*
X133963252Y-72522476D01*
X133892856Y-72571767D01*
X133775700Y-72653802D01*
X133775698Y-72653803D01*
X133775695Y-72653806D01*
X133613806Y-72815695D01*
X133613803Y-72815698D01*
X133613802Y-72815700D01*
X133531767Y-72932856D01*
X133482476Y-73003252D01*
X133482475Y-73003254D01*
X133385718Y-73210750D01*
X133385714Y-73210761D01*
X133326457Y-73431910D01*
X133326456Y-73431918D01*
X133306502Y-73659998D01*
X133306502Y-73660001D01*
X133316562Y-73774993D01*
X133326457Y-73888087D01*
X133338941Y-73934680D01*
X133343758Y-73952655D01*
X133342095Y-74022504D01*
X133311664Y-74072429D01*
X132488914Y-74895181D01*
X132427591Y-74928666D01*
X132401233Y-74931500D01*
X131983644Y-74931500D01*
X131916605Y-74911815D01*
X131882637Y-74879428D01*
X131877554Y-74872290D01*
X131851559Y-74835785D01*
X131811431Y-74797523D01*
X131698342Y-74689693D01*
X131520258Y-74575246D01*
X131520255Y-74575245D01*
X131520254Y-74575244D01*
X131373132Y-74516345D01*
X131323719Y-74496563D01*
X131115850Y-74456500D01*
X131115849Y-74456500D01*
X130557197Y-74456500D01*
X130399261Y-74471581D01*
X130399257Y-74471582D01*
X130196140Y-74531222D01*
X130007975Y-74628228D01*
X129841565Y-74759094D01*
X129702938Y-74919077D01*
X129702930Y-74919088D01*
X129597088Y-75102415D01*
X129527847Y-75302471D01*
X129527847Y-75302473D01*
X129497719Y-75512016D01*
X126838339Y-75512016D01*
X126830187Y-75424044D01*
X126843602Y-75355478D01*
X126865974Y-75324928D01*
X127388815Y-74802087D01*
X127401180Y-74792183D01*
X127401006Y-74791973D01*
X127407012Y-74787003D01*
X127407018Y-74787000D01*
X127454999Y-74735904D01*
X127476134Y-74714770D01*
X127480463Y-74709187D01*
X127484242Y-74704763D01*
X127516586Y-74670321D01*
X127526423Y-74652424D01*
X127537097Y-74636174D01*
X127549613Y-74620041D01*
X127568372Y-74576689D01*
X127570933Y-74571462D01*
X127593695Y-74530060D01*
X127598774Y-74510274D01*
X127605072Y-74491882D01*
X127613181Y-74473145D01*
X127620569Y-74426497D01*
X127621751Y-74420786D01*
X127633500Y-74375030D01*
X127633500Y-74354615D01*
X127635027Y-74335214D01*
X127638220Y-74315057D01*
X127633775Y-74268033D01*
X127633500Y-74262195D01*
X127633500Y-74148212D01*
X127653185Y-74081173D01*
X127705989Y-74035418D01*
X127775147Y-74025474D01*
X127802290Y-74032584D01*
X127965345Y-74095751D01*
X128167282Y-74133500D01*
X128167284Y-74133500D01*
X128372716Y-74133500D01*
X128372718Y-74133500D01*
X128574655Y-74095751D01*
X128766218Y-74021540D01*
X128940882Y-73913392D01*
X129092701Y-73774991D01*
X129216503Y-73611050D01*
X129308074Y-73427152D01*
X129364294Y-73229559D01*
X129383249Y-73025000D01*
X129364294Y-72820441D01*
X129308074Y-72622848D01*
X129308069Y-72622837D01*
X129216506Y-72438955D01*
X129216501Y-72438947D01*
X129092699Y-72275006D01*
X128940883Y-72136609D01*
X128940882Y-72136608D01*
X128766218Y-72028460D01*
X128574655Y-71954249D01*
X128372718Y-71916500D01*
X128167282Y-71916500D01*
X127965345Y-71954249D01*
X127965340Y-71954250D01*
X127802293Y-72017414D01*
X127732670Y-72023276D01*
X127670930Y-71990565D01*
X127636675Y-71929669D01*
X127633500Y-71901787D01*
X127633500Y-68528352D01*
X127653185Y-68461313D01*
X127686373Y-68426779D01*
X127844300Y-68316198D01*
X128006198Y-68154300D01*
X128137523Y-67966749D01*
X128234284Y-67759243D01*
X128293543Y-67538087D01*
X128313498Y-67310000D01*
X128293543Y-67081913D01*
X128287671Y-67059999D01*
X133341127Y-67059999D01*
X133341128Y-67060000D01*
X134304314Y-67060000D01*
X134292359Y-67071955D01*
X134234835Y-67184852D01*
X134215014Y-67310000D01*
X134234835Y-67435148D01*
X134292359Y-67548045D01*
X134304314Y-67560000D01*
X133341128Y-67560000D01*
X133393730Y-67756317D01*
X133393734Y-67756326D01*
X133489865Y-67962482D01*
X133620342Y-68148820D01*
X133781179Y-68309657D01*
X133967517Y-68440134D01*
X134173673Y-68536265D01*
X134173682Y-68536269D01*
X134369999Y-68588872D01*
X134370000Y-68588871D01*
X134370000Y-67625686D01*
X134381955Y-67637641D01*
X134494852Y-67695165D01*
X134588519Y-67710000D01*
X134651481Y-67710000D01*
X134745148Y-67695165D01*
X134858045Y-67637641D01*
X134870000Y-67625686D01*
X134870000Y-68588872D01*
X135066317Y-68536269D01*
X135066326Y-68536265D01*
X135272482Y-68440134D01*
X135458820Y-68309657D01*
X135619657Y-68148820D01*
X135750134Y-67962482D01*
X135846265Y-67756326D01*
X135846269Y-67756317D01*
X135898872Y-67560000D01*
X134935686Y-67560000D01*
X134947641Y-67548045D01*
X135005165Y-67435148D01*
X135024986Y-67310000D01*
X135005165Y-67184852D01*
X134947641Y-67071955D01*
X134935686Y-67060000D01*
X135898872Y-67060000D01*
X135898872Y-67059999D01*
X135846269Y-66863682D01*
X135846265Y-66863673D01*
X135750134Y-66657517D01*
X135619657Y-66471179D01*
X135458820Y-66310342D01*
X135272482Y-66179865D01*
X135066328Y-66083734D01*
X134870000Y-66031127D01*
X134870000Y-66994314D01*
X134858045Y-66982359D01*
X134745148Y-66924835D01*
X134651481Y-66910000D01*
X134588519Y-66910000D01*
X134494852Y-66924835D01*
X134381955Y-66982359D01*
X134370000Y-66994314D01*
X134370000Y-66031127D01*
X134173671Y-66083734D01*
X133967517Y-66179865D01*
X133781179Y-66310342D01*
X133620342Y-66471179D01*
X133489865Y-66657517D01*
X133393734Y-66863673D01*
X133393730Y-66863682D01*
X133341127Y-67059999D01*
X128287671Y-67059999D01*
X128234284Y-66860757D01*
X128137523Y-66653251D01*
X128006198Y-66465700D01*
X127844300Y-66303802D01*
X127656749Y-66172477D01*
X127656745Y-66172475D01*
X127449249Y-66075718D01*
X127449238Y-66075714D01*
X127228089Y-66016457D01*
X127228081Y-66016456D01*
X127000002Y-65996502D01*
X126999998Y-65996502D01*
X126771918Y-66016456D01*
X126771910Y-66016457D01*
X126550761Y-66075714D01*
X126550750Y-66075718D01*
X126343254Y-66172475D01*
X126343252Y-66172476D01*
X126343251Y-66172477D01*
X126155700Y-66303802D01*
X126155698Y-66303803D01*
X126155695Y-66303806D01*
X125993806Y-66465695D01*
X125862476Y-66653252D01*
X125862475Y-66653254D01*
X125765718Y-66860750D01*
X125765714Y-66860761D01*
X125706457Y-67081910D01*
X125706456Y-67081918D01*
X125686502Y-67309998D01*
X125686502Y-67310001D01*
X125706456Y-67538081D01*
X125706457Y-67538089D01*
X125765714Y-67759238D01*
X125765718Y-67759249D01*
X125851635Y-67943499D01*
X125862477Y-67966749D01*
X125993802Y-68154300D01*
X126155700Y-68316198D01*
X126313625Y-68426779D01*
X126357249Y-68481354D01*
X126366500Y-68528352D01*
X126366500Y-73981232D01*
X126346815Y-74048271D01*
X126330181Y-74068913D01*
X125971507Y-74427586D01*
X125910184Y-74461071D01*
X125861045Y-74461794D01*
X125832723Y-74456500D01*
X125832718Y-74456500D01*
X125627282Y-74456500D01*
X125425345Y-74494249D01*
X125425342Y-74494249D01*
X125425342Y-74494250D01*
X125233779Y-74568461D01*
X125059116Y-74676609D01*
X124907300Y-74815007D01*
X124856538Y-74882227D01*
X124800429Y-74923863D01*
X124757584Y-74931500D01*
X120810446Y-74931500D01*
X120743407Y-74911815D01*
X120704719Y-74872290D01*
X120593275Y-74690432D01*
X120584178Y-74675588D01*
X120584178Y-74675586D01*
X120536733Y-74620036D01*
X120429969Y-74495031D01*
X120289464Y-74375028D01*
X120249413Y-74340821D01*
X120249410Y-74340820D01*
X120046962Y-74216759D01*
X120046959Y-74216757D01*
X119827596Y-74125895D01*
X119596714Y-74070465D01*
X119360000Y-74051835D01*
X119123285Y-74070465D01*
X118892404Y-74125895D01*
X118892402Y-74125895D01*
X118673040Y-74216757D01*
X118673037Y-74216759D01*
X118470589Y-74340820D01*
X118470586Y-74340821D01*
X118290031Y-74495031D01*
X118135821Y-74675586D01*
X118135820Y-74675589D01*
X118011759Y-74878037D01*
X118011757Y-74878040D01*
X117920895Y-75097402D01*
X117920895Y-75097404D01*
X117865465Y-75328285D01*
X117846835Y-75565000D01*
X113268500Y-75565000D01*
X113268500Y-74516362D01*
X113268499Y-74516345D01*
X113265157Y-74485270D01*
X113261989Y-74455799D01*
X113248924Y-74420772D01*
X113231863Y-74375030D01*
X113210889Y-74318796D01*
X113123261Y-74201739D01*
X113006204Y-74114111D01*
X112993139Y-74109238D01*
X112869203Y-74063011D01*
X112808654Y-74056500D01*
X112808638Y-74056500D01*
X112517500Y-74056500D01*
X112450461Y-74036815D01*
X112404706Y-73984011D01*
X112393500Y-73932500D01*
X112393500Y-67868766D01*
X112413185Y-67801727D01*
X112465989Y-67755972D01*
X112535147Y-67746028D01*
X112598703Y-67775053D01*
X112605181Y-67781085D01*
X112610230Y-67786134D01*
X112615802Y-67790456D01*
X112620242Y-67794249D01*
X112654678Y-67826586D01*
X112672567Y-67836420D01*
X112688833Y-67847104D01*
X112704959Y-67859613D01*
X112748298Y-67878367D01*
X112753545Y-67880937D01*
X112794940Y-67903695D01*
X112814718Y-67908773D01*
X112833119Y-67915073D01*
X112851855Y-67923181D01*
X112896362Y-67930229D01*
X112898503Y-67930569D01*
X112904212Y-67931751D01*
X112949970Y-67943500D01*
X112970384Y-67943500D01*
X112989783Y-67945027D01*
X113009943Y-67948220D01*
X113056966Y-67943775D01*
X113062804Y-67943500D01*
X115621648Y-67943500D01*
X115688687Y-67963185D01*
X115723220Y-67996373D01*
X115833802Y-68154300D01*
X115995700Y-68316198D01*
X116183251Y-68447523D01*
X116308091Y-68505736D01*
X116390750Y-68544281D01*
X116390752Y-68544281D01*
X116390757Y-68544284D01*
X116611913Y-68603543D01*
X116774832Y-68617796D01*
X116839998Y-68623498D01*
X116840000Y-68623498D01*
X116840002Y-68623498D01*
X116897021Y-68618509D01*
X117068087Y-68603543D01*
X117289243Y-68544284D01*
X117496749Y-68447523D01*
X117684300Y-68316198D01*
X117846198Y-68154300D01*
X117977523Y-67966749D01*
X118074284Y-67759243D01*
X118133543Y-67538087D01*
X118153498Y-67310000D01*
X118133543Y-67081913D01*
X118074284Y-66860757D01*
X117977523Y-66653251D01*
X117846198Y-66465700D01*
X117684300Y-66303802D01*
X117496749Y-66172477D01*
X117496745Y-66172475D01*
X117289249Y-66075718D01*
X117289238Y-66075714D01*
X117068089Y-66016457D01*
X117068081Y-66016456D01*
X116840002Y-65996502D01*
X116839998Y-65996502D01*
X116611918Y-66016456D01*
X116611910Y-66016457D01*
X116390761Y-66075714D01*
X116390750Y-66075718D01*
X116183254Y-66172475D01*
X116183252Y-66172476D01*
X116183251Y-66172477D01*
X115995700Y-66303802D01*
X115995698Y-66303803D01*
X115995695Y-66303806D01*
X115833806Y-66465695D01*
X115833803Y-66465698D01*
X115833802Y-66465700D01*
X115723220Y-66623625D01*
X115668646Y-66667249D01*
X115621648Y-66676500D01*
X113343767Y-66676500D01*
X113276728Y-66656815D01*
X113256086Y-66640181D01*
X112250106Y-65634201D01*
X112237469Y-65619406D01*
X112225471Y-65602892D01*
X112219976Y-65598347D01*
X112189072Y-65572780D01*
X112184769Y-65568864D01*
X112179770Y-65563865D01*
X112179769Y-65563864D01*
X112178527Y-65562622D01*
X112178501Y-65562597D01*
X111636085Y-65020181D01*
X111602600Y-64958858D01*
X111607584Y-64889166D01*
X111649456Y-64833233D01*
X111714920Y-64808816D01*
X111723766Y-64808500D01*
X112608638Y-64808500D01*
X112608654Y-64808499D01*
X112635692Y-64805591D01*
X112669201Y-64801989D01*
X112806204Y-64750889D01*
X112923261Y-64663261D01*
X113010889Y-64546204D01*
X113061989Y-64409201D01*
X113063569Y-64394500D01*
X113090304Y-64329952D01*
X113147695Y-64290102D01*
X113217521Y-64287606D01*
X113277611Y-64323257D01*
X113288428Y-64336626D01*
X113293802Y-64344300D01*
X113455700Y-64506198D01*
X113643251Y-64637523D01*
X113698445Y-64663260D01*
X113850750Y-64734281D01*
X113850752Y-64734281D01*
X113850757Y-64734284D01*
X114071913Y-64793543D01*
X114234832Y-64807796D01*
X114299998Y-64813498D01*
X114300000Y-64813498D01*
X114300002Y-64813498D01*
X114357139Y-64808499D01*
X114528087Y-64793543D01*
X114749243Y-64734284D01*
X114956749Y-64637523D01*
X115144300Y-64506198D01*
X115306198Y-64344300D01*
X115437523Y-64156749D01*
X115457618Y-64113655D01*
X115503790Y-64061215D01*
X115570983Y-64042063D01*
X115637864Y-64062278D01*
X115682382Y-64113655D01*
X115702477Y-64156749D01*
X115833802Y-64344300D01*
X115995700Y-64506198D01*
X116183251Y-64637523D01*
X116238445Y-64663260D01*
X116390750Y-64734281D01*
X116390752Y-64734281D01*
X116390757Y-64734284D01*
X116611913Y-64793543D01*
X116774832Y-64807796D01*
X116839998Y-64813498D01*
X116840000Y-64813498D01*
X116840002Y-64813498D01*
X116897139Y-64808499D01*
X117068087Y-64793543D01*
X117289243Y-64734284D01*
X117496749Y-64637523D01*
X117684300Y-64506198D01*
X117846198Y-64344300D01*
X117977523Y-64156749D01*
X118002307Y-64103598D01*
X118048479Y-64051159D01*
X118115672Y-64032007D01*
X118182553Y-64052222D01*
X118227071Y-64103599D01*
X118249864Y-64152479D01*
X118249865Y-64152481D01*
X118380342Y-64338820D01*
X118541179Y-64499657D01*
X118727517Y-64630134D01*
X118933673Y-64726265D01*
X118933682Y-64726269D01*
X119129999Y-64778872D01*
X119130000Y-64778871D01*
X119130000Y-63935501D01*
X119237685Y-63984680D01*
X119344237Y-64000000D01*
X119415763Y-64000000D01*
X119522315Y-63984680D01*
X119630000Y-63935501D01*
X119630000Y-64778872D01*
X119826317Y-64726269D01*
X119826326Y-64726265D01*
X120032482Y-64630134D01*
X120218820Y-64499657D01*
X120379657Y-64338820D01*
X120510133Y-64152483D01*
X120532927Y-64103600D01*
X120579098Y-64051160D01*
X120646292Y-64032007D01*
X120713173Y-64052221D01*
X120757691Y-64103596D01*
X120782477Y-64156749D01*
X120913802Y-64344300D01*
X121075700Y-64506198D01*
X121263251Y-64637523D01*
X121318445Y-64663260D01*
X121470750Y-64734281D01*
X121470752Y-64734281D01*
X121470757Y-64734284D01*
X121691913Y-64793543D01*
X121854832Y-64807796D01*
X121919998Y-64813498D01*
X121920000Y-64813498D01*
X121920002Y-64813498D01*
X121977139Y-64808499D01*
X122148087Y-64793543D01*
X122369243Y-64734284D01*
X122576749Y-64637523D01*
X122764300Y-64506198D01*
X122926198Y-64344300D01*
X123057523Y-64156749D01*
X123077618Y-64113655D01*
X123123790Y-64061215D01*
X123190983Y-64042063D01*
X123257864Y-64062278D01*
X123302382Y-64113655D01*
X123322477Y-64156749D01*
X123453802Y-64344300D01*
X123615700Y-64506198D01*
X123803251Y-64637523D01*
X123858445Y-64663260D01*
X124010750Y-64734281D01*
X124010752Y-64734281D01*
X124010757Y-64734284D01*
X124231913Y-64793543D01*
X124394832Y-64807796D01*
X124459998Y-64813498D01*
X124460000Y-64813498D01*
X124460002Y-64813498D01*
X124517139Y-64808499D01*
X124688087Y-64793543D01*
X124909243Y-64734284D01*
X125116749Y-64637523D01*
X125304300Y-64506198D01*
X125466198Y-64344300D01*
X125597523Y-64156749D01*
X125617618Y-64113655D01*
X125663790Y-64061215D01*
X125730983Y-64042063D01*
X125797864Y-64062278D01*
X125842382Y-64113655D01*
X125862477Y-64156749D01*
X125993802Y-64344300D01*
X126155700Y-64506198D01*
X126343251Y-64637523D01*
X126398445Y-64663260D01*
X126550750Y-64734281D01*
X126550752Y-64734281D01*
X126550757Y-64734284D01*
X126771913Y-64793543D01*
X126934832Y-64807796D01*
X126999998Y-64813498D01*
X127000000Y-64813498D01*
X127000002Y-64813498D01*
X127057139Y-64808499D01*
X127228087Y-64793543D01*
X127449243Y-64734284D01*
X127656749Y-64637523D01*
X127844300Y-64506198D01*
X128006198Y-64344300D01*
X128137523Y-64156749D01*
X128157618Y-64113655D01*
X128203790Y-64061215D01*
X128270983Y-64042063D01*
X128337864Y-64062278D01*
X128382382Y-64113655D01*
X128402477Y-64156749D01*
X128533802Y-64344300D01*
X128695700Y-64506198D01*
X128883251Y-64637523D01*
X128938445Y-64663260D01*
X129090750Y-64734281D01*
X129090752Y-64734281D01*
X129090757Y-64734284D01*
X129311913Y-64793543D01*
X129474832Y-64807796D01*
X129539998Y-64813498D01*
X129540000Y-64813498D01*
X129540002Y-64813498D01*
X129597139Y-64808499D01*
X129768087Y-64793543D01*
X129989243Y-64734284D01*
X130196749Y-64637523D01*
X130384300Y-64506198D01*
X130546198Y-64344300D01*
X130677523Y-64156749D01*
X130697618Y-64113655D01*
X130743790Y-64061215D01*
X130810983Y-64042063D01*
X130877864Y-64062278D01*
X130922382Y-64113655D01*
X130942477Y-64156749D01*
X131073802Y-64344300D01*
X131235700Y-64506198D01*
X131423251Y-64637523D01*
X131478445Y-64663260D01*
X131630750Y-64734281D01*
X131630752Y-64734281D01*
X131630757Y-64734284D01*
X131851913Y-64793543D01*
X132014832Y-64807796D01*
X132079998Y-64813498D01*
X132080000Y-64813498D01*
X132080002Y-64813498D01*
X132137139Y-64808499D01*
X132308087Y-64793543D01*
X132529243Y-64734284D01*
X132736749Y-64637523D01*
X132924300Y-64506198D01*
X133086198Y-64344300D01*
X133217523Y-64156749D01*
X133237618Y-64113655D01*
X133283790Y-64061215D01*
X133350983Y-64042063D01*
X133417864Y-64062278D01*
X133462382Y-64113655D01*
X133482477Y-64156749D01*
X133613802Y-64344300D01*
X133775700Y-64506198D01*
X133963251Y-64637523D01*
X134018445Y-64663260D01*
X134170750Y-64734281D01*
X134170752Y-64734281D01*
X134170757Y-64734284D01*
X134391913Y-64793543D01*
X134554832Y-64807796D01*
X134619998Y-64813498D01*
X134620000Y-64813498D01*
X134620002Y-64813498D01*
X134677139Y-64808499D01*
X134848087Y-64793543D01*
X135069243Y-64734284D01*
X135276749Y-64637523D01*
X135464300Y-64506198D01*
X135626198Y-64344300D01*
X135757523Y-64156749D01*
X135777618Y-64113655D01*
X135823790Y-64061215D01*
X135890983Y-64042063D01*
X135957864Y-64062278D01*
X136002382Y-64113655D01*
X136022477Y-64156749D01*
X136153802Y-64344300D01*
X136315700Y-64506198D01*
X136503251Y-64637523D01*
X136558445Y-64663260D01*
X136710750Y-64734281D01*
X136710752Y-64734281D01*
X136710757Y-64734284D01*
X136931913Y-64793543D01*
X137094832Y-64807796D01*
X137159998Y-64813498D01*
X137160000Y-64813498D01*
X137160002Y-64813498D01*
X137217139Y-64808499D01*
X137388087Y-64793543D01*
X137609243Y-64734284D01*
X137816749Y-64637523D01*
X138004300Y-64506198D01*
X138166198Y-64344300D01*
X138297523Y-64156749D01*
X138317618Y-64113655D01*
X138363790Y-64061215D01*
X138430983Y-64042063D01*
X138497864Y-64062278D01*
X138542382Y-64113655D01*
X138562477Y-64156749D01*
X138693802Y-64344300D01*
X138855700Y-64506198D01*
X139043251Y-64637523D01*
X139098445Y-64663260D01*
X139250750Y-64734281D01*
X139250752Y-64734281D01*
X139250757Y-64734284D01*
X139471913Y-64793543D01*
X139634832Y-64807796D01*
X139699998Y-64813498D01*
X139700000Y-64813498D01*
X139700002Y-64813498D01*
X139757139Y-64808499D01*
X139928087Y-64793543D01*
X140149243Y-64734284D01*
X140356749Y-64637523D01*
X140544300Y-64506198D01*
X140706198Y-64344300D01*
X140837523Y-64156749D01*
X140857618Y-64113655D01*
X140903790Y-64061215D01*
X140970983Y-64042063D01*
X141037864Y-64062278D01*
X141082382Y-64113655D01*
X141102477Y-64156749D01*
X141233802Y-64344300D01*
X141395700Y-64506198D01*
X141583251Y-64637523D01*
X141638445Y-64663260D01*
X141790750Y-64734281D01*
X141790752Y-64734281D01*
X141790757Y-64734284D01*
X142011913Y-64793543D01*
X142174832Y-64807796D01*
X142239998Y-64813498D01*
X142240000Y-64813498D01*
X142240002Y-64813498D01*
X142297139Y-64808499D01*
X142468087Y-64793543D01*
X142689243Y-64734284D01*
X142896749Y-64637523D01*
X143084300Y-64506198D01*
X143246198Y-64344300D01*
X143377523Y-64156749D01*
X143397618Y-64113655D01*
X143443790Y-64061215D01*
X143510983Y-64042063D01*
X143577864Y-64062278D01*
X143622382Y-64113655D01*
X143642477Y-64156749D01*
X143773802Y-64344300D01*
X143935700Y-64506198D01*
X144123251Y-64637523D01*
X144178445Y-64663260D01*
X144330750Y-64734281D01*
X144330752Y-64734281D01*
X144330757Y-64734284D01*
X144551913Y-64793543D01*
X144714832Y-64807796D01*
X144779998Y-64813498D01*
X144780000Y-64813498D01*
X144780002Y-64813498D01*
X144837139Y-64808499D01*
X145008087Y-64793543D01*
X145229243Y-64734284D01*
X145436749Y-64637523D01*
X145624300Y-64506198D01*
X145786198Y-64344300D01*
X145917523Y-64156749D01*
X145937618Y-64113655D01*
X145983790Y-64061215D01*
X146050983Y-64042063D01*
X146117864Y-64062278D01*
X146162382Y-64113655D01*
X146182477Y-64156749D01*
X146313802Y-64344300D01*
X146475700Y-64506198D01*
X146663251Y-64637523D01*
X146718445Y-64663260D01*
X146870750Y-64734281D01*
X146870752Y-64734281D01*
X146870757Y-64734284D01*
X147091913Y-64793543D01*
X147254832Y-64807796D01*
X147319998Y-64813498D01*
X147320000Y-64813498D01*
X147320002Y-64813498D01*
X147377139Y-64808499D01*
X147548087Y-64793543D01*
X147769243Y-64734284D01*
X147976749Y-64637523D01*
X148164300Y-64506198D01*
X148326198Y-64344300D01*
X148457523Y-64156749D01*
X148554284Y-63949243D01*
X148613543Y-63728087D01*
X148633498Y-63500000D01*
X148613543Y-63271913D01*
X148554284Y-63050757D01*
X148457523Y-62843251D01*
X148326198Y-62655700D01*
X148164300Y-62493802D01*
X147976749Y-62362477D01*
X147976745Y-62362475D01*
X147769249Y-62265718D01*
X147769238Y-62265714D01*
X147548089Y-62206457D01*
X147548081Y-62206456D01*
X147320002Y-62186502D01*
X147319998Y-62186502D01*
X147091918Y-62206456D01*
X147091910Y-62206457D01*
X146870761Y-62265714D01*
X146870750Y-62265718D01*
X146663254Y-62362475D01*
X146663252Y-62362476D01*
X146663251Y-62362477D01*
X146475700Y-62493802D01*
X146475698Y-62493803D01*
X146475695Y-62493806D01*
X146313806Y-62655695D01*
X146182476Y-62843251D01*
X146162382Y-62886345D01*
X146116209Y-62938784D01*
X146049016Y-62957936D01*
X145982135Y-62937720D01*
X145937618Y-62886345D01*
X145917523Y-62843251D01*
X145786198Y-62655700D01*
X145624300Y-62493802D01*
X145436749Y-62362477D01*
X145436745Y-62362475D01*
X145229249Y-62265718D01*
X145229238Y-62265714D01*
X145008089Y-62206457D01*
X145008081Y-62206456D01*
X144780002Y-62186502D01*
X144779998Y-62186502D01*
X144551918Y-62206456D01*
X144551910Y-62206457D01*
X144330761Y-62265714D01*
X144330750Y-62265718D01*
X144123254Y-62362475D01*
X144123252Y-62362476D01*
X144123251Y-62362477D01*
X143935700Y-62493802D01*
X143935698Y-62493803D01*
X143935695Y-62493806D01*
X143773806Y-62655695D01*
X143642476Y-62843251D01*
X143622382Y-62886345D01*
X143576209Y-62938784D01*
X143509016Y-62957936D01*
X143442135Y-62937720D01*
X143397618Y-62886345D01*
X143377523Y-62843251D01*
X143246198Y-62655700D01*
X143084300Y-62493802D01*
X142896749Y-62362477D01*
X142896745Y-62362475D01*
X142689249Y-62265718D01*
X142689238Y-62265714D01*
X142468089Y-62206457D01*
X142468081Y-62206456D01*
X142240002Y-62186502D01*
X142239998Y-62186502D01*
X142011918Y-62206456D01*
X142011910Y-62206457D01*
X141790761Y-62265714D01*
X141790750Y-62265718D01*
X141583254Y-62362475D01*
X141583252Y-62362476D01*
X141583251Y-62362477D01*
X141395700Y-62493802D01*
X141395698Y-62493803D01*
X141395695Y-62493806D01*
X141233806Y-62655695D01*
X141102476Y-62843251D01*
X141082382Y-62886345D01*
X141036209Y-62938784D01*
X140969016Y-62957936D01*
X140902135Y-62937720D01*
X140857618Y-62886345D01*
X140837523Y-62843251D01*
X140706198Y-62655700D01*
X140544300Y-62493802D01*
X140356749Y-62362477D01*
X140356745Y-62362475D01*
X140149249Y-62265718D01*
X140149238Y-62265714D01*
X139928089Y-62206457D01*
X139928081Y-62206456D01*
X139700002Y-62186502D01*
X139699998Y-62186502D01*
X139471918Y-62206456D01*
X139471910Y-62206457D01*
X139250761Y-62265714D01*
X139250750Y-62265718D01*
X139043254Y-62362475D01*
X139043252Y-62362476D01*
X139043251Y-62362477D01*
X138855700Y-62493802D01*
X138855698Y-62493803D01*
X138855695Y-62493806D01*
X138693806Y-62655695D01*
X138562476Y-62843251D01*
X138542382Y-62886345D01*
X138496209Y-62938784D01*
X138429016Y-62957936D01*
X138362135Y-62937720D01*
X138317618Y-62886345D01*
X138297523Y-62843251D01*
X138166198Y-62655700D01*
X138004300Y-62493802D01*
X137816749Y-62362477D01*
X137816745Y-62362475D01*
X137609249Y-62265718D01*
X137609238Y-62265714D01*
X137388089Y-62206457D01*
X137388081Y-62206456D01*
X137160002Y-62186502D01*
X137159998Y-62186502D01*
X136931918Y-62206456D01*
X136931910Y-62206457D01*
X136710761Y-62265714D01*
X136710750Y-62265718D01*
X136503254Y-62362475D01*
X136503252Y-62362476D01*
X136503251Y-62362477D01*
X136315700Y-62493802D01*
X136315698Y-62493803D01*
X136315695Y-62493806D01*
X136153806Y-62655695D01*
X136022476Y-62843251D01*
X136002382Y-62886345D01*
X135956209Y-62938784D01*
X135889016Y-62957936D01*
X135822135Y-62937720D01*
X135777618Y-62886345D01*
X135757523Y-62843251D01*
X135626198Y-62655700D01*
X135464300Y-62493802D01*
X135276749Y-62362477D01*
X135276745Y-62362475D01*
X135069249Y-62265718D01*
X135069238Y-62265714D01*
X134848089Y-62206457D01*
X134848081Y-62206456D01*
X134620002Y-62186502D01*
X134619998Y-62186502D01*
X134391918Y-62206456D01*
X134391910Y-62206457D01*
X134170761Y-62265714D01*
X134170750Y-62265718D01*
X133963254Y-62362475D01*
X133963252Y-62362476D01*
X133963251Y-62362477D01*
X133775700Y-62493802D01*
X133775698Y-62493803D01*
X133775695Y-62493806D01*
X133613806Y-62655695D01*
X133482476Y-62843251D01*
X133462382Y-62886345D01*
X133416209Y-62938784D01*
X133349016Y-62957936D01*
X133282135Y-62937720D01*
X133237618Y-62886345D01*
X133217523Y-62843251D01*
X133086198Y-62655700D01*
X132924300Y-62493802D01*
X132736749Y-62362477D01*
X132736745Y-62362475D01*
X132529249Y-62265718D01*
X132529238Y-62265714D01*
X132308089Y-62206457D01*
X132308081Y-62206456D01*
X132080002Y-62186502D01*
X132079998Y-62186502D01*
X131851918Y-62206456D01*
X131851910Y-62206457D01*
X131630761Y-62265714D01*
X131630750Y-62265718D01*
X131423254Y-62362475D01*
X131423252Y-62362476D01*
X131423251Y-62362477D01*
X131235700Y-62493802D01*
X131235698Y-62493803D01*
X131235695Y-62493806D01*
X131073806Y-62655695D01*
X130942476Y-62843251D01*
X130922382Y-62886345D01*
X130876209Y-62938784D01*
X130809016Y-62957936D01*
X130742135Y-62937720D01*
X130697618Y-62886345D01*
X130677523Y-62843251D01*
X130546198Y-62655700D01*
X130384300Y-62493802D01*
X130196749Y-62362477D01*
X130196745Y-62362475D01*
X129989249Y-62265718D01*
X129989238Y-62265714D01*
X129768089Y-62206457D01*
X129768081Y-62206456D01*
X129540002Y-62186502D01*
X129539998Y-62186502D01*
X129311918Y-62206456D01*
X129311910Y-62206457D01*
X129090761Y-62265714D01*
X129090750Y-62265718D01*
X128883254Y-62362475D01*
X128883252Y-62362476D01*
X128883251Y-62362477D01*
X128695700Y-62493802D01*
X128695698Y-62493803D01*
X128695695Y-62493806D01*
X128533806Y-62655695D01*
X128402476Y-62843251D01*
X128382382Y-62886345D01*
X128336209Y-62938784D01*
X128269016Y-62957936D01*
X128202135Y-62937720D01*
X128157618Y-62886345D01*
X128137523Y-62843251D01*
X128006198Y-62655700D01*
X127844300Y-62493802D01*
X127656749Y-62362477D01*
X127656745Y-62362475D01*
X127449249Y-62265718D01*
X127449238Y-62265714D01*
X127228089Y-62206457D01*
X127228081Y-62206456D01*
X127000002Y-62186502D01*
X126999998Y-62186502D01*
X126771918Y-62206456D01*
X126771910Y-62206457D01*
X126550761Y-62265714D01*
X126550750Y-62265718D01*
X126343254Y-62362475D01*
X126343252Y-62362476D01*
X126343251Y-62362477D01*
X126155700Y-62493802D01*
X126155698Y-62493803D01*
X126155695Y-62493806D01*
X125993806Y-62655695D01*
X125862476Y-62843251D01*
X125842382Y-62886345D01*
X125796209Y-62938784D01*
X125729016Y-62957936D01*
X125662135Y-62937720D01*
X125617618Y-62886345D01*
X125597523Y-62843251D01*
X125466198Y-62655700D01*
X125304300Y-62493802D01*
X125116749Y-62362477D01*
X125116745Y-62362475D01*
X124909249Y-62265718D01*
X124909238Y-62265714D01*
X124688089Y-62206457D01*
X124688081Y-62206456D01*
X124460002Y-62186502D01*
X124459998Y-62186502D01*
X124231918Y-62206456D01*
X124231910Y-62206457D01*
X124010761Y-62265714D01*
X124010750Y-62265718D01*
X123803254Y-62362475D01*
X123803252Y-62362476D01*
X123803251Y-62362477D01*
X123615700Y-62493802D01*
X123615698Y-62493803D01*
X123615695Y-62493806D01*
X123453806Y-62655695D01*
X123322476Y-62843251D01*
X123302382Y-62886345D01*
X123256209Y-62938784D01*
X123189016Y-62957936D01*
X123122135Y-62937720D01*
X123077618Y-62886345D01*
X123057523Y-62843251D01*
X122926198Y-62655700D01*
X122764300Y-62493802D01*
X122576749Y-62362477D01*
X122576745Y-62362475D01*
X122369249Y-62265718D01*
X122369238Y-62265714D01*
X122148089Y-62206457D01*
X122148081Y-62206456D01*
X121920002Y-62186502D01*
X121919998Y-62186502D01*
X121691918Y-62206456D01*
X121691910Y-62206457D01*
X121470761Y-62265714D01*
X121470750Y-62265718D01*
X121263254Y-62362475D01*
X121263252Y-62362476D01*
X121263251Y-62362477D01*
X121075700Y-62493802D01*
X121075698Y-62493803D01*
X121075695Y-62493806D01*
X120913806Y-62655695D01*
X120782476Y-62843252D01*
X120782474Y-62843256D01*
X120757691Y-62896402D01*
X120711518Y-62948841D01*
X120644324Y-62967992D01*
X120577444Y-62947775D01*
X120532927Y-62896399D01*
X120510133Y-62847517D01*
X120379657Y-62661179D01*
X120218820Y-62500342D01*
X120032482Y-62369865D01*
X119826328Y-62273734D01*
X119630000Y-62221127D01*
X119630000Y-63064498D01*
X119522315Y-63015320D01*
X119415763Y-63000000D01*
X119344237Y-63000000D01*
X119237685Y-63015320D01*
X119130000Y-63064498D01*
X119130000Y-62221127D01*
X118933671Y-62273734D01*
X118727517Y-62369865D01*
X118541179Y-62500342D01*
X118380342Y-62661179D01*
X118249865Y-62847517D01*
X118227071Y-62896401D01*
X118180898Y-62948840D01*
X118113705Y-62967992D01*
X118046824Y-62947776D01*
X118002307Y-62896401D01*
X117977523Y-62843251D01*
X117846198Y-62655700D01*
X117684300Y-62493802D01*
X117496749Y-62362477D01*
X117496745Y-62362475D01*
X117289249Y-62265718D01*
X117289238Y-62265714D01*
X117068089Y-62206457D01*
X117068081Y-62206456D01*
X116840002Y-62186502D01*
X116839998Y-62186502D01*
X116611918Y-62206456D01*
X116611910Y-62206457D01*
X116390761Y-62265714D01*
X116390750Y-62265718D01*
X116183254Y-62362475D01*
X116183252Y-62362476D01*
X116183251Y-62362477D01*
X115995700Y-62493802D01*
X115995698Y-62493803D01*
X115995695Y-62493806D01*
X115833806Y-62655695D01*
X115702476Y-62843251D01*
X115682382Y-62886345D01*
X115636209Y-62938784D01*
X115569016Y-62957936D01*
X115502135Y-62937720D01*
X115457618Y-62886345D01*
X115437523Y-62843251D01*
X115306198Y-62655700D01*
X115144300Y-62493802D01*
X114956749Y-62362477D01*
X114956745Y-62362475D01*
X114749249Y-62265718D01*
X114749238Y-62265714D01*
X114528089Y-62206457D01*
X114528081Y-62206456D01*
X114300002Y-62186502D01*
X114299998Y-62186502D01*
X114071918Y-62206456D01*
X114071910Y-62206457D01*
X113850761Y-62265714D01*
X113850750Y-62265718D01*
X113643254Y-62362475D01*
X113643252Y-62362476D01*
X113643251Y-62362477D01*
X113455700Y-62493802D01*
X113455698Y-62493803D01*
X113455695Y-62493806D01*
X113293805Y-62655696D01*
X113288429Y-62663374D01*
X113233849Y-62706995D01*
X113164350Y-62714184D01*
X113101997Y-62682658D01*
X113066587Y-62622426D01*
X113063570Y-62605510D01*
X113061989Y-62590799D01*
X113010889Y-62453796D01*
X112923261Y-62336739D01*
X112806204Y-62249111D01*
X112669203Y-62198011D01*
X112608654Y-62191500D01*
X112608638Y-62191500D01*
X110911362Y-62191500D01*
X110911345Y-62191500D01*
X110850797Y-62198011D01*
X110850795Y-62198011D01*
X110713793Y-62249111D01*
X110713793Y-62249112D01*
X110686809Y-62269312D01*
X110621344Y-62293728D01*
X110553072Y-62278875D01*
X110503667Y-62229469D01*
X110488500Y-62170044D01*
X110488500Y-50478766D01*
X110508185Y-50411727D01*
X110524819Y-50391085D01*
X110929049Y-49986855D01*
X111347570Y-49568333D01*
X111408891Y-49534850D01*
X111467341Y-49536240D01*
X111531913Y-49553543D01*
X111694832Y-49567796D01*
X111759998Y-49573498D01*
X111760000Y-49573498D01*
X111760002Y-49573498D01*
X111819013Y-49568335D01*
X111988087Y-49553543D01*
X112209243Y-49494284D01*
X112416749Y-49397523D01*
X112604300Y-49266198D01*
X112766198Y-49104300D01*
X112897523Y-48916749D01*
X112922307Y-48863598D01*
X112968479Y-48811159D01*
X113035672Y-48792007D01*
X113102553Y-48812222D01*
X113147071Y-48863599D01*
X113169864Y-48912479D01*
X113169865Y-48912481D01*
X113300342Y-49098820D01*
X113461179Y-49259657D01*
X113647517Y-49390134D01*
X113853673Y-49486265D01*
X113853682Y-49486269D01*
X114049999Y-49538872D01*
X114050000Y-49538871D01*
X114050000Y-48695501D01*
X114157685Y-48744680D01*
X114264237Y-48760000D01*
X114335763Y-48760000D01*
X114442315Y-48744680D01*
X114550000Y-48695501D01*
X114550000Y-49538872D01*
X114746317Y-49486269D01*
X114746326Y-49486265D01*
X114952482Y-49390134D01*
X115138820Y-49259657D01*
X115299657Y-49098820D01*
X115430133Y-48912483D01*
X115452927Y-48863600D01*
X115499098Y-48811160D01*
X115566292Y-48792007D01*
X115633173Y-48812221D01*
X115677691Y-48863596D01*
X115702477Y-48916749D01*
X115833802Y-49104300D01*
X115995700Y-49266198D01*
X116183251Y-49397523D01*
X116308091Y-49455736D01*
X116390750Y-49494281D01*
X116390752Y-49494281D01*
X116390757Y-49494284D01*
X116611913Y-49553543D01*
X116774832Y-49567796D01*
X116839998Y-49573498D01*
X116840000Y-49573498D01*
X116840002Y-49573498D01*
X116899013Y-49568335D01*
X117068087Y-49553543D01*
X117289243Y-49494284D01*
X117496749Y-49397523D01*
X117684300Y-49266198D01*
X117846198Y-49104300D01*
X117977523Y-48916749D01*
X117997618Y-48873655D01*
X118043790Y-48821215D01*
X118110983Y-48802063D01*
X118177864Y-48822278D01*
X118222382Y-48873655D01*
X118242477Y-48916749D01*
X118373802Y-49104300D01*
X118535700Y-49266198D01*
X118723251Y-49397523D01*
X118848091Y-49455736D01*
X118930750Y-49494281D01*
X118930752Y-49494281D01*
X118930757Y-49494284D01*
X119151913Y-49553543D01*
X119314832Y-49567796D01*
X119379998Y-49573498D01*
X119380000Y-49573498D01*
X119380002Y-49573498D01*
X119439013Y-49568335D01*
X119608087Y-49553543D01*
X119829243Y-49494284D01*
X120036749Y-49397523D01*
X120224300Y-49266198D01*
X120386198Y-49104300D01*
X120517523Y-48916749D01*
X120537618Y-48873655D01*
X120583790Y-48821215D01*
X120650983Y-48802063D01*
X120717864Y-48822278D01*
X120762382Y-48873655D01*
X120782477Y-48916749D01*
X120913802Y-49104300D01*
X121075700Y-49266198D01*
X121263251Y-49397523D01*
X121388091Y-49455736D01*
X121470750Y-49494281D01*
X121470752Y-49494281D01*
X121470757Y-49494284D01*
X121691913Y-49553543D01*
X121854832Y-49567796D01*
X121919998Y-49573498D01*
X121920000Y-49573498D01*
X121920002Y-49573498D01*
X121979013Y-49568335D01*
X122148087Y-49553543D01*
X122369243Y-49494284D01*
X122576749Y-49397523D01*
X122764300Y-49266198D01*
X122926198Y-49104300D01*
X123057523Y-48916749D01*
X123077618Y-48873655D01*
X123123790Y-48821215D01*
X123190983Y-48802063D01*
X123257864Y-48822278D01*
X123302382Y-48873655D01*
X123322477Y-48916749D01*
X123453802Y-49104300D01*
X123615700Y-49266198D01*
X123803251Y-49397523D01*
X123928091Y-49455736D01*
X124010750Y-49494281D01*
X124010752Y-49494281D01*
X124010757Y-49494284D01*
X124231913Y-49553543D01*
X124394832Y-49567796D01*
X124459998Y-49573498D01*
X124460000Y-49573498D01*
X124460002Y-49573498D01*
X124519013Y-49568335D01*
X124688087Y-49553543D01*
X124909243Y-49494284D01*
X125116749Y-49397523D01*
X125304300Y-49266198D01*
X125466198Y-49104300D01*
X125597523Y-48916749D01*
X125617618Y-48873655D01*
X125663790Y-48821215D01*
X125730983Y-48802063D01*
X125797864Y-48822278D01*
X125842382Y-48873655D01*
X125862477Y-48916749D01*
X125993802Y-49104300D01*
X126155700Y-49266198D01*
X126343251Y-49397523D01*
X126468091Y-49455736D01*
X126550750Y-49494281D01*
X126550752Y-49494281D01*
X126550757Y-49494284D01*
X126771913Y-49553543D01*
X126934832Y-49567796D01*
X126999998Y-49573498D01*
X127000000Y-49573498D01*
X127000002Y-49573498D01*
X127059013Y-49568335D01*
X127228087Y-49553543D01*
X127449243Y-49494284D01*
X127656749Y-49397523D01*
X127844300Y-49266198D01*
X128006198Y-49104300D01*
X128137523Y-48916749D01*
X128157618Y-48873655D01*
X128203790Y-48821215D01*
X128270983Y-48802063D01*
X128337864Y-48822278D01*
X128382382Y-48873655D01*
X128402477Y-48916749D01*
X128533802Y-49104300D01*
X128695700Y-49266198D01*
X128883251Y-49397523D01*
X129008091Y-49455736D01*
X129090750Y-49494281D01*
X129090752Y-49494281D01*
X129090757Y-49494284D01*
X129311913Y-49553543D01*
X129474832Y-49567796D01*
X129539998Y-49573498D01*
X129540000Y-49573498D01*
X129540002Y-49573498D01*
X129599013Y-49568335D01*
X129768087Y-49553543D01*
X129989243Y-49494284D01*
X130196749Y-49397523D01*
X130384300Y-49266198D01*
X130546198Y-49104300D01*
X130677523Y-48916749D01*
X130697618Y-48873655D01*
X130743790Y-48821215D01*
X130810983Y-48802063D01*
X130877864Y-48822278D01*
X130922382Y-48873655D01*
X130942477Y-48916749D01*
X131073802Y-49104300D01*
X131235700Y-49266198D01*
X131423251Y-49397523D01*
X131548091Y-49455736D01*
X131630750Y-49494281D01*
X131630752Y-49494281D01*
X131630757Y-49494284D01*
X131851913Y-49553543D01*
X132014832Y-49567796D01*
X132079998Y-49573498D01*
X132080000Y-49573498D01*
X132080002Y-49573498D01*
X132139013Y-49568335D01*
X132308087Y-49553543D01*
X132529243Y-49494284D01*
X132736749Y-49397523D01*
X132924300Y-49266198D01*
X133086198Y-49104300D01*
X133217523Y-48916749D01*
X133237618Y-48873655D01*
X133283790Y-48821215D01*
X133350983Y-48802063D01*
X133417864Y-48822278D01*
X133462382Y-48873655D01*
X133482477Y-48916749D01*
X133613802Y-49104300D01*
X133775700Y-49266198D01*
X133963251Y-49397523D01*
X134088091Y-49455736D01*
X134170750Y-49494281D01*
X134170752Y-49494281D01*
X134170757Y-49494284D01*
X134391913Y-49553543D01*
X134554832Y-49567796D01*
X134619998Y-49573498D01*
X134620000Y-49573498D01*
X134620002Y-49573498D01*
X134679013Y-49568335D01*
X134848087Y-49553543D01*
X135069243Y-49494284D01*
X135276749Y-49397523D01*
X135464300Y-49266198D01*
X135626198Y-49104300D01*
X135757523Y-48916749D01*
X135777618Y-48873655D01*
X135823790Y-48821215D01*
X135890983Y-48802063D01*
X135957864Y-48822278D01*
X136002382Y-48873655D01*
X136022477Y-48916749D01*
X136153802Y-49104300D01*
X136315700Y-49266198D01*
X136503251Y-49397523D01*
X136628091Y-49455736D01*
X136710750Y-49494281D01*
X136710752Y-49494281D01*
X136710757Y-49494284D01*
X136931913Y-49553543D01*
X137094832Y-49567796D01*
X137159998Y-49573498D01*
X137160000Y-49573498D01*
X137160002Y-49573498D01*
X137219013Y-49568335D01*
X137388087Y-49553543D01*
X137609243Y-49494284D01*
X137816749Y-49397523D01*
X138004300Y-49266198D01*
X138166198Y-49104300D01*
X138297523Y-48916749D01*
X138317618Y-48873655D01*
X138363790Y-48821215D01*
X138430983Y-48802063D01*
X138497864Y-48822278D01*
X138542382Y-48873655D01*
X138562477Y-48916749D01*
X138693802Y-49104300D01*
X138855700Y-49266198D01*
X139043251Y-49397523D01*
X139168091Y-49455736D01*
X139250750Y-49494281D01*
X139250752Y-49494281D01*
X139250757Y-49494284D01*
X139471913Y-49553543D01*
X139634832Y-49567796D01*
X139699998Y-49573498D01*
X139700000Y-49573498D01*
X139700002Y-49573498D01*
X139759013Y-49568335D01*
X139928087Y-49553543D01*
X140149243Y-49494284D01*
X140356749Y-49397523D01*
X140544300Y-49266198D01*
X140706198Y-49104300D01*
X140837523Y-48916749D01*
X140857618Y-48873655D01*
X140903790Y-48821215D01*
X140970983Y-48802063D01*
X141037864Y-48822278D01*
X141082382Y-48873655D01*
X141102477Y-48916749D01*
X141233802Y-49104300D01*
X141395700Y-49266198D01*
X141583251Y-49397523D01*
X141708091Y-49455736D01*
X141790750Y-49494281D01*
X141790752Y-49494281D01*
X141790757Y-49494284D01*
X142011913Y-49553543D01*
X142174832Y-49567796D01*
X142239998Y-49573498D01*
X142240000Y-49573498D01*
X142240002Y-49573498D01*
X142299013Y-49568335D01*
X142468087Y-49553543D01*
X142689243Y-49494284D01*
X142896749Y-49397523D01*
X143084300Y-49266198D01*
X143246198Y-49104300D01*
X143377523Y-48916749D01*
X143397618Y-48873655D01*
X143443790Y-48821215D01*
X143510983Y-48802063D01*
X143577864Y-48822278D01*
X143622382Y-48873655D01*
X143642477Y-48916749D01*
X143773802Y-49104300D01*
X143935700Y-49266198D01*
X144123251Y-49397523D01*
X144248091Y-49455736D01*
X144330750Y-49494281D01*
X144330752Y-49494281D01*
X144330757Y-49494284D01*
X144551913Y-49553543D01*
X144714832Y-49567796D01*
X144779998Y-49573498D01*
X144780000Y-49573498D01*
X144780002Y-49573498D01*
X144839013Y-49568335D01*
X145008087Y-49553543D01*
X145229243Y-49494284D01*
X145436749Y-49397523D01*
X145624300Y-49266198D01*
X145786198Y-49104300D01*
X145917523Y-48916749D01*
X145937618Y-48873655D01*
X145983790Y-48821215D01*
X146050983Y-48802063D01*
X146117864Y-48822278D01*
X146162382Y-48873655D01*
X146182477Y-48916749D01*
X146313802Y-49104300D01*
X146475700Y-49266198D01*
X146663251Y-49397523D01*
X146788091Y-49455736D01*
X146870750Y-49494281D01*
X146870752Y-49494281D01*
X146870757Y-49494284D01*
X147091913Y-49553543D01*
X147254832Y-49567796D01*
X147319998Y-49573498D01*
X147320000Y-49573498D01*
X147320002Y-49573498D01*
X147379013Y-49568335D01*
X147548087Y-49553543D01*
X147769243Y-49494284D01*
X147976749Y-49397523D01*
X148164300Y-49266198D01*
X148326198Y-49104300D01*
X148457523Y-48916749D01*
X148554284Y-48709243D01*
X148613543Y-48488087D01*
X148633498Y-48260000D01*
X148613543Y-48031913D01*
X148554284Y-47810757D01*
X148457523Y-47603251D01*
X148326198Y-47415700D01*
X148164300Y-47253802D01*
X147976749Y-47122477D01*
X147976745Y-47122475D01*
X147769249Y-47025718D01*
X147769238Y-47025714D01*
X147548089Y-46966457D01*
X147548081Y-46966456D01*
X147320002Y-46946502D01*
X147319998Y-46946502D01*
X147091918Y-46966456D01*
X147091910Y-46966457D01*
X146870761Y-47025714D01*
X146870750Y-47025718D01*
X146663254Y-47122475D01*
X146663252Y-47122476D01*
X146592856Y-47171767D01*
X146475700Y-47253802D01*
X146475698Y-47253803D01*
X146475695Y-47253806D01*
X146313806Y-47415695D01*
X146182476Y-47603251D01*
X146162382Y-47646345D01*
X146116209Y-47698784D01*
X146049016Y-47717936D01*
X145982135Y-47697720D01*
X145937618Y-47646345D01*
X145917523Y-47603251D01*
X145786198Y-47415700D01*
X145624300Y-47253802D01*
X145466376Y-47143221D01*
X145422751Y-47088644D01*
X145413500Y-47041647D01*
X145413500Y-43938633D01*
X145415239Y-43922886D01*
X145414968Y-43922861D01*
X145415701Y-43915094D01*
X145415702Y-43915091D01*
X145413500Y-43845042D01*
X145413500Y-43815144D01*
X145412614Y-43808136D01*
X145412156Y-43802314D01*
X145410673Y-43755111D01*
X145410672Y-43755109D01*
X145404979Y-43735515D01*
X145401032Y-43716459D01*
X145398474Y-43696203D01*
X145381084Y-43652283D01*
X145379195Y-43646763D01*
X145377019Y-43639276D01*
X145366018Y-43601407D01*
X145355622Y-43583829D01*
X145347066Y-43566362D01*
X145346592Y-43565165D01*
X145339552Y-43547383D01*
X145311794Y-43509179D01*
X145308587Y-43504296D01*
X145298873Y-43487871D01*
X145284542Y-43463638D01*
X145270108Y-43449204D01*
X145257471Y-43434409D01*
X145248420Y-43421951D01*
X145245470Y-43417890D01*
X145209073Y-43387781D01*
X145204751Y-43383847D01*
X143594818Y-41773914D01*
X143561333Y-41712591D01*
X143558499Y-41686233D01*
X143558499Y-40474462D01*
X143558498Y-40474446D01*
X143558218Y-40471707D01*
X143547887Y-40370574D01*
X143492115Y-40202262D01*
X143399030Y-40051348D01*
X143273652Y-39925970D01*
X143122738Y-39832885D01*
X143122735Y-39832884D01*
X142954427Y-39777113D01*
X142850552Y-39766500D01*
X142850545Y-39766500D01*
X141638767Y-39766500D01*
X141571728Y-39746815D01*
X141551086Y-39730181D01*
X141382088Y-39561183D01*
X141372187Y-39548823D01*
X141371977Y-39548998D01*
X141367002Y-39542986D01*
X141367000Y-39542982D01*
X141340657Y-39518245D01*
X141315921Y-39495015D01*
X141294768Y-39473863D01*
X141292792Y-39472331D01*
X141289183Y-39469531D01*
X141284750Y-39465744D01*
X141250321Y-39433414D01*
X141250319Y-39433412D01*
X141232431Y-39423578D01*
X141216170Y-39412897D01*
X141200039Y-39400384D01*
X141156693Y-39381627D01*
X141151445Y-39379056D01*
X141124019Y-39363979D01*
X141110060Y-39356305D01*
X141106660Y-39355432D01*
X141090287Y-39351228D01*
X141071881Y-39344926D01*
X141053144Y-39336818D01*
X141053146Y-39336818D01*
X141006496Y-39329430D01*
X141000781Y-39328246D01*
X140980612Y-39323068D01*
X140955032Y-39316500D01*
X140955030Y-39316500D01*
X140934616Y-39316500D01*
X140915217Y-39314973D01*
X140895058Y-39311780D01*
X140895057Y-39311780D01*
X140848034Y-39316225D01*
X140842196Y-39316500D01*
X129678631Y-39316500D01*
X129662879Y-39314760D01*
X129662854Y-39315032D01*
X129655092Y-39314298D01*
X129655091Y-39314298D01*
X129585028Y-39316500D01*
X129555144Y-39316500D01*
X129555141Y-39316500D01*
X129555129Y-39316501D01*
X129548137Y-39317384D01*
X129542320Y-39317841D01*
X129495114Y-39319325D01*
X129495107Y-39319326D01*
X129475500Y-39325022D01*
X129456461Y-39328965D01*
X129436211Y-39331524D01*
X129436201Y-39331526D01*
X129392291Y-39348911D01*
X129386765Y-39350803D01*
X129341412Y-39363979D01*
X129341407Y-39363981D01*
X129323833Y-39374374D01*
X129306372Y-39382928D01*
X129287386Y-39390446D01*
X129287384Y-39390447D01*
X129249172Y-39418208D01*
X129244290Y-39421415D01*
X129203637Y-39445457D01*
X129189201Y-39459894D01*
X129174415Y-39472523D01*
X129157893Y-39484528D01*
X129157891Y-39484529D01*
X129157891Y-39484530D01*
X129157888Y-39484532D01*
X129127780Y-39520925D01*
X129123849Y-39525246D01*
X126777429Y-41871664D01*
X126716106Y-41905149D01*
X126657655Y-41903758D01*
X126593087Y-41886457D01*
X126593085Y-41886456D01*
X126593081Y-41886456D01*
X126365002Y-41866502D01*
X126364998Y-41866502D01*
X126136918Y-41886456D01*
X126136910Y-41886457D01*
X125915761Y-41945714D01*
X125915750Y-41945718D01*
X125708254Y-42042475D01*
X125708252Y-42042476D01*
X125708251Y-42042477D01*
X125520700Y-42173802D01*
X125520698Y-42173803D01*
X125520695Y-42173806D01*
X125358806Y-42335695D01*
X125358803Y-42335698D01*
X125358802Y-42335700D01*
X125279839Y-42448471D01*
X125227476Y-42523252D01*
X125227475Y-42523254D01*
X125130718Y-42730750D01*
X125130714Y-42730761D01*
X125071457Y-42951910D01*
X125071456Y-42951918D01*
X125051502Y-43179998D01*
X125051502Y-43180001D01*
X125071456Y-43408081D01*
X125071457Y-43408089D01*
X125130714Y-43629238D01*
X125130718Y-43629249D01*
X125211420Y-43802314D01*
X125227477Y-43836749D01*
X125358802Y-44024300D01*
X125520700Y-44186198D01*
X125708251Y-44317523D01*
X125833091Y-44375736D01*
X125915750Y-44414281D01*
X125915752Y-44414281D01*
X125915757Y-44414284D01*
X126136913Y-44473543D01*
X126299832Y-44487796D01*
X126364998Y-44493498D01*
X126365000Y-44493498D01*
X126365002Y-44493498D01*
X126422021Y-44488509D01*
X126593087Y-44473543D01*
X126814243Y-44414284D01*
X127021749Y-44317523D01*
X127209300Y-44186198D01*
X127371198Y-44024300D01*
X127502523Y-43836749D01*
X127599284Y-43629243D01*
X127658543Y-43408087D01*
X127678498Y-43180000D01*
X127658543Y-42951913D01*
X127641241Y-42887341D01*
X127642904Y-42817491D01*
X127673333Y-42767569D01*
X129821086Y-40619819D01*
X129882409Y-40586334D01*
X129908767Y-40583500D01*
X138275196Y-40583500D01*
X138342235Y-40603185D01*
X138387990Y-40655989D01*
X138397934Y-40725147D01*
X138392113Y-40748808D01*
X138380584Y-40781438D01*
X138380579Y-40781456D01*
X138341500Y-41009365D01*
X138341500Y-41482719D01*
X138356197Y-41655413D01*
X138414469Y-41879206D01*
X138414470Y-41879210D01*
X138509716Y-42089919D01*
X138509723Y-42089931D01*
X138639209Y-42281513D01*
X138639214Y-42281518D01*
X138639217Y-42281523D01*
X138799228Y-42448476D01*
X138985153Y-42585985D01*
X138985157Y-42585987D01*
X138998323Y-42592625D01*
X139049323Y-42640383D01*
X139066500Y-42703349D01*
X139066500Y-43160384D01*
X139064973Y-43179783D01*
X139061780Y-43199941D01*
X139061780Y-43199942D01*
X139066225Y-43246966D01*
X139066500Y-43252804D01*
X139066500Y-43866647D01*
X139046815Y-43933686D01*
X139013624Y-43968221D01*
X138855699Y-44078802D01*
X138693806Y-44240695D01*
X138562476Y-44428252D01*
X138562475Y-44428254D01*
X138465718Y-44635750D01*
X138465714Y-44635761D01*
X138406457Y-44856910D01*
X138406456Y-44856918D01*
X138386502Y-45084998D01*
X138386502Y-45085001D01*
X138406456Y-45313081D01*
X138406457Y-45313089D01*
X138465714Y-45534238D01*
X138465718Y-45534249D01*
X138560487Y-45737482D01*
X138562477Y-45741749D01*
X138693802Y-45929300D01*
X138855700Y-46091198D01*
X139013625Y-46201779D01*
X139057249Y-46256354D01*
X139066500Y-46303352D01*
X139066500Y-47041647D01*
X139046815Y-47108686D01*
X139013624Y-47143221D01*
X138855699Y-47253802D01*
X138693806Y-47415695D01*
X138562476Y-47603251D01*
X138542382Y-47646345D01*
X138496209Y-47698784D01*
X138429016Y-47717936D01*
X138362135Y-47697720D01*
X138317618Y-47646345D01*
X138297523Y-47603251D01*
X138166198Y-47415700D01*
X138004300Y-47253802D01*
X137816749Y-47122477D01*
X137816745Y-47122475D01*
X137609249Y-47025718D01*
X137609238Y-47025714D01*
X137388089Y-46966457D01*
X137388081Y-46966456D01*
X137160002Y-46946502D01*
X137159998Y-46946502D01*
X136931918Y-46966456D01*
X136931910Y-46966457D01*
X136710761Y-47025714D01*
X136710750Y-47025718D01*
X136503254Y-47122475D01*
X136503252Y-47122476D01*
X136432856Y-47171767D01*
X136315700Y-47253802D01*
X136315698Y-47253803D01*
X136315695Y-47253806D01*
X136153806Y-47415695D01*
X136022476Y-47603251D01*
X136002382Y-47646345D01*
X135956209Y-47698784D01*
X135889016Y-47717936D01*
X135822135Y-47697720D01*
X135777618Y-47646345D01*
X135757523Y-47603251D01*
X135626198Y-47415700D01*
X135464300Y-47253802D01*
X135276749Y-47122477D01*
X135276745Y-47122475D01*
X135069249Y-47025718D01*
X135069238Y-47025714D01*
X134848089Y-46966457D01*
X134848081Y-46966456D01*
X134620002Y-46946502D01*
X134619998Y-46946502D01*
X134391918Y-46966456D01*
X134391910Y-46966457D01*
X134170761Y-47025714D01*
X134170750Y-47025718D01*
X133963254Y-47122475D01*
X133963252Y-47122476D01*
X133892856Y-47171767D01*
X133775700Y-47253802D01*
X133775698Y-47253803D01*
X133775695Y-47253806D01*
X133613806Y-47415695D01*
X133482476Y-47603251D01*
X133462382Y-47646345D01*
X133416209Y-47698784D01*
X133349016Y-47717936D01*
X133282135Y-47697720D01*
X133237618Y-47646345D01*
X133217523Y-47603251D01*
X133086198Y-47415700D01*
X132924300Y-47253802D01*
X132736749Y-47122477D01*
X132736745Y-47122475D01*
X132529249Y-47025718D01*
X132529238Y-47025714D01*
X132308089Y-46966457D01*
X132308081Y-46966456D01*
X132080002Y-46946502D01*
X132079998Y-46946502D01*
X131851918Y-46966456D01*
X131851910Y-46966457D01*
X131630761Y-47025714D01*
X131630750Y-47025718D01*
X131423254Y-47122475D01*
X131423252Y-47122476D01*
X131352856Y-47171767D01*
X131235700Y-47253802D01*
X131235698Y-47253803D01*
X131235695Y-47253806D01*
X131073806Y-47415695D01*
X130942476Y-47603251D01*
X130922382Y-47646345D01*
X130876209Y-47698784D01*
X130809016Y-47717936D01*
X130742135Y-47697720D01*
X130697618Y-47646345D01*
X130677523Y-47603251D01*
X130546198Y-47415700D01*
X130384300Y-47253802D01*
X130196749Y-47122477D01*
X130196745Y-47122475D01*
X129989249Y-47025718D01*
X129989238Y-47025714D01*
X129768089Y-46966457D01*
X129768081Y-46966456D01*
X129540002Y-46946502D01*
X129539998Y-46946502D01*
X129311918Y-46966456D01*
X129311910Y-46966457D01*
X129090761Y-47025714D01*
X129090750Y-47025718D01*
X128883254Y-47122475D01*
X128883252Y-47122476D01*
X128812856Y-47171767D01*
X128695700Y-47253802D01*
X128695698Y-47253803D01*
X128695695Y-47253806D01*
X128533806Y-47415695D01*
X128402476Y-47603251D01*
X128382382Y-47646345D01*
X128336209Y-47698784D01*
X128269016Y-47717936D01*
X128202135Y-47697720D01*
X128157618Y-47646345D01*
X128137523Y-47603251D01*
X128006198Y-47415700D01*
X127844300Y-47253802D01*
X127656749Y-47122477D01*
X127656745Y-47122475D01*
X127449249Y-47025718D01*
X127449238Y-47025714D01*
X127228089Y-46966457D01*
X127228081Y-46966456D01*
X127000002Y-46946502D01*
X126999998Y-46946502D01*
X126771918Y-46966456D01*
X126771910Y-46966457D01*
X126550761Y-47025714D01*
X126550750Y-47025718D01*
X126343254Y-47122475D01*
X126343252Y-47122476D01*
X126272856Y-47171767D01*
X126155700Y-47253802D01*
X126155698Y-47253803D01*
X126155695Y-47253806D01*
X125993806Y-47415695D01*
X125862476Y-47603251D01*
X125842382Y-47646345D01*
X125796209Y-47698784D01*
X125729016Y-47717936D01*
X125662135Y-47697720D01*
X125617618Y-47646345D01*
X125597523Y-47603251D01*
X125466198Y-47415700D01*
X125304300Y-47253802D01*
X125116749Y-47122477D01*
X125116745Y-47122475D01*
X124909249Y-47025718D01*
X124909238Y-47025714D01*
X124688089Y-46966457D01*
X124688081Y-46966456D01*
X124460002Y-46946502D01*
X124459998Y-46946502D01*
X124231918Y-46966456D01*
X124231910Y-46966457D01*
X124010761Y-47025714D01*
X124010750Y-47025718D01*
X123803254Y-47122475D01*
X123803252Y-47122476D01*
X123732856Y-47171767D01*
X123615700Y-47253802D01*
X123615698Y-47253803D01*
X123615695Y-47253806D01*
X123453806Y-47415695D01*
X123322476Y-47603251D01*
X123302382Y-47646345D01*
X123256209Y-47698784D01*
X123189016Y-47717936D01*
X123122135Y-47697720D01*
X123077618Y-47646345D01*
X123057523Y-47603251D01*
X122926198Y-47415700D01*
X122764300Y-47253802D01*
X122576749Y-47122477D01*
X122576745Y-47122475D01*
X122369249Y-47025718D01*
X122369238Y-47025714D01*
X122148089Y-46966457D01*
X122148081Y-46966456D01*
X121920002Y-46946502D01*
X121919998Y-46946502D01*
X121691918Y-46966456D01*
X121691910Y-46966457D01*
X121470761Y-47025714D01*
X121470750Y-47025718D01*
X121263254Y-47122475D01*
X121263252Y-47122476D01*
X121192856Y-47171767D01*
X121075700Y-47253802D01*
X121075698Y-47253803D01*
X121075695Y-47253806D01*
X120913806Y-47415695D01*
X120782476Y-47603251D01*
X120762382Y-47646345D01*
X120716209Y-47698784D01*
X120649016Y-47717936D01*
X120582135Y-47697720D01*
X120537618Y-47646345D01*
X120517523Y-47603251D01*
X120386198Y-47415700D01*
X120224300Y-47253802D01*
X120036749Y-47122477D01*
X120036745Y-47122475D01*
X119829249Y-47025718D01*
X119829238Y-47025714D01*
X119608089Y-46966457D01*
X119608081Y-46966456D01*
X119380002Y-46946502D01*
X119379998Y-46946502D01*
X119151918Y-46966456D01*
X119151910Y-46966457D01*
X118930761Y-47025714D01*
X118930750Y-47025718D01*
X118723254Y-47122475D01*
X118723252Y-47122476D01*
X118652856Y-47171767D01*
X118535700Y-47253802D01*
X118535698Y-47253803D01*
X118535695Y-47253806D01*
X118373806Y-47415695D01*
X118242476Y-47603251D01*
X118222382Y-47646345D01*
X118176209Y-47698784D01*
X118109016Y-47717936D01*
X118042135Y-47697720D01*
X117997618Y-47646345D01*
X117977523Y-47603251D01*
X117846198Y-47415700D01*
X117684300Y-47253802D01*
X117496749Y-47122477D01*
X117496745Y-47122475D01*
X117289249Y-47025718D01*
X117289238Y-47025714D01*
X117068089Y-46966457D01*
X117068081Y-46966456D01*
X116840002Y-46946502D01*
X116839998Y-46946502D01*
X116611918Y-46966456D01*
X116611910Y-46966457D01*
X116390761Y-47025714D01*
X116390750Y-47025718D01*
X116183254Y-47122475D01*
X116183252Y-47122476D01*
X116112856Y-47171767D01*
X115995700Y-47253802D01*
X115995698Y-47253803D01*
X115995695Y-47253806D01*
X115833806Y-47415695D01*
X115702476Y-47603252D01*
X115702474Y-47603256D01*
X115677691Y-47656402D01*
X115631518Y-47708841D01*
X115564324Y-47727992D01*
X115497444Y-47707775D01*
X115452927Y-47656399D01*
X115430133Y-47607517D01*
X115299657Y-47421179D01*
X115138820Y-47260342D01*
X114952482Y-47129865D01*
X114746328Y-47033734D01*
X114550000Y-46981127D01*
X114550000Y-47824498D01*
X114442315Y-47775320D01*
X114335763Y-47760000D01*
X114264237Y-47760000D01*
X114157685Y-47775320D01*
X114050000Y-47824498D01*
X114050000Y-46981127D01*
X113853671Y-47033734D01*
X113647517Y-47129865D01*
X113461179Y-47260342D01*
X113300342Y-47421179D01*
X113169865Y-47607517D01*
X113147071Y-47656401D01*
X113100898Y-47708840D01*
X113033705Y-47727992D01*
X112966824Y-47707776D01*
X112922307Y-47656401D01*
X112897523Y-47603251D01*
X112766198Y-47415700D01*
X112604300Y-47253802D01*
X112446376Y-47143221D01*
X112402751Y-47088644D01*
X112393500Y-47041647D01*
X112393500Y-44834999D01*
X128261127Y-44834999D01*
X128261128Y-44835000D01*
X129224314Y-44835000D01*
X129212359Y-44846955D01*
X129154835Y-44959852D01*
X129135014Y-45085000D01*
X129154835Y-45210148D01*
X129212359Y-45323045D01*
X129224314Y-45335000D01*
X128261128Y-45335000D01*
X128313730Y-45531317D01*
X128313734Y-45531326D01*
X128409865Y-45737482D01*
X128540342Y-45923820D01*
X128701179Y-46084657D01*
X128887517Y-46215134D01*
X129093673Y-46311265D01*
X129093682Y-46311269D01*
X129289999Y-46363872D01*
X129290000Y-46363871D01*
X129290000Y-45400686D01*
X129301955Y-45412641D01*
X129414852Y-45470165D01*
X129508519Y-45485000D01*
X129571481Y-45485000D01*
X129665148Y-45470165D01*
X129778045Y-45412641D01*
X129790000Y-45400686D01*
X129790000Y-46363872D01*
X129986317Y-46311269D01*
X129986326Y-46311265D01*
X130192482Y-46215134D01*
X130378820Y-46084657D01*
X130539657Y-45923820D01*
X130670134Y-45737482D01*
X130766265Y-45531326D01*
X130766269Y-45531317D01*
X130818872Y-45335000D01*
X129855686Y-45335000D01*
X129867641Y-45323045D01*
X129925165Y-45210148D01*
X129944986Y-45085000D01*
X129925165Y-44959852D01*
X129867641Y-44846955D01*
X129855686Y-44835000D01*
X130818872Y-44835000D01*
X130818872Y-44834999D01*
X130766269Y-44638682D01*
X130766265Y-44638673D01*
X130670134Y-44432517D01*
X130539657Y-44246179D01*
X130378820Y-44085342D01*
X130192482Y-43954865D01*
X129986328Y-43858734D01*
X129790000Y-43806127D01*
X129790000Y-44769314D01*
X129778045Y-44757359D01*
X129665148Y-44699835D01*
X129571481Y-44685000D01*
X129508519Y-44685000D01*
X129414852Y-44699835D01*
X129301955Y-44757359D01*
X129290000Y-44769314D01*
X129290000Y-43806127D01*
X129093671Y-43858734D01*
X128887517Y-43954865D01*
X128701179Y-44085342D01*
X128540342Y-44246179D01*
X128409865Y-44432517D01*
X128313734Y-44638673D01*
X128313730Y-44638682D01*
X128261127Y-44834999D01*
X112393500Y-44834999D01*
X112393500Y-42929999D01*
X120641127Y-42929999D01*
X120641128Y-42930000D01*
X121604314Y-42930000D01*
X121592359Y-42941955D01*
X121534835Y-43054852D01*
X121515014Y-43180000D01*
X121534835Y-43305148D01*
X121592359Y-43418045D01*
X121604314Y-43430000D01*
X120641128Y-43430000D01*
X120693730Y-43626317D01*
X120693734Y-43626326D01*
X120789865Y-43832482D01*
X120920342Y-44018820D01*
X121081179Y-44179657D01*
X121267517Y-44310134D01*
X121473673Y-44406265D01*
X121473682Y-44406269D01*
X121669999Y-44458872D01*
X121670000Y-44458871D01*
X121670000Y-43495686D01*
X121681955Y-43507641D01*
X121794852Y-43565165D01*
X121888519Y-43580000D01*
X121951481Y-43580000D01*
X122045148Y-43565165D01*
X122158045Y-43507641D01*
X122170000Y-43495686D01*
X122170000Y-44458872D01*
X122366317Y-44406269D01*
X122366326Y-44406265D01*
X122572482Y-44310134D01*
X122758820Y-44179657D01*
X122919657Y-44018820D01*
X123050134Y-43832482D01*
X123146265Y-43626326D01*
X123146269Y-43626317D01*
X123198872Y-43430000D01*
X122235686Y-43430000D01*
X122247641Y-43418045D01*
X122305165Y-43305148D01*
X122324986Y-43180000D01*
X122305165Y-43054852D01*
X122247641Y-42941955D01*
X122235686Y-42930000D01*
X123198872Y-42930000D01*
X123198872Y-42929999D01*
X123146269Y-42733682D01*
X123146265Y-42733673D01*
X123050134Y-42527517D01*
X122919657Y-42341179D01*
X122758820Y-42180342D01*
X122572482Y-42049865D01*
X122366328Y-41953734D01*
X122170000Y-41901127D01*
X122170000Y-42864314D01*
X122158045Y-42852359D01*
X122045148Y-42794835D01*
X121951481Y-42780000D01*
X121888519Y-42780000D01*
X121794852Y-42794835D01*
X121681955Y-42852359D01*
X121670000Y-42864314D01*
X121670000Y-41901127D01*
X121473671Y-41953734D01*
X121267517Y-42049865D01*
X121081179Y-42180342D01*
X120920342Y-42341179D01*
X120789865Y-42527517D01*
X120693734Y-42733673D01*
X120693730Y-42733682D01*
X120641127Y-42929999D01*
X112393500Y-42929999D01*
X112393500Y-35643632D01*
X112395239Y-35627880D01*
X112394968Y-35627855D01*
X112395700Y-35620099D01*
X112395702Y-35620092D01*
X112393500Y-35550028D01*
X112393500Y-35520144D01*
X112392614Y-35513141D01*
X112392157Y-35507322D01*
X112390674Y-35460113D01*
X112390674Y-35460111D01*
X112384974Y-35440492D01*
X112381031Y-35421446D01*
X112378474Y-35401204D01*
X112378474Y-35401203D01*
X112361081Y-35357274D01*
X112359204Y-35351792D01*
X112346019Y-35306407D01*
X112335620Y-35288824D01*
X112327066Y-35271363D01*
X112319552Y-35252383D01*
X112291793Y-35214176D01*
X112288586Y-35209294D01*
X112264544Y-35168641D01*
X112264537Y-35168632D01*
X112250107Y-35154202D01*
X112237469Y-35139405D01*
X112225473Y-35122893D01*
X112212281Y-35111981D01*
X112202451Y-35103849D01*
X112199540Y-35101281D01*
X112160919Y-35065013D01*
X112139768Y-35043863D01*
X112137792Y-35042331D01*
X112134183Y-35039531D01*
X112129750Y-35035744D01*
X112095321Y-35003414D01*
X112095319Y-35003412D01*
X112077431Y-34993578D01*
X112061170Y-34982897D01*
X112045039Y-34970384D01*
X112001693Y-34951627D01*
X111996445Y-34949056D01*
X111969251Y-34934106D01*
X111955060Y-34926305D01*
X111951660Y-34925432D01*
X111935287Y-34921228D01*
X111916881Y-34914926D01*
X111898144Y-34906818D01*
X111898146Y-34906818D01*
X111851496Y-34899430D01*
X111845781Y-34898246D01*
X111825612Y-34893068D01*
X111800032Y-34886500D01*
X111800030Y-34886500D01*
X111779616Y-34886500D01*
X111760217Y-34884973D01*
X111740058Y-34881780D01*
X111740057Y-34881780D01*
X111693034Y-34886225D01*
X111687196Y-34886500D01*
X108104575Y-34886500D01*
X108037536Y-34866815D01*
X107998986Y-34827515D01*
X107926181Y-34709273D01*
X107926175Y-34709265D01*
X107851380Y-34624281D01*
X107773398Y-34535676D01*
X107736765Y-34506097D01*
X107696972Y-34448667D01*
X107694545Y-34378839D01*
X107730256Y-34318785D01*
X107749568Y-34304082D01*
X107898343Y-34212317D01*
X108022315Y-34088345D01*
X108114356Y-33939124D01*
X108114358Y-33939119D01*
X108169505Y-33772697D01*
X108169506Y-33772690D01*
X108179999Y-33669986D01*
X108180000Y-33669973D01*
X108180000Y-33270000D01*
X107113686Y-33270000D01*
X107139493Y-33229844D01*
X107180000Y-33091889D01*
X107180000Y-33020002D01*
X113035034Y-33020002D01*
X113054858Y-33246599D01*
X113054860Y-33246610D01*
X113113730Y-33466317D01*
X113113734Y-33466326D01*
X113209865Y-33672481D01*
X113209866Y-33672483D01*
X113260973Y-33745471D01*
X113260974Y-33745472D01*
X113942046Y-33064399D01*
X113954835Y-33145148D01*
X114012359Y-33258045D01*
X114101955Y-33347641D01*
X114214852Y-33405165D01*
X114295599Y-33417953D01*
X113614526Y-34099025D01*
X113614526Y-34099026D01*
X113687512Y-34150131D01*
X113687516Y-34150133D01*
X113893673Y-34246265D01*
X113893682Y-34246269D01*
X114113389Y-34305139D01*
X114113400Y-34305141D01*
X114339998Y-34324966D01*
X114340002Y-34324966D01*
X114566599Y-34305141D01*
X114566610Y-34305139D01*
X114786317Y-34246269D01*
X114786331Y-34246264D01*
X114992478Y-34150136D01*
X115065472Y-34099025D01*
X114384401Y-33417953D01*
X114465148Y-33405165D01*
X114578045Y-33347641D01*
X114667641Y-33258045D01*
X114725165Y-33145148D01*
X114737953Y-33064400D01*
X115427087Y-33753534D01*
X115465192Y-33761192D01*
X115515375Y-33809807D01*
X115530035Y-33865399D01*
X115531040Y-33865346D01*
X115531144Y-33865335D01*
X115531144Y-33865340D01*
X115531323Y-33865331D01*
X115531500Y-33868654D01*
X115538011Y-33929202D01*
X115538011Y-33929204D01*
X115589111Y-34066204D01*
X115676739Y-34183261D01*
X115793796Y-34270889D01*
X115930799Y-34321989D01*
X115958050Y-34324918D01*
X115991345Y-34328499D01*
X115991362Y-34328500D01*
X117688638Y-34328500D01*
X117688654Y-34328499D01*
X117715692Y-34325591D01*
X117749201Y-34321989D01*
X117886204Y-34270889D01*
X118003261Y-34183261D01*
X118090889Y-34066204D01*
X118141989Y-33929201D01*
X118145591Y-33895692D01*
X118148499Y-33868654D01*
X118148500Y-33868637D01*
X118148500Y-33777500D01*
X118168185Y-33710461D01*
X118220989Y-33664706D01*
X118272500Y-33653500D01*
X120701648Y-33653500D01*
X120768687Y-33673185D01*
X120803220Y-33706373D01*
X120913802Y-33864300D01*
X121075700Y-34026198D01*
X121263251Y-34157523D01*
X121372431Y-34208434D01*
X121470750Y-34254281D01*
X121470752Y-34254281D01*
X121470757Y-34254284D01*
X121691913Y-34313543D01*
X121854832Y-34327796D01*
X121919998Y-34333498D01*
X121920000Y-34333498D01*
X121920002Y-34333498D01*
X121977139Y-34328499D01*
X122148087Y-34313543D01*
X122369243Y-34254284D01*
X122576749Y-34157523D01*
X122764300Y-34026198D01*
X122926198Y-33864300D01*
X123036779Y-33706374D01*
X123091354Y-33662751D01*
X123138352Y-33653500D01*
X125146648Y-33653500D01*
X125213687Y-33673185D01*
X125248220Y-33706373D01*
X125358802Y-33864300D01*
X125520700Y-34026198D01*
X125708251Y-34157523D01*
X125817431Y-34208434D01*
X125915750Y-34254281D01*
X125915752Y-34254281D01*
X125915757Y-34254284D01*
X126136913Y-34313543D01*
X126299832Y-34327796D01*
X126364998Y-34333498D01*
X126365000Y-34333498D01*
X126365002Y-34333498D01*
X126422139Y-34328499D01*
X126593087Y-34313543D01*
X126814243Y-34254284D01*
X127021749Y-34157523D01*
X127209300Y-34026198D01*
X127371198Y-33864300D01*
X127481779Y-33706374D01*
X127536354Y-33662751D01*
X127583352Y-33653500D01*
X130974567Y-33653500D01*
X131041606Y-33673185D01*
X131087361Y-33725989D01*
X131093544Y-33742566D01*
X131126221Y-33853858D01*
X131126222Y-33853859D01*
X131126223Y-33853862D01*
X131223229Y-34042026D01*
X131347918Y-34200581D01*
X131354094Y-34208434D01*
X131514077Y-34347061D01*
X131514088Y-34347069D01*
X131613307Y-34404352D01*
X131697418Y-34452913D01*
X131897473Y-34522153D01*
X132107016Y-34552281D01*
X132318474Y-34542208D01*
X132524204Y-34492298D01*
X132716771Y-34404356D01*
X132823297Y-34328499D01*
X132889210Y-34281563D01*
X132889211Y-34281561D01*
X132889215Y-34281559D01*
X133035303Y-34128346D01*
X133054147Y-34099025D01*
X133149753Y-33950258D01*
X133149755Y-33950255D01*
X133149756Y-33950254D01*
X133194836Y-33837649D01*
X133238024Y-33782730D01*
X133304051Y-33759877D01*
X133371951Y-33776349D01*
X133420167Y-33826916D01*
X133423417Y-33834341D01*
X133423428Y-33834337D01*
X133512894Y-34026198D01*
X133522477Y-34046749D01*
X133653802Y-34234300D01*
X133815700Y-34396198D01*
X134003251Y-34527523D01*
X134123385Y-34583542D01*
X134210750Y-34624281D01*
X134210752Y-34624281D01*
X134210757Y-34624284D01*
X134431913Y-34683543D01*
X134594832Y-34697796D01*
X134659998Y-34703498D01*
X134660000Y-34703498D01*
X134660002Y-34703498D01*
X134717021Y-34698509D01*
X134888087Y-34683543D01*
X135109243Y-34624284D01*
X135316749Y-34527523D01*
X135504300Y-34396198D01*
X135666198Y-34234300D01*
X135797523Y-34046749D01*
X135894284Y-33839243D01*
X135953543Y-33618087D01*
X135968500Y-33447127D01*
X135968500Y-32893685D01*
X136305740Y-32893685D01*
X136315755Y-33078406D01*
X136315755Y-33078411D01*
X136365244Y-33256656D01*
X136365247Y-33256662D01*
X136451898Y-33420102D01*
X136514540Y-33493850D01*
X136571663Y-33561100D01*
X136718936Y-33673054D01*
X136886833Y-33750732D01*
X136886834Y-33750732D01*
X136886836Y-33750733D01*
X136934354Y-33761192D01*
X137067503Y-33790500D01*
X137067506Y-33790500D01*
X137206107Y-33790500D01*
X137206113Y-33790500D01*
X137343910Y-33775514D01*
X137519221Y-33716444D01*
X137677736Y-33621070D01*
X137812041Y-33493849D01*
X137911521Y-33347127D01*
X138351500Y-33347127D01*
X138366456Y-33518081D01*
X138366457Y-33518089D01*
X138425714Y-33739238D01*
X138425718Y-33739249D01*
X138518919Y-33939119D01*
X138522477Y-33946749D01*
X138653802Y-34134300D01*
X138815700Y-34296198D01*
X139003251Y-34427523D01*
X139128091Y-34485736D01*
X139210750Y-34524281D01*
X139210752Y-34524281D01*
X139210757Y-34524284D01*
X139431913Y-34583543D01*
X139594832Y-34597796D01*
X139659998Y-34603498D01*
X139660000Y-34603498D01*
X139660002Y-34603498D01*
X139717021Y-34598509D01*
X139888087Y-34583543D01*
X140109243Y-34524284D01*
X140316749Y-34427523D01*
X140504300Y-34296198D01*
X140666198Y-34134300D01*
X140797523Y-33946749D01*
X140877136Y-33776016D01*
X140923308Y-33723577D01*
X140990501Y-33704425D01*
X141057383Y-33724640D01*
X141102717Y-33777806D01*
X141108495Y-33793486D01*
X141126223Y-33853862D01*
X141223229Y-34042026D01*
X141347918Y-34200581D01*
X141354094Y-34208434D01*
X141514077Y-34347061D01*
X141514088Y-34347069D01*
X141613307Y-34404352D01*
X141697418Y-34452913D01*
X141897473Y-34522153D01*
X142107016Y-34552281D01*
X142318474Y-34542208D01*
X142524204Y-34492298D01*
X142716771Y-34404356D01*
X142823297Y-34328499D01*
X142889210Y-34281563D01*
X142889211Y-34281561D01*
X142889215Y-34281559D01*
X143035303Y-34128346D01*
X143054147Y-34099025D01*
X143149753Y-33950258D01*
X143149756Y-33950254D01*
X143228436Y-33753721D01*
X143268500Y-33545849D01*
X143268500Y-32387197D01*
X143253419Y-32229261D01*
X143193777Y-32026138D01*
X143096771Y-31837974D01*
X142965908Y-31671568D01*
X142964100Y-31670001D01*
X142805922Y-31532938D01*
X142805911Y-31532930D01*
X142622584Y-31427088D01*
X142622583Y-31427087D01*
X142622582Y-31427087D01*
X142508784Y-31387701D01*
X142422528Y-31357847D01*
X142370141Y-31350315D01*
X142212984Y-31327719D01*
X142212981Y-31327719D01*
X142182762Y-31329158D01*
X142001526Y-31337792D01*
X141927651Y-31355714D01*
X141795799Y-31387701D01*
X141795797Y-31387701D01*
X141603229Y-31475643D01*
X141603223Y-31475647D01*
X141430789Y-31598436D01*
X141430783Y-31598442D01*
X141284693Y-31751657D01*
X141170246Y-31929741D01*
X141170243Y-31929746D01*
X141103765Y-32095800D01*
X141060575Y-32150721D01*
X140994548Y-32173573D01*
X140926647Y-32157100D01*
X140878432Y-32106533D01*
X140876266Y-32102117D01*
X140848523Y-32042622D01*
X140797523Y-31933251D01*
X140666198Y-31745700D01*
X140504300Y-31583802D01*
X140316749Y-31452477D01*
X140262300Y-31427087D01*
X140109249Y-31355718D01*
X140109238Y-31355714D01*
X139888089Y-31296457D01*
X139888081Y-31296456D01*
X139660002Y-31276502D01*
X139659998Y-31276502D01*
X139431918Y-31296456D01*
X139431910Y-31296457D01*
X139210761Y-31355714D01*
X139210750Y-31355718D01*
X139003254Y-31452475D01*
X139003252Y-31452476D01*
X138970165Y-31475644D01*
X138815700Y-31583802D01*
X138815698Y-31583803D01*
X138815695Y-31583806D01*
X138653806Y-31745695D01*
X138653803Y-31745698D01*
X138653802Y-31745700D01*
X138625781Y-31785718D01*
X138522476Y-31933252D01*
X138522475Y-31933254D01*
X138425718Y-32140750D01*
X138425714Y-32140761D01*
X138366457Y-32361910D01*
X138366456Y-32361918D01*
X138351500Y-32532873D01*
X138351500Y-33347127D01*
X137911521Y-33347127D01*
X137915858Y-33340730D01*
X137984331Y-33168875D01*
X138014260Y-32986317D01*
X138004245Y-32801593D01*
X138004244Y-32801588D01*
X137954755Y-32623343D01*
X137954752Y-32623337D01*
X137868101Y-32459897D01*
X137748337Y-32318900D01*
X137716275Y-32294527D01*
X137601064Y-32206946D01*
X137433167Y-32129268D01*
X137433163Y-32129266D01*
X137252497Y-32089500D01*
X137113887Y-32089500D01*
X137113883Y-32089500D01*
X136976088Y-32104486D01*
X136800776Y-32163557D01*
X136800774Y-32163558D01*
X136642262Y-32258931D01*
X136642261Y-32258932D01*
X136507959Y-32386149D01*
X136404138Y-32539276D01*
X136335669Y-32711122D01*
X136305740Y-32893685D01*
X135968500Y-32893685D01*
X135968500Y-32432873D01*
X135953543Y-32261913D01*
X135894284Y-32040757D01*
X135887469Y-32026143D01*
X135820476Y-31882475D01*
X135797523Y-31833251D01*
X135666198Y-31645700D01*
X135504300Y-31483802D01*
X135316749Y-31352477D01*
X135285257Y-31337792D01*
X135109249Y-31255718D01*
X135109238Y-31255714D01*
X134888089Y-31196457D01*
X134888081Y-31196456D01*
X134660002Y-31176502D01*
X134659998Y-31176502D01*
X134431918Y-31196456D01*
X134431910Y-31196457D01*
X134210761Y-31255714D01*
X134210750Y-31255718D01*
X134003254Y-31352475D01*
X134003252Y-31352476D01*
X133952946Y-31387701D01*
X133815700Y-31483802D01*
X133815698Y-31483803D01*
X133815695Y-31483806D01*
X133653806Y-31645695D01*
X133653803Y-31645698D01*
X133653802Y-31645700D01*
X133635691Y-31671565D01*
X133522476Y-31833251D01*
X133424846Y-32042622D01*
X133378674Y-32095061D01*
X133311480Y-32114213D01*
X133244599Y-32093997D01*
X133199265Y-32040832D01*
X133194708Y-32028463D01*
X133193779Y-32026143D01*
X133193777Y-32026140D01*
X133193777Y-32026138D01*
X133096771Y-31837974D01*
X132965908Y-31671568D01*
X132964100Y-31670001D01*
X132805922Y-31532938D01*
X132805911Y-31532930D01*
X132622584Y-31427088D01*
X132622583Y-31427087D01*
X132622582Y-31427087D01*
X132508784Y-31387701D01*
X132422528Y-31357847D01*
X132370141Y-31350315D01*
X132212984Y-31327719D01*
X132212981Y-31327719D01*
X132182762Y-31329158D01*
X132001526Y-31337792D01*
X131927651Y-31355714D01*
X131795799Y-31387701D01*
X131795797Y-31387701D01*
X131603229Y-31475643D01*
X131603223Y-31475647D01*
X131430789Y-31598436D01*
X131430783Y-31598442D01*
X131284693Y-31751657D01*
X131170246Y-31929741D01*
X131091563Y-32126280D01*
X131071717Y-32229257D01*
X131061583Y-32281838D01*
X131060787Y-32285967D01*
X131028771Y-32348070D01*
X130968262Y-32383005D01*
X130939028Y-32386500D01*
X127583352Y-32386500D01*
X127516313Y-32366815D01*
X127481779Y-32333626D01*
X127371198Y-32175700D01*
X127209300Y-32013802D01*
X127021749Y-31882477D01*
X127021745Y-31882475D01*
X126814249Y-31785718D01*
X126814238Y-31785714D01*
X126593089Y-31726457D01*
X126593081Y-31726456D01*
X126365002Y-31706502D01*
X126364998Y-31706502D01*
X126136918Y-31726456D01*
X126136910Y-31726457D01*
X125915761Y-31785714D01*
X125915750Y-31785718D01*
X125708254Y-31882475D01*
X125708252Y-31882476D01*
X125640751Y-31929741D01*
X125520700Y-32013802D01*
X125520698Y-32013803D01*
X125520695Y-32013806D01*
X125358806Y-32175695D01*
X125358803Y-32175698D01*
X125358802Y-32175700D01*
X125248220Y-32333625D01*
X125193646Y-32377249D01*
X125146648Y-32386500D01*
X123138352Y-32386500D01*
X123071313Y-32366815D01*
X123036779Y-32333626D01*
X122926198Y-32175700D01*
X122764300Y-32013802D01*
X122576749Y-31882477D01*
X122576745Y-31882475D01*
X122369249Y-31785718D01*
X122369238Y-31785714D01*
X122148089Y-31726457D01*
X122148081Y-31726456D01*
X121920002Y-31706502D01*
X121919998Y-31706502D01*
X121691918Y-31726456D01*
X121691910Y-31726457D01*
X121470761Y-31785714D01*
X121470750Y-31785718D01*
X121263254Y-31882475D01*
X121263252Y-31882476D01*
X121195751Y-31929741D01*
X121075700Y-32013802D01*
X121075698Y-32013803D01*
X121075695Y-32013806D01*
X120913806Y-32175695D01*
X120913803Y-32175698D01*
X120913802Y-32175700D01*
X120803220Y-32333625D01*
X120748646Y-32377249D01*
X120701648Y-32386500D01*
X118272500Y-32386500D01*
X118205461Y-32366815D01*
X118159706Y-32314011D01*
X118148500Y-32262500D01*
X118148500Y-32171362D01*
X118148499Y-32171345D01*
X118145157Y-32140270D01*
X118141989Y-32110799D01*
X118139634Y-32104486D01*
X118111279Y-32028463D01*
X118090889Y-31973796D01*
X118003261Y-31856739D01*
X117886204Y-31769111D01*
X117749203Y-31718011D01*
X117688654Y-31711500D01*
X117688638Y-31711500D01*
X115991362Y-31711500D01*
X115991345Y-31711500D01*
X115930797Y-31718011D01*
X115930795Y-31718011D01*
X115793795Y-31769111D01*
X115676739Y-31856739D01*
X115589111Y-31973795D01*
X115538011Y-32110795D01*
X115538011Y-32110797D01*
X115531500Y-32171345D01*
X115531323Y-32174669D01*
X115531144Y-32174659D01*
X115531144Y-32174665D01*
X115531040Y-32174653D01*
X115529871Y-32174591D01*
X115511815Y-32236083D01*
X115459011Y-32281838D01*
X115426033Y-32287518D01*
X114737953Y-32975598D01*
X114725165Y-32894852D01*
X114667641Y-32781955D01*
X114578045Y-32692359D01*
X114465148Y-32634835D01*
X114384400Y-32622046D01*
X115065472Y-31940974D01*
X115065471Y-31940973D01*
X114992483Y-31889866D01*
X114992481Y-31889865D01*
X114786326Y-31793734D01*
X114786317Y-31793730D01*
X114566610Y-31734860D01*
X114566599Y-31734858D01*
X114340002Y-31715034D01*
X114339998Y-31715034D01*
X114113400Y-31734858D01*
X114113389Y-31734860D01*
X113893682Y-31793730D01*
X113893673Y-31793734D01*
X113687513Y-31889868D01*
X113614527Y-31940972D01*
X113614526Y-31940973D01*
X114295600Y-32622046D01*
X114214852Y-32634835D01*
X114101955Y-32692359D01*
X114012359Y-32781955D01*
X113954835Y-32894852D01*
X113942046Y-32975599D01*
X113260973Y-32294526D01*
X113260972Y-32294527D01*
X113209868Y-32367513D01*
X113113734Y-32573673D01*
X113113730Y-32573682D01*
X113054860Y-32793389D01*
X113054858Y-32793400D01*
X113035034Y-33019997D01*
X113035034Y-33020002D01*
X107180000Y-33020002D01*
X107180000Y-32948111D01*
X107139493Y-32810156D01*
X107113686Y-32770000D01*
X108179999Y-32770000D01*
X108179999Y-32370028D01*
X108179998Y-32370013D01*
X108169505Y-32267302D01*
X108114358Y-32100880D01*
X108114356Y-32100875D01*
X108022315Y-31951654D01*
X107898345Y-31827684D01*
X107749124Y-31735643D01*
X107749119Y-31735641D01*
X107582697Y-31680494D01*
X107582690Y-31680493D01*
X107479986Y-31670000D01*
X106930000Y-31670000D01*
X106930000Y-32584498D01*
X106822315Y-32535320D01*
X106715763Y-32520000D01*
X106644237Y-32520000D01*
X106537685Y-32535320D01*
X106430000Y-32584498D01*
X106430000Y-31670000D01*
X105880028Y-31670000D01*
X105880012Y-31670001D01*
X105777302Y-31680494D01*
X105610880Y-31735641D01*
X105610875Y-31735643D01*
X105461654Y-31827684D01*
X105337684Y-31951654D01*
X105245643Y-32100875D01*
X105245641Y-32100880D01*
X105190494Y-32267302D01*
X105190493Y-32267309D01*
X105180000Y-32370013D01*
X105180000Y-32770000D01*
X106246314Y-32770000D01*
X106220507Y-32810156D01*
X106180000Y-32948111D01*
X106180000Y-33091889D01*
X106220507Y-33229844D01*
X106246314Y-33270000D01*
X105180001Y-33270000D01*
X105180001Y-33669986D01*
X105190494Y-33772697D01*
X105245641Y-33939119D01*
X105245643Y-33939124D01*
X105337684Y-34088345D01*
X105461654Y-34212315D01*
X105610847Y-34304338D01*
X105657571Y-34356286D01*
X105668794Y-34425249D01*
X105640950Y-34489331D01*
X105631551Y-34499399D01*
X105576375Y-34552281D01*
X105506524Y-34619228D01*
X105408303Y-34752031D01*
X105369013Y-34805155D01*
X105264905Y-35011641D01*
X105197188Y-35232759D01*
X105167816Y-35462135D01*
X101600500Y-35462135D01*
X101600500Y-27893685D01*
X131305740Y-27893685D01*
X131315755Y-28078406D01*
X131315755Y-28078411D01*
X131365244Y-28256656D01*
X131365247Y-28256662D01*
X131451898Y-28420102D01*
X131517021Y-28496771D01*
X131571663Y-28561100D01*
X131718936Y-28673054D01*
X131886833Y-28750732D01*
X131886834Y-28750732D01*
X131886836Y-28750733D01*
X131941648Y-28762797D01*
X132067503Y-28790500D01*
X132067506Y-28790500D01*
X132206107Y-28790500D01*
X132206113Y-28790500D01*
X132343910Y-28775514D01*
X132519221Y-28716444D01*
X132677736Y-28621070D01*
X132812041Y-28493849D01*
X132915858Y-28340730D01*
X132984331Y-28168875D01*
X133014260Y-27986317D01*
X133008876Y-27887016D01*
X135547719Y-27887016D01*
X135557792Y-28098474D01*
X135596167Y-28256656D01*
X135607701Y-28304200D01*
X135607701Y-28304202D01*
X135695643Y-28496770D01*
X135695647Y-28496776D01*
X135818436Y-28669210D01*
X135818442Y-28669216D01*
X135971657Y-28815306D01*
X136149741Y-28929753D01*
X136149746Y-28929756D01*
X136346279Y-29008436D01*
X136450215Y-29028468D01*
X136554150Y-29048500D01*
X136554151Y-29048500D01*
X137712797Y-29048500D01*
X137712803Y-29048500D01*
X137870739Y-29033419D01*
X138073862Y-28973777D01*
X138262026Y-28876771D01*
X138428432Y-28745908D01*
X138567065Y-28585918D01*
X138672913Y-28402582D01*
X138742153Y-28202527D01*
X138772281Y-27992984D01*
X138767551Y-27893685D01*
X141305740Y-27893685D01*
X141315755Y-28078406D01*
X141315755Y-28078411D01*
X141365244Y-28256656D01*
X141365247Y-28256662D01*
X141451898Y-28420102D01*
X141517021Y-28496771D01*
X141571663Y-28561100D01*
X141718936Y-28673054D01*
X141886833Y-28750732D01*
X141886834Y-28750732D01*
X141886836Y-28750733D01*
X141941648Y-28762797D01*
X142067503Y-28790500D01*
X142067506Y-28790500D01*
X142206107Y-28790500D01*
X142206113Y-28790500D01*
X142343910Y-28775514D01*
X142519221Y-28716444D01*
X142677736Y-28621070D01*
X142812041Y-28493849D01*
X142915858Y-28340730D01*
X142984331Y-28168875D01*
X143014260Y-27986317D01*
X143004245Y-27801593D01*
X143004244Y-27801588D01*
X142954755Y-27623343D01*
X142954752Y-27623337D01*
X142868101Y-27459897D01*
X142748337Y-27318900D01*
X142669449Y-27258931D01*
X142601064Y-27206946D01*
X142433167Y-27129268D01*
X142433163Y-27129266D01*
X142252497Y-27089500D01*
X142113887Y-27089500D01*
X142113883Y-27089500D01*
X141976088Y-27104486D01*
X141800776Y-27163557D01*
X141800774Y-27163558D01*
X141642262Y-27258931D01*
X141642261Y-27258932D01*
X141507959Y-27386149D01*
X141404138Y-27539276D01*
X141335669Y-27711122D01*
X141305740Y-27893685D01*
X138767551Y-27893685D01*
X138762208Y-27781526D01*
X138712298Y-27575796D01*
X138624356Y-27383229D01*
X138624352Y-27383223D01*
X138501563Y-27210789D01*
X138501557Y-27210783D01*
X138348342Y-27064693D01*
X138170258Y-26950246D01*
X138170255Y-26950245D01*
X138170254Y-26950244D01*
X137973721Y-26871564D01*
X137973719Y-26871563D01*
X137765850Y-26831500D01*
X137765849Y-26831500D01*
X136607197Y-26831500D01*
X136449261Y-26846581D01*
X136449257Y-26846582D01*
X136246140Y-26906222D01*
X136057975Y-27003228D01*
X135891565Y-27134094D01*
X135752938Y-27294077D01*
X135752930Y-27294088D01*
X135647088Y-27477415D01*
X135577847Y-27677471D01*
X135562887Y-27781523D01*
X135547719Y-27887016D01*
X133008876Y-27887016D01*
X133004245Y-27801593D01*
X133004244Y-27801588D01*
X132954755Y-27623343D01*
X132954752Y-27623337D01*
X132868101Y-27459897D01*
X132748337Y-27318900D01*
X132669449Y-27258931D01*
X132601064Y-27206946D01*
X132433167Y-27129268D01*
X132433163Y-27129266D01*
X132252497Y-27089500D01*
X132113887Y-27089500D01*
X132113883Y-27089500D01*
X131976088Y-27104486D01*
X131800776Y-27163557D01*
X131800774Y-27163558D01*
X131642262Y-27258931D01*
X131642261Y-27258932D01*
X131507959Y-27386149D01*
X131404138Y-27539276D01*
X131335669Y-27711122D01*
X131305740Y-27893685D01*
X101600500Y-27893685D01*
X101600500Y-25393685D01*
X131305740Y-25393685D01*
X131315755Y-25578406D01*
X131315755Y-25578411D01*
X131365244Y-25756656D01*
X131365247Y-25756662D01*
X131451898Y-25920102D01*
X131514540Y-25993850D01*
X131571663Y-26061100D01*
X131718936Y-26173054D01*
X131886833Y-26250732D01*
X131886834Y-26250732D01*
X131886836Y-26250733D01*
X131941648Y-26262797D01*
X132067503Y-26290500D01*
X132067506Y-26290500D01*
X132206107Y-26290500D01*
X132206113Y-26290500D01*
X132343910Y-26275514D01*
X132519221Y-26216444D01*
X132677736Y-26121070D01*
X132812041Y-25993849D01*
X132915858Y-25840730D01*
X132984331Y-25668875D01*
X133014260Y-25486317D01*
X133009238Y-25393685D01*
X141305740Y-25393685D01*
X141315755Y-25578406D01*
X141315755Y-25578411D01*
X141365244Y-25756656D01*
X141365247Y-25756662D01*
X141451898Y-25920102D01*
X141514540Y-25993850D01*
X141571663Y-26061100D01*
X141718936Y-26173054D01*
X141886833Y-26250732D01*
X141886834Y-26250732D01*
X141886836Y-26250733D01*
X141941648Y-26262797D01*
X142067503Y-26290500D01*
X142067506Y-26290500D01*
X142206107Y-26290500D01*
X142206113Y-26290500D01*
X142343910Y-26275514D01*
X142519221Y-26216444D01*
X142677736Y-26121070D01*
X142812041Y-25993849D01*
X142915858Y-25840730D01*
X142984331Y-25668875D01*
X143014260Y-25486317D01*
X143004245Y-25301593D01*
X142954754Y-25123341D01*
X142868100Y-24959896D01*
X142805460Y-24886151D01*
X142748337Y-24818900D01*
X142740845Y-24813205D01*
X142601064Y-24706946D01*
X142433167Y-24629268D01*
X142433163Y-24629266D01*
X142252497Y-24589500D01*
X142113887Y-24589500D01*
X142113883Y-24589500D01*
X141976088Y-24604486D01*
X141800776Y-24663557D01*
X141800774Y-24663558D01*
X141642262Y-24758931D01*
X141642261Y-24758932D01*
X141507959Y-24886149D01*
X141404138Y-25039276D01*
X141335669Y-25211122D01*
X141305740Y-25393685D01*
X133009238Y-25393685D01*
X133004245Y-25301593D01*
X132954754Y-25123341D01*
X132868100Y-24959896D01*
X132805460Y-24886151D01*
X132748337Y-24818900D01*
X132740845Y-24813205D01*
X132601064Y-24706946D01*
X132433167Y-24629268D01*
X132433163Y-24629266D01*
X132252497Y-24589500D01*
X132113887Y-24589500D01*
X132113883Y-24589500D01*
X131976088Y-24604486D01*
X131800776Y-24663557D01*
X131800774Y-24663558D01*
X131642262Y-24758931D01*
X131642261Y-24758932D01*
X131507959Y-24886149D01*
X131404138Y-25039276D01*
X131335669Y-25211122D01*
X131305740Y-25393685D01*
X101600500Y-25393685D01*
X101600500Y-23619263D01*
X101620185Y-23552224D01*
X101672989Y-23506469D01*
X101724261Y-23495263D01*
X130660100Y-23440500D01*
X134835500Y-23440500D01*
X134902539Y-23460185D01*
G37*
%TD.AperFunction*%
%TD*%
M02*
