%TF.GenerationSoftware,KiCad,Pcbnew,9.0.9-9.0.9~ubuntu24.04.1*%
%TF.CreationDate,2026-07-17T18:33:11-04:00*%
%TF.ProjectId,daughter_board,64617567-6874-4657-925f-626f6172642e,rev?*%
%TF.SameCoordinates,Original*%
%TF.FileFunction,Legend,Top*%
%TF.FilePolarity,Positive*%
%FSLAX46Y46*%
G04 Gerber Fmt 4.6, Leading zero omitted, Abs format (unit mm)*
G04 Created by KiCad (PCBNEW 9.0.9-9.0.9~ubuntu24.04.1) date 2026-07-17 18:33:11*
%MOMM*%
%LPD*%
G01*
G04 APERTURE LIST*
%ADD10C,0.150000*%
%ADD11C,0.508000*%
%ADD12C,0.152400*%
%ADD13C,0.120000*%
G04 APERTURE END LIST*
D10*
X99511904Y-50545180D02*
X99511904Y-49735657D01*
X99511904Y-49735657D02*
X99464285Y-49640419D01*
X99464285Y-49640419D02*
X99416666Y-49592800D01*
X99416666Y-49592800D02*
X99321428Y-49545180D01*
X99321428Y-49545180D02*
X99130952Y-49545180D01*
X99130952Y-49545180D02*
X99035714Y-49592800D01*
X99035714Y-49592800D02*
X98988095Y-49640419D01*
X98988095Y-49640419D02*
X98940476Y-49735657D01*
X98940476Y-49735657D02*
X98940476Y-50545180D01*
X97940476Y-49545180D02*
X98511904Y-49545180D01*
X98226190Y-49545180D02*
X98226190Y-50545180D01*
X98226190Y-50545180D02*
X98321428Y-50402323D01*
X98321428Y-50402323D02*
X98416666Y-50307085D01*
X98416666Y-50307085D02*
X98511904Y-50259466D01*
X93083332Y-52124819D02*
X92749999Y-51648628D01*
X92511904Y-52124819D02*
X92511904Y-51124819D01*
X92511904Y-51124819D02*
X92892856Y-51124819D01*
X92892856Y-51124819D02*
X92988094Y-51172438D01*
X92988094Y-51172438D02*
X93035713Y-51220057D01*
X93035713Y-51220057D02*
X93083332Y-51315295D01*
X93083332Y-51315295D02*
X93083332Y-51458152D01*
X93083332Y-51458152D02*
X93035713Y-51553390D01*
X93035713Y-51553390D02*
X92988094Y-51601009D01*
X92988094Y-51601009D02*
X92892856Y-51648628D01*
X92892856Y-51648628D02*
X92511904Y-51648628D01*
X94035713Y-52124819D02*
X93464285Y-52124819D01*
X93749999Y-52124819D02*
X93749999Y-51124819D01*
X93749999Y-51124819D02*
X93654761Y-51267676D01*
X93654761Y-51267676D02*
X93559523Y-51362914D01*
X93559523Y-51362914D02*
X93464285Y-51410533D01*
X90854818Y-49833333D02*
X91569103Y-49833333D01*
X91569103Y-49833333D02*
X91711960Y-49880952D01*
X91711960Y-49880952D02*
X91807199Y-49976190D01*
X91807199Y-49976190D02*
X91854818Y-50119047D01*
X91854818Y-50119047D02*
X91854818Y-50214285D01*
X91854818Y-48833333D02*
X91854818Y-49404761D01*
X91854818Y-49119047D02*
X90854818Y-49119047D01*
X90854818Y-49119047D02*
X90997675Y-49214285D01*
X90997675Y-49214285D02*
X91092913Y-49309523D01*
X91092913Y-49309523D02*
X91140532Y-49404761D01*
D11*
%TO.C,U1*%
X95405800Y-51339101D02*
G75*
G02*
X94851098Y-51000000I-173701J339101D01*
G01*
D12*
X100129311Y-48577600D02*
X99498114Y-48577600D01*
X95867100Y-49732092D02*
X95867100Y-50267908D01*
X97370688Y-51422400D02*
X100129311Y-51422400D01*
X101632900Y-50267908D02*
X101632900Y-49732092D01*
D11*
X94851100Y-51000000D02*
G75*
G02*
X95405799Y-50660901I380999J0D01*
G01*
D12*
X98001885Y-48577600D02*
X97370688Y-48577600D01*
D13*
%TO.C,R1*%
X92522935Y-52590000D02*
X93977063Y-52590000D01*
X92522935Y-54410000D02*
X93977063Y-54410000D01*
%TO.C,J1*%
X90609999Y-44090000D02*
X89359999Y-44090000D01*
X90309999Y-44390000D02*
X83689999Y-44390000D01*
X86999999Y-44390000D02*
X86999999Y-45400000D01*
X83689999Y-44390000D02*
X83689999Y-54610000D01*
X90609999Y-45340000D02*
X90609999Y-44090000D01*
X88699999Y-45400000D02*
X84399999Y-45400000D01*
X84399999Y-45400000D02*
X84399999Y-53600000D01*
X90309999Y-47100000D02*
X90309999Y-44390000D01*
X89309999Y-47100000D02*
X90309999Y-47100000D01*
X89909999Y-48700000D02*
X89309999Y-48700000D01*
X89309999Y-48700000D02*
X89309999Y-47100000D01*
X89909999Y-50300000D02*
X89909999Y-48700000D01*
X89309999Y-50300000D02*
X89909999Y-50300000D01*
X90309999Y-51900000D02*
X89309999Y-51900000D01*
X89309999Y-51900000D02*
X89309999Y-50300000D01*
X88699999Y-53600000D02*
X88699999Y-45400000D01*
X84399999Y-53600000D02*
X88699999Y-53600000D01*
X90309999Y-54610000D02*
X90309999Y-51900000D01*
X86999999Y-54610000D02*
X86999999Y-53600000D01*
X83689999Y-54610000D02*
X90309999Y-54610000D01*
%TD*%
M02*
